<?xml version="1.0" standalone="no"?><!DOCTYPE svg PUBLIC "-//W3C//DTD SVG 1.1//EN" "http://www.w3.org/Graphics/SVG/1.1/DTD/svg11.dtd" ><svg xmlns="http://www.w3.org/2000/svg"><metadata></metadata><defs><font id="FontForge 2.0 : MYingHeiPRC-W4 : 18-3-2017" horiz-adv-x="1000"><font-face font-family="" font-weight="400" font-stretch="normal" units-per-em="1000" panose-1="2 0 5 3 0 0 0 0 0 0" ascent="973" descent="-248" x-height="0" bbox="-18 -214 1000 848" underline-thickness="50" underline-position="-125" unicode-range="U+0025-ffe5" /><missing-glyph horiz-adv-x="1000" d="M141 719 l718 0 l0 -719 l-718 0 l0 719 ZM820 39 l0 641 l-640 0 l0 -641 l640 0 Z" /><glyph glyph-name="percent" unicode="%" d="M726 722 l85 0 l-537 -744 l-86 0 l538 744 ZM254 308 q-80 0 -121 50.5 q-41 50.5 -41 147.5 q0 98 41 150.5 q41 52.5 121 52.5 q160 0 160 -200 q0 -93 -42 -147 q-42 -54 -118 -54 ZM251 363 q88 0 88 146 q0 145 -86 145 q-86 0 -86 -147 q0 -144 84 -144 ZM748 -12 q-78 0 -120 51 q-42 51 -42 147 q0 97 42 150 q42 53 120 53 q160 0 160 -200 q0 -92 -44 -146.5 q-44 -54.5 -116 -54.5 ZM745 43 q88 0 88 146 q0 145 -85 145 q-87 0 -87 -146 q0 -145 84 -145 Z" /><glyph glyph-name="parenleft" unicode="(" d="M204 -198 q-83 129 -120 240 q-37 111 -37 228 q0 118 41 238.5 q41 120.5 116 222.5 l65 0 q-132 -205 -132 -461 q0 -132 30.5 -243 q30.5 -111 101.5 -225 l-65 0 Z" /><glyph glyph-name="parenright" unicode=")" d="M-10 -198 q132 209 132 461 q0 255 -132 468 l65 0 q82 -128 119.5 -238.5 q37.5 -110.5 37.5 -229.5 q0 -246 -157 -461 l-65 0 Z" /><glyph glyph-name="asterisk" unicode="*" d="M65 464 l65 91 l-106 38 l18 48 l106 -40 l0 113 l53 0 l0 -113 l107 40 l20 -48 l-109 -38 l66 -91 l-41 -31 l-69 96 l-65 -96 l-45 31 Z" /><glyph glyph-name="plus" unicode="+" d="M266 219 l-218 0 l0 68 l218 0 l0 219 l68 0 l0 -219 l218 0 l0 -68 l-218 0 l0 -219 l-68 0 l0 219 Z" /><glyph glyph-name="hyphen" unicode="-" d="M50 318 l289 0 l0 -80 l-289 0 l0 80 Z" /><glyph glyph-name="period" unicode="." d="M83 111 l111 0 l0 -111 l-111 0 l0 111 Z" /><glyph glyph-name="slash" unicode="/" d="M278 731 l73 0 l-296 -748 l-73 0 l296 748 Z" /><glyph glyph-name="zero" unicode="0" d="M457 68 q-57 -80 -179 -80 q-122 0 -179 82 q-57 82 -57 278 q0 197 57 279 q57 82 179 82 q121 0 178.5 -80.5 q57.5 -80.5 57.5 -280.5 q0 -200 -57 -280 ZM278 63 q78 0 112 65.5 q34 65.5 34 217.5 q0 110 -14.5 169 q-14.5 59 -48.5 89 q-35 30 -84 30 q-67 0 -106 -57 q-39 -57 -39 -228 q0 -161 35 -223 q35 -63 111 -63 Z" /><glyph glyph-name="one" unicode="1" d="M271 508 l-184 0 l0 68 l3 0 q90 0 139 32 q49 32 62 101 l65 0 l0 -709 l-85 0 l0 508 Z" /><glyph glyph-name="two" unicode="2" d="M24 0 q7 96 47.5 159.5 q40.5 63.5 141.5 124.5 q109 65 150 110 q41 45 41 111 q0 55 -39 92 q-39 37 -98 37 q-63 0 -100.5 -46.5 q-37.5 -46.5 -37.5 -122.5 l0 -7 l-85 0 l-1 18 q-6 104 58 168.5 q64 64.5 171 64.5 q100 0 161 -56.5 q61 -56.5 61 -147.5 q0 -77 -44 -135.5 q-44 -58.5 -171 -132.5 q-77 -45 -112 -81 q-35 -36 -44 -81 l364 0 l0 -75 l-463 0 Z" /><glyph glyph-name="three" unicode="3" d="M266 -12 q-109 -1 -173 60 q-64 61 -64 168 l0 3 l86 0 q3 -74 43.5 -115 q40.5 -41 107.5 -41 q45 0 80.5 18.5 q35.5 18.5 54.5 50.5 q18 32 18 68 q0 63 -41 99.5 q-41 36.5 -113 36.5 q-7 0 -14.5 -0.5 q-7.5 -0.5 -17.5 -1.5 q-10 -1 -16 -1 l0 72 q9 -1 32 -1 q63 0 102 32 q39 32 39 84 q1 52 -32.5 83 q-33.5 31 -93.5 31 q-62 1 -97.5 -40 q-35.5 -41 -37.5 -114 l-85 0 q6 111 63 170 q57 59 157 59 q101 1 157.5 -49.5 q56.5 -50.5 57.5 -139.5 q0 -93 -98 -142 l0 -2 q63 -14 95.5 -58.5 q32.5 -44.5 32.5 -113.5 q0 -96 -67 -156 q-67 -60 -176 -60 Z" /><glyph glyph-name="four" unicode="4" d="M339 166 l-311 0 l0 82 l323 461 l68 0 l0 -468 l96 0 l0 -75 l-96 0 l0 -166 l-80 0 l0 166 ZM339 241 l0 347 l-2 0 l-236 -347 l238 0 Z" /><glyph glyph-name="five" unicode="5" d="M261 -12 q-99 0 -162.5 57 q-63.5 57 -63.5 145 l0 1 l85 0 q4 -56 45.5 -92 q41.5 -36 103.5 -36 q68 0 109 46 q41 46 41 122 q0 69 -45.5 115 q-45.5 46 -114.5 46 q-75 0 -132 -67 l-73 4 l66 368 l350 0 l0 -75 l-286 0 l-38 -204 l2 -2 q46 51 132 51 q106 0 167.5 -65.5 q61.5 -65.5 61.5 -176.5 q0 -105 -69 -171 q-69 -66 -179 -66 Z" /><glyph glyph-name="six" unicode="6" d="M282 -12 q-244 0 -244 342 q0 185 66.5 282 q66.5 97 194.5 97 q88 0 140 -47 q52 -47 60 -134 l-85 0 q-7 51 -38.5 78.5 q-31.5 27.5 -80.5 27.5 q-166 0 -172 -269 l2 -2 q59 93 177 93 q96 0 156.5 -64.5 q60.5 -64.5 60.5 -164.5 q0 -107 -63.5 -173 q-63.5 -66 -173.5 -66 ZM286 63 q61 0 102 44.5 q41 44.5 41 112.5 q0 74 -38.5 117.5 q-38.5 43.5 -105.5 43.5 q-65 0 -105.5 -44.5 q-40.5 -44.5 -40.5 -115.5 q0 -70 40.5 -114 q40.5 -44 106.5 -44 Z" /><glyph glyph-name="seven" unicode="7" d="M142 0 q25 344 280 617 l-372 0 l0 80 l459 0 l0 -73 q-109 -109 -184.5 -280.5 q-75.5 -171.5 -87.5 -343.5 l-95 0 Z" /><glyph glyph-name="eight" unicode="8" d="M281 -12 q-109 0 -175 58.5 q-66 58.5 -66 157.5 q0 64 32.5 110.5 q32.5 46.5 91.5 66.5 q-47 20 -73 59.5 q-26 39.5 -26 87.5 q0 78 59 129.5 q59 51.5 149 51.5 q100 0 157.5 -49 q57.5 -49 57.5 -132 q0 -46 -25.5 -85 q-25.5 -39 -72.5 -62 q126 -41 126 -177 q0 -97 -66 -156.5 q-66 -59.5 -169 -59.5 ZM281 411 q54 0 85.5 31 q31.5 31 31.5 83 q0 52 -31.5 80.5 q-31.5 28.5 -88.5 28.5 q-54 0 -88.5 -30.5 q-34.5 -30.5 -34.5 -78.5 q0 -52 33.5 -83 q33.5 -31 92.5 -31 ZM281 63 q63 0 104 39 q41 39 41 99 q0 55 -43 95 q-43 40 -104 40 q-63 0 -106 -38.5 q-43 -38.5 -43 -97.5 q0 -62 42 -99.5 q42 -37.5 109 -37.5 Z" /><glyph glyph-name="nine" unicode="9" d="M264 -12 q-93 0 -149 46.5 q-56 46.5 -66 136.5 l85 0 q7 -51 42 -79.5 q35 -28.5 88 -28.5 q78 0 116.5 66.5 q38.5 66.5 43.5 207.5 l-2 2 q-25 -46 -68 -72 q-43 -26 -97 -26 q-104 0 -163.5 64.5 q-59.5 64.5 -59.5 172.5 q0 101 65 166 q65 65 168 65 q124 0 183.5 -83.5 q59.5 -83.5 59.5 -255.5 q0 -196 -61 -289 q-61 -93 -185 -93 ZM264 316 q61 0 103 44.5 q42 44.5 42 111.5 q0 73 -40.5 117.5 q-40.5 44.5 -106.5 44.5 q-65 0 -101.5 -45 q-36.5 -45 -36.5 -123 q0 -60 41.5 -105 q41.5 -45 98.5 -45 Z" /><glyph glyph-name="colon" unicode=":" d="M83 517 l111 0 l0 -111 l-111 0 l0 111 ZM83 111 l111 0 l0 -111 l-111 0 l0 111 Z" /><glyph glyph-name="A" unicode="a" d="M272 714 l105 0 l279 -714 l-105 0 l-78 215 l-302 0 l-80 -215 l-98 0 l279 714 ZM443 295 l-119 333 l-2 0 l-121 -333 l242 0 Z" /><glyph glyph-name="B" unicode="b" d="M78 714 l305 0 q122 0 174 -49 q52 -49 53 -126 q0 -118 -106 -160 l0 -2 q65 -14 100.5 -59.5 q35.5 -45.5 35.5 -112.5 q0 -87 -61.5 -146 q-61.5 -59 -151.5 -59 l-349 0 l0 714 ZM368 407 q74 0 110.5 27 q36.5 27 36.5 87 q0 58 -32.5 85.5 q-32.5 27.5 -113.5 27.5 l-196 0 l0 -227 l195 0 ZM415 80 q59 0 94.5 34.5 q35.5 34.5 35.5 93.5 q0 119 -159 119 l-213 0 l0 -247 l242 0 Z" /><glyph glyph-name="C" unicode="c" d="M373 -17 q-152 0 -241 100 q-89 100 -89 272 q0 169 91.5 272 q91.5 103 246.5 104 q119 0 198.5 -62.5 q79.5 -62.5 95.5 -169.5 l-95 0 q-16 74 -68 113 q-52 39 -132 39 q-109 0 -175.5 -78.5 q-66.5 -78.5 -66.5 -210.5 q0 -140 65 -219.5 q65 -79.5 178 -79.5 q89 0 144.5 57 q55.5 57 61.5 149 l95 0 q-15 -138 -95.5 -212 q-80.5 -74 -213.5 -74 Z" /><glyph glyph-name="D" unicode="d" d="M78 714 l251 0 q163 0 250 -86.5 q87 -86.5 87 -253.5 q0 -374 -337 -374 l-251 0 l0 714 ZM334 80 q113 0 175 73.5 q62 73.5 62 207.5 q0 140 -58.5 206.5 q-58.5 66.5 -174.5 66.5 l-165 0 l0 -554 l161 0 Z" /><glyph glyph-name="E" unicode="e" d="M78 714 l493 0 l0 -80 l-398 0 l0 -227 l371 0 l0 -80 l-371 0 l0 -247 l401 0 l0 -80 l-496 0 l0 714 Z" /><glyph glyph-name="F" unicode="f" d="M78 714 l469 0 l0 -80 l-374 0 l0 -227 l328 0 l0 -80 l-328 0 l0 -327 l-95 0 l0 714 Z" /><glyph glyph-name="G" unicode="g" d="M383 -17 q-146 0 -243 103.5 q-97 103.5 -97 256.5 q0 173 91.5 280.5 q91.5 107.5 248.5 107.5 q128 0 209 -61 q81 -61 98 -176 l-95 0 q-14 76 -69 116.5 q-55 40.5 -143 40.5 q-111 0 -178 -82.5 q-67 -82.5 -67 -220.5 q0 -123 68 -204 q68 -81 177 -81 q100 0 164.5 61.5 q64.5 61.5 64.5 160.5 l0 11 l-228 0 l0 80 l313 0 l0 -376 l-60 0 l-25 89 q-39 -51 -99 -78.5 q-60 -27.5 -130 -27.5 Z" /><glyph glyph-name="H" unicode="h" d="M78 714 l95 0 l0 -307 l376 0 l0 307 l95 0 l0 -714 l-95 0 l0 327 l-376 0 l0 -327 l-95 0 l0 714 Z" /><glyph glyph-name="I" unicode="i" d="M82 714 l95 0 l0 -714 l-95 0 l0 714 Z" /><glyph glyph-name="J" unicode="j" d="M230 -17 q-102 0 -155 53.5 q-53 53.5 -53 173.5 l0 25 l95 0 l0 -24 q0 -81 26.5 -114.5 q26.5 -33.5 88.5 -33.5 q114 0 114 125 l0 526 l95 0 l0 -539 q0 -91 -55.5 -141.5 q-55.5 -50.5 -155.5 -50.5 Z" /><glyph glyph-name="K" unicode="k" d="M78 714 l95 0 l0 -356 l362 356 l123 0 l-301 -288 l313 -426 l-120 0 l-258 361 l-119 -111 l0 -250 l-95 0 l0 714 Z" /><glyph glyph-name="L" unicode="l" d="M78 714 l95 0 l0 -634 l378 0 l0 -80 l-473 0 l0 714 Z" /><glyph glyph-name="M" unicode="m" d="M80 714 l130 0 l225 -600 l226 600 l130 0 l0 -714 l-90 0 l0 594 l-2 0 l-223 -594 l-81 0 l-223 594 l-2 0 l0 -594 l-90 0 l0 714 Z" /><glyph glyph-name="N" unicode="n" d="M77 714 l101 0 l376 -579 l2 0 l0 579 l90 0 l0 -714 l-104 0 l-373 573 l-2 0 l0 -573 l-90 0 l0 714 Z" /><glyph glyph-name="O" unicode="o" d="M380 -17 q-153 0 -247.5 104.5 q-94.5 104.5 -94.5 269.5 q0 163 93.5 268.5 q93.5 105.5 248.5 105.5 q154 0 248 -105 q94 -105 94 -269 q0 -166 -95 -270 q-95 -104 -247 -104 ZM380 63 q112 0 179.5 80.5 q67.5 80.5 67.5 213.5 q0 131 -67 212.5 q-67 81.5 -181 81.5 q-112 0 -179 -82 q-67 -82 -67 -212 q0 -132 68 -213 q68 -81 179 -81 Z" /><glyph glyph-name="P" unicode="p" d="M78 714 l318 0 q99 0 156.5 -54 q57.5 -54 57.5 -157 q0 -101 -55 -156 q-55 -55 -153 -55 l-229 0 l0 -292 l-95 0 l0 714 ZM369 372 q70 0 108 33 q38 33 38 98 q0 131 -152 131 l-190 0 l0 -262 l196 0 Z" /><glyph glyph-name="Q" unicode="q" d="M551 26 q-70 -43 -171 -43 q-153 0 -247.5 104.5 q-94.5 104.5 -94.5 269.5 q0 163 93.5 268.5 q93.5 105.5 248.5 105.5 q154 0 248 -103 q94 -103 94 -271 q0 -177 -108 -284 l94 -75 l-48 -60 l-109 88 ZM380 63 q50 0 99 20 l-79 63 l50 58 l95 -76 q82 82 82 229 q0 131 -67 212.5 q-67 81.5 -181 81.5 q-112 0 -179 -82 q-67 -82 -67 -212 q0 -132 68 -213 q68 -81 179 -81 Z" /><glyph glyph-name="R" unicode="r" d="M78 714 l340 0 q97 0 155 -51 q58 -51 58 -136 q0 -147 -124 -181 l0 -2 q57 -10 81 -51 q24 -41 28 -136 q4 -111 40 -157 l-106 0 q-11 15 -17 55 l-4 78 q-4 80 -31 126 q-27 46 -90 46 l-235 0 l0 -305 l-95 0 l0 714 ZM376 385 q160 0 160 127 q0 58 -32 90 q-32 32 -91 32 l-240 0 l0 -249 l203 0 Z" /><glyph glyph-name="S" unicode="s" d="M332 -17 q-135 -1 -215 67 q-80 68 -80 185 l90 0 q1 -82 57.5 -127 q56.5 -45 150.5 -45 q87 0 134 33.5 q47 33.5 47 96.5 q0 53 -45 83 q-43 29 -156 51 q-103 20 -159.5 47.5 q-56.5 27.5 -76.5 61.5 q-20 34 -20 86 q0 95 71 152 q71 57 188 57 q121 0 192 -60.5 q71 -60.5 71 -165.5 l-90 0 q-17 146 -177 146 q-77 0 -118.5 -31.5 q-41.5 -31.5 -41.5 -90.5 q0 -37 31 -65 q30 -27 198 -62 q117 -24 172.5 -72.5 q55.5 -48.5 55.5 -133.5 q0 -97 -80 -155 q-80 -58 -199 -58 Z" /><glyph glyph-name="T" unicode="t" d="M240 634 l-238 0 l0 80 l571 0 l0 -80 l-238 0 l0 -634 l-95 0 l0 634 Z" /><glyph glyph-name="U" unicode="u" d="M367 -17 q-145 0 -219 69.5 q-74 69.5 -74 200.5 l0 461 l95 0 l0 -460 q0 -90 50.5 -140.5 q50.5 -50.5 147.5 -50.5 q91 0 138.5 51 q47.5 51 47.5 140 l0 460 l95 0 l0 -461 q0 -130 -73 -200 q-73 -70 -208 -70 Z" /><glyph glyph-name="V" unicode="v" d="M-1 714 l103 0 l204 -619 l2 0 l206 619 l99 0 l-254 -714 l-108 0 l-252 714 Z" /><glyph glyph-name="W" unicode="w" d="M12 714 l97 0 l140 -594 l2 0 l160 594 l103 0 l158 -594 l2 0 l145 594 l95 0 l-191 -714 l-99 0 l-163 600 l-2 0 l-165 -600 l-99 0 l-183 714 Z" /><glyph glyph-name="X" unicode="x" d="M248 367 l-235 347 l114 0 l178 -279 l186 279 l106 0 l-236 -347 l251 -367 l-116 0 l-192 295 l-198 -295 l-107 0 l249 367 Z" /><glyph glyph-name="Y" unicode="y" d="M278 292 l-276 422 l113 0 l214 -340 l209 340 l108 0 l-273 -422 l0 -292 l-95 0 l0 292 Z" /><glyph glyph-name="Z" unicode="z" d="M22 80 l444 554 l-410 0 l0 80 l522 0 l0 -80 l-443 -554 l455 0 l0 -80 l-568 0 l0 80 Z" /><glyph glyph-name="a" unicode="a" d="M207 -12 q-81 0 -126 38 q-45 38 -45 107 q0 69 45 110 q46 41 209 62 q55 7 75 21 q20 14 20 43 q0 85 -115 85 q-63 0 -94.5 -23.5 q-31.5 -23.5 -34.5 -74.5 l-85 0 q11 173 220 173 q193 0 193 -139 l0 -298 q0 -29 27 -29 q11 0 26 5 l0 -66 q-26 -14 -61 -14 q-72 0 -72 80 q-68 -80 -182 -80 ZM226 63 q68 0 113 33.5 q45 33.5 45 81.5 l0 89 q-20 -15 -60 -21 l-87 -13 q-57 -8 -84 -30.5 q-27 -22.5 -27 -63.5 q0 -36 26 -56 q26 -20 74 -20 Z" /><glyph glyph-name="b" unicode="b" d="M321 -12 q-51 0 -96 20.5 q-45 20.5 -71 60.5 l-2 0 l0 -69 l-85 0 l0 714 l85 0 l0 -267 l2 0 q40 82 165 82 q108 0 173 -74.5 q65 -74.5 65 -197.5 q0 -121 -64.5 -195 q-64.5 -74 -171.5 -74 ZM312 63 q74 0 114.5 52.5 q40.5 52.5 40.5 147.5 q0 86 -43.5 138.5 q-43.5 52.5 -117.5 52.5 q-72 0 -114.5 -53 q-42.5 -53 -42.5 -142 q0 -91 43 -143.5 q43 -52.5 120 -52.5 Z" /><glyph glyph-name="c" unicode="c" d="M278 -12 q-112 0 -177 70.5 q-65 70.5 -65 193.5 q0 128 65.5 202.5 q65.5 74.5 178.5 74.5 q95 0 153.5 -45 q58.5 -45 69.5 -133 l-88 0 q-22 103 -128 103 q-78 0 -119.5 -52.5 q-41.5 -52.5 -41.5 -149.5 q0 -86 40.5 -137.5 q40.5 -51.5 110.5 -51.5 q62 0 98 32.5 q36 32.5 44 93.5 l87 0 q-14 -97 -73 -149 q-59 -52 -155 -52 Z" /><glyph glyph-name="d" unicode="d" d="M274 -12 q-107 0 -172.5 75 q-65.5 75 -65.5 197 q0 123 63.5 196 q63.5 73 171.5 73 q52 0 98.5 -21.5 q46.5 -21.5 69.5 -59.5 l2 0 l0 266 l85 0 l0 -714 l-85 0 l0 70 l-2 0 q-42 -82 -165 -82 ZM170 116 q44 -53 116 -53 q72 0 115 53.5 q43 53.5 43 141.5 q0 89 -43.5 142.5 q-43.5 53.5 -120.5 53.5 q-74 0 -114 -53 q-40 -53 -40 -147 q0 -85 44 -138 Z" /><glyph glyph-name="e" unicode="e" d="M284 -12 q-118 0 -183 77.5 q-65 77.5 -65 196.5 q0 115 69 191 q69 76 174 76 q109 0 171.5 -78 q62.5 -78 62.5 -208 l0 -10 l-387 0 l0 -6 q0 -75 43 -119.5 q43 -44.5 118 -44.5 q111 0 134 101 l84 0 q-17 -86 -74.5 -131 q-57.5 -45 -146.5 -45 ZM423 308 q-4 63 -45.5 104.5 q-41.5 41.5 -104.5 41.5 q-60 0 -100.5 -40 q-40.5 -40 -46.5 -106 l297 0 Z" /><glyph glyph-name="f" unicode="f" d="M99 442 l-87 0 l0 75 l87 0 l0 81 q0 58 36 91 q36 33 106 33 q30 0 56 -8 l0 -74 q-17 7 -48 7 q-65 0 -65 -56 l0 -74 l100 0 l0 -75 l-100 0 l0 -442 l-85 0 l0 442 Z" /><glyph glyph-name="g" unicode="g" d="M271 -210 q-96 0 -153.5 41 q-57.5 41 -61.5 111 l85 0 q2 -37 40 -60.5 q38 -23.5 94 -23.5 q155 0 155 198 l0 32 l-2 0 q-20 -43 -63.5 -68.5 q-43.5 -25.5 -97.5 -25.5 q-105 0 -168 72 q-63 72 -63 190 q0 123 64 198 q64 75 174 75 q105 0 155 -86 l1 0 l0 74 l80 0 l0 -478 q0 -249 -239 -249 ZM272 69 q70 0 112 55 q42 55 42 145 q0 84 -39.5 134.5 q-39.5 50.5 -108.5 50.5 q-71 0 -111.5 -51 q-40.5 -51 -40.5 -137 q0 -92 38.5 -144.5 q38.5 -52.5 107.5 -52.5 Z" /><glyph glyph-name="h" unicode="h" d="M64 714 l85 0 l0 -273 l2 0 q18 41 62.5 64.5 q44.5 23.5 100.5 23.5 q178 0 178 -185 l0 -344 l-85 0 l0 353 q0 44 -28 72.5 q-28 28.5 -78 28.5 q-71 0 -111.5 -43.5 q-40.5 -43.5 -40.5 -115.5 l0 -295 l-85 0 l0 714 Z" /><glyph glyph-name="i" unicode="i" d="M69 714 l85 0 l0 -104 l-85 0 l0 104 ZM69 517 l85 0 l0 -517 l-85 0 l0 517 Z" /><glyph glyph-name="j" unicode="j" d="M69 714 l85 0 l0 -104 l-85 0 l0 104 ZM30 -198 q-28 0 -44 4 l0 73 q6 -2 28 -2 q38 0 49 21 q6 14 6 46 l0 573 l85 0 l0 -586 q0 -128 -124 -129 Z" /><glyph glyph-name="k" unicode="k" d="M69 714 l85 0 l0 -423 l236 226 l114 0 l-205 -188 l220 -329 l-108 0 l-177 270 l-80 -74 l0 -196 l-85 0 l0 714 Z" /><glyph glyph-name="l" unicode="l" d="M69 714 l85 0 l0 -714 l-85 0 l0 714 Z" /><glyph glyph-name="m" unicode="m" d="M64 517 l80 0 l0 -76 l2 0 q58 88 167 88 q114 0 142 -88 q55 88 163 88 q86 0 128.5 -38.5 q42.5 -38.5 42.5 -108.5 l0 -382 l-85 0 l0 343 q0 57 -23.5 84 q-23.5 27 -76.5 27 q-60 0 -97.5 -35.5 q-37.5 -35.5 -37.5 -93.5 l0 -325 l-85 0 l0 343 q0 57 -23 84 q-23 27 -74 27 q-77 0 -117 -68 q-21 -34 -21 -62 l0 -324 l-85 0 l0 517 Z" /><glyph glyph-name="n" unicode="n" d="M64 517 l80 0 l0 -82 l2 0 q55 94 168 94 q178 0 178 -185 l0 -344 l-85 0 l0 353 q0 44 -28 72.5 q-28 28.5 -78 28.5 q-72 0 -112 -43.5 q-40 -43.5 -40 -115.5 l0 -295 l-85 0 l0 517 Z" /><glyph glyph-name="o" unicode="o" d="M287 -12 q-114 0 -182.5 73.5 q-68.5 73.5 -68.5 196.5 q0 124 67.5 197.5 q67.5 73.5 183.5 73.5 q116 0 183.5 -73.5 q67.5 -73.5 67.5 -197.5 q0 -120 -68 -195 q-68 -75 -183 -75 ZM287 63 q70 0 115.5 54 q45.5 54 45.5 141 q0 87 -45 141.5 q-45 54.5 -117 54.5 q-69 0 -114.5 -55 q-45.5 -55 -45.5 -141 q0 -87 45 -141 q45 -54 116 -54 Z" /><glyph glyph-name="p" unicode="p" d="M67 517 l85 0 l0 -70 l2 0 q40 82 165 82 q110 0 174 -74 q64 -74 64 -198 q0 -121 -64.5 -195 q-64.5 -74 -171.5 -74 q-51 0 -96 20.5 q-45 20.5 -71 60.5 l-2 0 l0 -267 l-85 0 l0 715 ZM312 63 q74 0 114.5 52.5 q40.5 52.5 40.5 147.5 q0 86 -43.5 138.5 q-43.5 52.5 -117.5 52.5 q-72 0 -114.5 -52.5 q-42.5 -52.5 -42.5 -142.5 q0 -91 43 -143.5 q43 -52.5 120 -52.5 Z" /><glyph glyph-name="q" unicode="q" d="M441 70 l-2 0 q-42 -82 -165 -82 q-107 0 -172.5 75 q-65.5 75 -65.5 197 q0 123 64.5 196 q64.5 73 170.5 73 q52 0 98.5 -21.5 q46.5 -21.5 69.5 -59.5 l2 0 l0 69 l85 0 l0 -715 l-85 0 l0 268 ZM170 116 q44 -53 116 -53 q72 0 115 53.5 q43 53.5 43 141.5 q0 89 -43.5 142.5 q-43.5 53.5 -120.5 53.5 q-74 0 -114 -53 q-40 -53 -40 -147 q0 -85 44 -138 Z" /><glyph glyph-name="r" unicode="r" d="M61 517 l80 0 l0 -109 l2 0 q58 121 178 121 l12 0 l0 -90 q-96 0 -141.5 -50.5 q-45.5 -50.5 -45.5 -157.5 l0 -231 l-85 0 l0 517 Z" /><glyph glyph-name="s" unicode="s" d="M250 -12 q-101 0 -158 44.5 q-57 44.5 -61 130.5 l85 0 q2 -48 38 -74 q36 -26 101 -26 q125 0 125 77 q0 34 -30 54 q-37 23 -131 41 q-95 20 -136 53.5 q-41 33.5 -41 93.5 q0 66 52.5 106.5 q52.5 40.5 141.5 40.5 q104 0 155 -40 q51 -40 56 -122 l-85 0 l0 1 q-4 41 -36 63.5 q-32 22.5 -84 22.5 q-52 0 -81 -17 q-29 -17 -29 -49 q0 -29 25 -46.5 q25 -17.5 80 -29.5 l80 -18 q77 -18 115 -51.5 q38 -33.5 38 -91.5 q0 -77 -58.5 -120 q-58.5 -43 -161.5 -43 Z" /><glyph glyph-name="t" unicode="t" d="M215 0 q-67 0 -92.5 22.5 q-25.5 22.5 -25.5 85.5 l0 334 l-88 0 l0 75 l88 0 l0 155 l85 0 l0 -155 l103 0 l0 -75 l-103 0 l0 -324 q0 -25 10 -34 q10 -9 44 -9 l49 0 l0 -75 l-70 0 Z" /><glyph glyph-name="u" unicode="u" d="M242 -12 q-178 0 -178 184 l0 345 l85 0 l0 -352 q0 -46 28.5 -74 q28.5 -28 76.5 -28 q73 0 113 43 q40 43 40 116 l0 295 l85 0 l0 -517 l-80 0 l0 82 l-2 0 q-52 -94 -168 -94 Z" /><glyph glyph-name="v" unicode="v" d="M14 517 l95 0 l145 -431 l2 0 l141 431 l89 0 l-189 -517 l-91 0 l-192 517 Z" /><glyph glyph-name="w" unicode="w" d="M17 517 l94 0 l117 -423 l2 0 l104 423 l93 0 l109 -423 l1 0 l116 423 l88 0 l-164 -516 l-1 -1 l-90 0 l-106 411 l-1 0 l-104 -411 l-92 0 l-166 517 Z" /><glyph glyph-name="x" unicode="x" d="M203 272 l-180 245 l109 0 l123 -180 l1 0 l129 180 l102 0 l-178 -238 l200 -279 l-109 0 l-144 214 l-144 -214 l-103 0 l194 272 Z" /><glyph glyph-name="y" unicode="y" d="M117 -207 q-33 0 -59 9 l0 78 q36 -12 50 -12 q51 0 72 52 l33 83 l-205 514 l96 0 l151 -423 l2 0 l145 423 l90 0 l-220 -572 q-35 -91 -67 -121.5 q-32 -30.5 -88 -30.5 Z" /><glyph glyph-name="z" unicode="z" d="M22 65 l312 377 l-292 0 l0 75 l402 0 l0 -58 l-316 -384 l330 0 l0 -75 l-436 0 l0 65 Z" /><glyph glyph-name="bar" unicode="|" d="M77 786 l68 0 l0 -1000 l-68 0 l0 1000 Z" /><glyph glyph-name="degree" unicode="°" d="M200 421 q-61 0 -102.5 41 q-41.5 41 -41.5 103 q0 60 42 102 q42 42 102 42 q59 0 101.5 -43 q42.5 -43 42.5 -101 q0 -60 -42 -102 q-42 -42 -102 -42 ZM132.5 499 q26.5 -28 67.5 -28 q41 0 67.5 28 q26.5 28 26.5 66 q0 39 -27 66.5 q-27 27.5 -67 27.5 q-41 0 -67.5 -27 q-26.5 -27 -26.5 -67 q0 -38 26.5 -66 Z" /><glyph glyph-name="Identity.172" unicode="&#x3bc;" d="M67 517 l85 0 l0 -353 q0 -46 28 -73.5 q28 -27.5 75 -27.5 q69 0 110.5 43.5 q41.5 43.5 41.5 115.5 l0 295 l85 0 l0 -517 l-80 0 l0 82 l-2 0 q-57 -94 -157 -94 q-66 0 -99 35 l-2 0 l0 -221 l-85 0 l0 715 Z" /><glyph glyph-name="quotedblleft" unicode="&#x201c;" d="M517 638 q0 116 110 151 l0 -50 q-27 -9 -42.5 -34 q-15.5 -25 -15.5 -58 l0 -5 l59 0 l0 -111 l-111 0 l0 107 ZM707 638 q0 116 110 151 l0 -50 q-27 -9 -42.5 -34 q-15.5 -25 -15.5 -58 l0 -5 l59 0 l0 -111 l-111 0 l0 107 Z" /><glyph glyph-name="quotedblright" unicode="&#x201d;" d="M186 581 q27 9 42.5 34 q15.5 25 15.5 58 l0 5 l-59 0 l0 111 l111 0 l0 -107 q0 -116 -110 -151 l0 50 ZM376 581 q27 9 42.5 34 q15.5 25 15.5 58 l0 5 l-59 0 l0 111 l111 0 l0 -107 q0 -116 -110 -151 l0 50 Z" /><glyph glyph-name="Identity.263" unicode="&#x2103;" d="M160 438 q-55 0 -94 39 q-39 39 -39 93 q0 55 39 94 q40 39 94 39 q55 0 94 -39 q39 -39 39 -94 q0 -54 -39 -93 q-38 -39 -94 -39 ZM638 -13 q-143 0 -226.5 94.5 q-83.5 94.5 -83.5 255.5 q0 159 86 256 q86 97 232 98 q112 0 187 -59 q75 -59 89 -160 l-89 0 q-15 70 -64 106.5 q-49 36.5 -124 36.5 q-102 0 -165 -73.5 q-63 -73.5 -63 -197.5 q0 -132 61 -206.5 q61 -74.5 168 -74.5 q83 0 135.5 53.5 q52.5 53.5 58.5 139.5 l89 0 q-14 -130 -89.5 -199.5 q-75.5 -69.5 -201.5 -69.5 ZM160 500 q28 0 55 20 q19 17 19 50 q0 26 -19 51 q-27 20 -55 20 q-27 0 -47 -20 q-23 -25 -23 -51 q0 -33 23 -50 q20 -20 47 -20 Z" /><glyph glyph-name="Identity.451" unicode="&#x3001;" d="M246 -98 q-54 121 -141 184 l51 47 q110 -70 168 -160 l-78 -71 Z" /><glyph glyph-name="Identity.452" unicode="&#x3002;" d="M230 -102 q-57 0 -93 36 q-35 35 -35 93 q0 59 35 94 q35 35 93 35 q59 0 94 -35 q35 -35 35 -94 q0 -58 -35 -93 q-36 -36 -94 -36 ZM230 -47 q30 0 55 20 q20 18 20 54 q0 35 -20 55 q-20 20 -55 20 q-34 0 -54 -20 q-20 -20 -20 -55 q0 -36 20 -54 q20 -20 54 -20 Z" /><glyph glyph-name="Identity.696" unicode="&#xff08;" d="M788 -115 q-83 129 -120 240 q-37 111 -37 228 q0 118 41 238.5 q41 120.5 116 222.5 l56 0 q-132 -206 -132 -461 q0 -132 30.5 -243 q30.5 -111 101.5 -225 l-56 0 Z" /><glyph glyph-name="Identity.697" unicode="&#xff09;" d="M157 -115 q71 114 101.5 225 q30.5 111 30.5 243 q0 255 -132 461 l56 0 q75 -102 116 -222.5 q41 -120.5 41 -238.5 q0 -117 -37 -228 q-37 -111 -120 -240 l-56 0 Z" /><glyph glyph-name="Identity.700" unicode="&#xff0c;" d="M147 -97 q27 9 42.5 34 q15.5 25 15.5 58 l0 5 l-59 0 l0 111 l111 0 l0 -107 q0 -116 -110 -151 l0 50 Z" /><glyph glyph-name="Identity.703" unicode="&#xff0f;" d="M612 731 l73 0 l-296 -748 l-73 0 l296 748 Z" /><glyph glyph-name="Identity.714" unicode="&#xff1a;" d="M145 517 l111 0 l0 -111 l-111 0 l0 111 ZM145 111 l111 0 l0 -111 l-111 0 l0 111 Z" /><glyph glyph-name="Identity.715" unicode="&#xff1b;" d="M145 517 l111 0 l0 -111 l-111 0 l0 111 ZM146 -97 q26 9 42 34 q16 25 16 58 l0 5 l-59 0 l0 111 l111 0 l0 -112 q0 -50 -28 -90 q-28 -40 -82 -56 l0 50 Z" /><glyph glyph-name="Identity.786" unicode="&#xffe5;" d="M452 274 l-142 0 l0 60 l112 0 l-200 380 l109 0 l169 -360 l174 360 l104 0 l-200 -380 l112 0 l0 -60 l-142 0 l0 -274 l-95 0 l-1 274 Z" /><glyph glyph-name="Identity.842" unicode="&#x2573;" d="M563 348 l437 -438 l-62 -62 l-438 441 l-437 -441 l-63 62 l441 438 l-441 441 l63 59 l437 -438 l438 438 l62 -63 l-437 -437 Z" /><glyph glyph-name="Identity.7576" unicode="&#x4e00;" d="M51 414 l898 0 l0 -66 l-898 0 l0 66 Z" /><glyph glyph-name="Identity.7577" unicode="&#x4e01;" d="M408 -90 q-73 0 -133 4 l-16 65 q104 -11 152 -10 q36 1 49 15.5 q13 14.5 13 46.5 l0 641 l-422 0 l0 58 l898 0 l0 -58 l-410 0 l0 -637 q0 -125 -131 -125 Z" /><glyph glyph-name="Identity.7579" unicode="&#x4e03;" d="M563 -82 q-141 0 -141 142 l0 327 l-362 -47 l-9 58 l371 51 l0 352 l66 0 l0 -344 l453 63 l8 -59 l-461 -63 l0 -333 q0 -44 18 -64.5 q18 -20.5 57 -20.5 l221 0 q63 0 75 59 q9 48 15 160 l67 -28 q-9 -103 -21 -159 q-11 -49 -43.5 -71.5 q-32.5 -22.5 -98.5 -22.5 l-215 0 Z" /><glyph glyph-name="Identity.7583" unicode="&#x4e07;" d="M51 -55 q246 160 262 481 q7 94 7 246 l-265 0 l0 58 l894 0 l0 -58 l-558 0 q-7 -198 -8 -215 l437 0 q-7 -256 -22 -405 q-8 -77 -47.5 -109.5 q-39.5 -32.5 -115.5 -32.5 q-59 0 -184 8 l-13 67 q130 -16 200 -16 q42 0 64 17 q22 17 29 67 q19 134 23 345 l-375 0 q-27 -332 -285 -507 l-43 54 Z" /><glyph glyph-name="Identity.7584" unicode="&#x4e08;" d="M55 -47 q236 58 375 160 q-165 147 -254 356 l58 27 q107 -231 243 -340 q121 133 121 399 l-543 0 l0 58 l543 0 l0 188 l66 0 l0 -188 l285 0 l0 -58 l-285 0 q0 -284 -137 -438 q169 -118 426 -152 l-39 -63 q-261 51 -434 168 q-154 -114 -390 -172 l-35 55 Z" /><glyph glyph-name="Identity.7585" unicode="&#x4e09;" d="M51 39 l898 0 l0 -59 l-898 0 l0 59 ZM184 375 l632 0 l0 -59 l-632 0 l0 59 ZM121 699 l758 0 l0 -58 l-758 0 l0 58 Z" /><glyph glyph-name="Identity.7586" unicode="&#x4e0a;" d="M51 8 l379 0 l0 793 l66 0 l0 -301 l371 0 l0 -59 l-371 0 l0 -433 l453 0 l0 -59 l-898 0 l0 59 Z" /><glyph glyph-name="Identity.7587" unicode="&#x4e0b;" d="M430 672 l-379 0 l0 58 l898 0 l0 -58 l-453 0 l0 -774 l-66 0 l0 774 ZM848 215 q-147 123 -317 234 l39 47 q160 -103 321 -230 l-43 -51 Z" /><glyph glyph-name="Identity.7589" unicode="&#x4e0d;" d="M457 469 q-111 -166 -367 -352 l-43 55 q311 202 469 500 l-438 0 l0 58 l836 0 l0 -58 l-324 0 q-46 -90 -113 -180 l46 0 l0 -594 l-66 0 l0 571 ZM891 133 q-159 175 -313 301 l43 43 q155 -129 320 -297 l-50 -47 Z" /><glyph glyph-name="Identity.7590" unicode="&#x4e0e;" d="M695 -100 q-102 0 -227 8 l-16 67 q130 -16 246 -16 q42 0 64 17 q22 17 29 67 q18 133 22 324 l-622 0 l0 47 l79 387 l62 -8 l-23 -137 l640 0 l0 -54 l-652 0 l-35 -180 l618 0 q-6 -226 -22 -380 q-8 -77 -47.5 -109.5 q-39.5 -32.5 -115.5 -32.5 ZM51 207 l687 0 l0 -55 l-687 0 l0 55 Z" /><glyph glyph-name="Identity.7592" unicode="&#x4e10;" d="M722 -102 q-99 0 -245 8 l-16 67 q160 -17 269 -16 q69 2 75 68 q11 125 11 237 l-711 0 l51 347 l67 -7 l-43 -286 l273 0 l0 375 l-402 0 l0 55 l898 0 l0 -55 l-429 0 l0 -156 l351 0 l0 -55 l-351 0 l0 -164 l363 0 q0 -131 -13 -289 q-11 -129 -148 -129 Z" /><glyph glyph-name="Identity.7593" unicode="&#x4e11;" d="M55 12 l226 0 l35 336 l-199 0 l0 58 l207 0 l31 282 l-246 0 l0 58 l711 0 l-39 -734 l168 0 l0 -59 l-894 0 l0 59 ZM715 12 l15 336 l-347 0 l-35 -336 l367 0 ZM734 406 l16 282 l-328 0 l-31 -282 l343 0 Z" /><glyph glyph-name="Identity.7595" unicode="&#x4e13;" d="M730 -105 q-270 128 -496 218 l36 51 q127 -51 265 -113 l227 195 l-539 0 l0 51 l62 133 l-230 0 l0 54 l258 0 l54 137 l-254 0 l0 55 l278 0 l43 129 l66 -16 l-39 -113 l426 0 l0 -55 l-446 0 l-58 -137 l566 0 l0 -54 l-590 0 l-58 -129 l551 0 l0 -55 l-258 -223 q90 -36 172 -78 l-36 -50 Z" /><glyph glyph-name="Identity.7596" unicode="&#x4e14;" d="M51 4 l140 0 l0 742 l618 0 l0 -742 l140 0 l0 -55 l-898 0 l0 55 ZM742 4 l0 195 l-484 0 l0 -195 l484 0 ZM742 254 l0 191 l-484 0 l0 -191 l484 0 ZM742 500 l0 191 l-484 0 l0 -191 l484 0 Z" /><glyph glyph-name="Identity.7598" unicode="&#x4e16;" d="M176 504 l-125 0 l0 59 l125 0 l0 191 l62 0 l0 -191 l188 0 l0 238 l62 0 l0 -238 l250 0 l0 238 l63 0 l0 -238 l144 0 l0 -59 l-144 0 l0 -324 l-375 0 l0 324 l-188 0 l0 -492 l688 0 l0 -59 l-750 0 l0 551 ZM738 238 l0 266 l-250 0 l0 -266 l250 0 Z" /><glyph glyph-name="Identity.7600" unicode="&#x4e18;" d="M51 16 l140 0 l0 714 q360 12 629 55 l32 -58 q-292 -36 -594 -51 l0 -227 l640 0 l0 -58 l-230 0 l0 -375 l277 0 l0 -59 l-894 0 l0 59 ZM602 16 l0 375 l-344 0 l0 -375 l344 0 Z" /><glyph glyph-name="Identity.7601" unicode="&#x4e19;" d="M121 527 l344 0 l0 157 l-410 0 l0 58 l894 0 l0 -58 l-418 0 l0 -157 l344 0 l0 -510 q0 -114 -121 -114 q-77 0 -133 4 l-16 63 q91 -8 148 -8 q56 0 56 59 l0 448 l-278 0 q-6 -48 -11 -71 q136 -140 246 -273 l-51 -47 q-88 119 -215 258 q-66 -152 -242 -262 l-39 51 q223 134 242 344 l-273 0 l0 -571 l-67 0 l0 629 Z" /><glyph glyph-name="Identity.7602" unicode="&#x4e1a;" d="M51 12 l308 0 l0 789 l67 0 l0 -789 l148 0 l0 789 l67 0 l0 -789 l308 0 l0 -59 l-898 0 l0 59 ZM242 160 q-50 195 -137 426 l55 31 q75 -189 145 -422 l-63 -35 ZM691 191 q89 177 157 422 l58 -31 q-71 -247 -156 -422 l-59 31 Z" /><glyph glyph-name="Identity.7603" unicode="&#x4e1b;" d="M320 105 q219 141 270 379 q15 114 15 313 l67 0 q0 -132 -4 -195 q73 -364 281 -493 l-47 -54 q-179 129 -257 390 q-47 -239 -282 -390 l-43 50 ZM51 12 l898 0 l0 -59 l-898 0 l0 59 ZM55 98 q117 114 156 261 q39 147 39 438 l66 0 q0 -172 -7 -277 q101 -98 171 -204 l-54 -46 q-56 93 -129 171 q-39 -234 -188 -386 l-54 43 Z" /><glyph glyph-name="Identity.7604" unicode="&#x4e1c;" d="M430 -100 q-51 0 -121 9 l-16 68 q76 -14 145 -14 q42 0 42 46 l0 284 l-347 0 l0 59 l121 261 l-191 0 l0 59 l214 0 l47 129 l63 -20 l-39 -109 l582 0 l0 -59 l-606 0 l-117 -261 l273 0 l0 199 l67 0 l0 -199 l312 0 l0 -59 l-312 0 l0 -288 q0 -50 -30 -77.5 q-30 -27.5 -87 -27.5 ZM43 -20 q146 107 262 254 l52 -40 q-117 -149 -271 -264 l-43 50 ZM906 -70 q-101 126 -246 258 l46 44 q137 -121 249 -253 l-49 -49 Z" /><glyph glyph-name="Identity.7605" unicode="&#x4e1d;" d="M523 160 q134 157 204 274 l-207 -24 l-20 51 q132 174 207 340 l63 -28 q-98 -179 -192 -300 l180 19 q43 62 78 137 l59 -31 q-136 -249 -290 -426 l297 47 l0 -55 l-355 -55 l-24 51 ZM51 16 l898 0 l0 -59 l-898 0 l0 59 ZM109 160 q135 157 207 274 l-207 -28 l-19 55 q132 174 207 340 l62 -28 q-100 -183 -191 -300 l180 19 q43 62 78 137 l58 -35 q-138 -249 -289 -422 l297 47 l0 -55 l-359 -55 l-24 51 Z" /><glyph glyph-name="Identity.7610" unicode="&#x4e22;" d="M844 -102 q-30 49 -53 75 l-639 -39 l-31 54 q170 122 281 278 l-351 0 l0 54 l418 0 l0 172 l-344 0 l0 55 l344 0 l0 152 q-192 -8 -344 -8 l-20 55 q415 5 750 47 l32 -55 q-195 -24 -352 -35 l0 -156 l340 0 l0 -55 l-340 0 l0 -172 l414 0 l0 -54 l-531 0 l51 -32 q-123 -147 -246 -238 l533 27 q-56 78 -125 142 l49 38 q111 -111 219 -267 l-55 -38 Z" /><glyph glyph-name="Identity.7612" unicode="&#x4e24;" d="M109 551 l231 0 l0 144 l-289 0 l0 55 l898 0 l0 -55 l-285 0 l0 -144 l227 0 l0 -539 q0 -110 -102 -110 q-85 0 -144 4 l-16 64 q130 -10 160 -10 q39 0 39 44 l0 492 l-164 0 q-5 -97 -19 -156 q83 -92 164 -223 l-55 -45 q-64 120 -129 201 q-57 -143 -164 -250 l-47 45 q89 82 134.5 183.5 q45.5 101.5 53.5 244.5 l-200 0 q-5 -83 -11 -125 q67 -64 121 -133 l-47 -47 q-55 82 -94 118 q-43 -133 -141 -246 l-46 46 q148 173 156 387 l-168 0 l0 -598 l-63 0 l0 653 ZM602 551 l0 144 l-200 0 l0 -144 l200 0 Z" /><glyph glyph-name="Identity.7613" unicode="&#x4e25;" d="M35 -63 q98 119 98 286 l0 199 l226 0 l0 266 l-296 0 l0 58 l878 0 l0 -58 l-296 0 l0 -266 l304 0 l0 -59 l-750 0 l0 -129 q0 -207 -109 -343 l-55 46 ZM245 450 q-45 81 -116 163 l51 39 q64 -73 121 -164 l-56 -38 ZM578 422 l0 266 l-152 0 l0 -266 l152 0 ZM703 488 q62 62 120 164 l55 -35 q-72 -116 -120 -168 l-55 39 Z" /><glyph glyph-name="Identity.7615" unicode="&#x4e27;" d="M164 -55 q31 24 31 47 l0 336 l-144 0 l0 55 l414 0 l0 269 l-379 0 l0 55 l379 0 l0 94 l66 0 l0 -94 l379 0 l0 -55 l-379 0 l0 -269 l418 0 l0 -55 l-476 0 q46 -121 117 -187 q116 60 230 148 l43 -47 q-128 -94 -230 -144 q125 -98 324 -125 l-31 -59 q-403 58 -520 414 l-144 0 l0 -348 l234 86 l4 -58 l-297 -113 l-39 50 ZM305 416 q-63 83 -154 156 l44 41 q89 -69 160 -156 l-50 -41 ZM637 454 q89 72 152 159 l47 -38 q-74 -97 -156 -161 l-43 40 Z" /><glyph glyph-name="Identity.7618" unicode="&#x4e2a;" d="M39 375 q298 152 449 438 l63 -24 l-20 -31 q157 -258 422 -379 l-43 -59 q-276 148 -410 383 q-136 -219 -418 -383 l-43 55 ZM465 496 l66 0 l0 -598 l-66 0 l0 598 Z" /><glyph glyph-name="Identity.7621" unicode="&#x4e2d;" d="M465 227 l-270 0 l0 -55 l-66 0 l0 426 l336 0 l0 203 l66 0 l0 -203 l336 0 l0 -426 l-66 0 l0 55 l-270 0 l0 -329 l-66 0 l0 329 ZM465 285 l0 254 l-270 0 l0 -254 l270 0 ZM801 285 l0 254 l-270 0 l0 -254 l270 0 Z" /><glyph glyph-name="Identity.7624" unicode="&#x4e30;" d="M465 129 l-414 0 l0 59 l414 0 l0 179 l-336 0 l0 59 l336 0 l0 172 l-387 0 l0 58 l387 0 l0 145 l66 0 l0 -145 l387 0 l0 -58 l-387 0 l0 -172 l340 0 l0 -59 l-340 0 l0 -179 l418 0 l0 -59 l-418 0 l0 -231 l-66 0 l0 231 Z" /><glyph glyph-name="Identity.7626" unicode="&#x4e32;" d="M469 74 l-278 0 l0 -35 l-66 0 l0 301 l344 0 l0 105 l-297 0 l0 254 l297 0 l0 102 l66 0 l0 -102 l297 0 l0 -254 l-297 0 l0 -105 l344 0 l0 -301 l-66 0 l0 35 l-278 0 l0 -176 l-66 0 l0 176 ZM469 129 l0 156 l-278 0 l0 -156 l278 0 ZM813 129 l0 156 l-278 0 l0 -156 l278 0 ZM469 500 l0 145 l-231 0 l0 -145 l231 0 ZM766 500 l0 145 l-231 0 l0 -145 l231 0 Z" /><glyph glyph-name="Identity.7628" unicode="&#x4e34;" d="M340 461 q130 137 203 348 l62 -20 q-22 -58 -50 -121 l394 0 l0 -55 l-422 0 q-45 -87 -140 -199 l-47 47 ZM90 668 l62 0 l0 -613 l-62 0 l0 613 ZM246 801 l63 0 l0 -903 l-63 0 l0 903 ZM629 -12 l0 328 l-152 0 l0 -328 l152 0 ZM414 371 l492 0 l0 -473 l-62 0 l0 36 l-367 0 l0 -36 l-63 0 l0 473 ZM844 -12 l0 328 l-153 0 l0 -328 l153 0 ZM765 402 q-71 73 -175 141 l41 43 q103 -69 178 -141 l-44 -43 Z" /><glyph glyph-name="Identity.7632" unicode="&#x4e38;" d="M45 -55 q209 105 271 321 q-116 71 -213 117 l30 51 q110 -57 201 -110 q21 94 21 227 l-273 0 l0 58 l273 0 l0 192 l63 0 l0 -192 l293 0 l0 -589 q0 -40 31 -40 l90 0 q38 0 43 38 q8 65 11 212 l63 -25 q-5 -139 -11 -193 q-10 -90 -104 -90 l-88 0 q-98 0 -98 90 l0 539 l-230 0 q0 -147 -23 -254 q76 -46 195 -125 l-39 -59 q-111 83 -174 121 q-36 -107 -109.5 -196 q-73.5 -89 -177.5 -147 l-45 54 Z" /><glyph glyph-name="Identity.7633" unicode="&#x4e39;" d="M78 -70 q117 137 129 371 l-152 0 l0 58 l152 0 l0 387 l594 0 l0 -387 l148 0 l0 -58 l-148 0 l0 -294 q0 -106 -117 -106 q-58 0 -150 5 l-16 65 q119 -11 169 -11 q47 0 47 47 l0 294 l-461 0 q-10 -258 -140 -410 l-55 39 ZM734 359 l0 329 l-461 0 l0 -329 l461 0 ZM570 410 q-77 93 -183 184 l43 43 q88 -72 187 -180 l-47 -47 Z" /><glyph glyph-name="Identity.7634" unicode="&#x4e3a;" d="M51 -55 q297 175 363 555 l-348 0 l0 59 l356 0 q12 117 12 242 l66 0 q0 -133 -12 -242 l407 0 q0 -299 -16 -493 q-14 -160 -174 -160 q-82 0 -170 8 l-16 67 q110 -16 183 -16 q102 0 111 94 q18 204 15 441 l-348 0 q-71 -415 -382 -605 l-47 50 ZM684 127 q-80 98 -184 189 l43 43 q101 -84 191 -187 l-50 -45 ZM289 602 q-66 73 -145 128 l40 47 q94 -65 152 -129 l-47 -46 Z" /><glyph glyph-name="Identity.7635" unicode="&#x4e3b;" d="M55 4 l414 0 l0 266 l-328 0 l0 58 l328 0 l0 238 l-371 0 l0 59 l398 0 q-69 89 -129 145 l51 35 q74 -71 141 -153 l-39 -27 l382 0 l0 -59 l-367 0 l0 -238 l324 0 l0 -58 l-324 0 l0 -266 l414 0 l0 -59 l-894 0 l0 59 Z" /><glyph glyph-name="Identity.7637" unicode="&#x4e3d;" d="M551 594 l347 0 l0 -588 q0 -106 -104 -104 q-18 0 -87 6 l-17 63 q49 -8 105 -8 q41 0 41 47 l0 529 l-223 0 l0 -637 l-62 0 l0 692 ZM349 -96 q-46 0 -95 4 l-16 67 q72 -8 106 -8 q43 0 43 47 l0 525 l-223 0 l0 -637 l-62 0 l0 692 l347 0 l0 -580 q0 -53 -26 -81.5 q-26 -28.5 -74 -28.5 ZM281 148 q-33 154 -70 250 l55 24 q41 -111 74 -250 l-59 -24 ZM730 148 q-33 143 -70 250 l59 24 q37 -117 70 -250 l-59 -24 ZM51 754 l898 0 l0 -55 l-898 0 l0 55 Z" /><glyph glyph-name="Identity.7638" unicode="&#x4e3e;" d="M473 82 l-383 0 l0 55 l383 0 l0 136 l-239 0 l0 55 l239 0 l0 141 l66 0 l0 -141 l238 0 l0 -55 l-238 0 l0 -136 l387 0 l0 -55 l-387 0 l0 -184 l-66 0 l0 184 ZM43 313 q176 74 266 203 l-246 0 l0 54 l875 0 l0 -54 l-247 0 q95 -130 262 -203 l-43 -51 q-191 93 -289 254 l-242 0 q-95 -162 -293 -254 l-43 51 ZM281 598 q-58 78 -133 148 l47 39 q75 -70 133 -148 l-47 -39 ZM497 607 q-50 94 -102 163 l50 31 q55 -72 106 -161 l-54 -33 ZM660 634 q72 72 129 167 l55 -35 q-73 -105 -137 -172 l-47 40 Z" /><glyph glyph-name="Identity.7643" unicode="&#x4e43;" d="M47 -55 q167 114 211 285 q43 156 43 450 l-211 0 l0 58 l715 0 l0 -58 l-153 -231 l274 0 q-5 -277 -21 -393 q-9 -67 -49 -100.5 q-40 -33.5 -121 -33.5 q-103 0 -204 4 l-17 68 q128 -14 220 -14 q53 0 78 20 q25 20 30 69 q13 124 17 322 l-281 0 l0 58 l152 231 l-363 0 q-4 -335 -51 -481 q-47 -177 -214 -304 l-55 50 Z" /><glyph glyph-name="Identity.7645" unicode="&#x4e45;" d="M47 -39 q453 223 562 617 l-293 0 q-77 -128 -164 -219 l-56 52 q157 147 240 394 l70 -24 q-32 -83 -58 -140 l336 0 l0 -63 q-29 -108 -94 -230 q124 -282 371 -375 l-59 -67 q-231 115 -355 367 q-168 -230 -457 -375 l-43 63 Z" /><glyph glyph-name="Identity.7648" unicode="&#x4e48;" d="M875 -98 q-21 42 -59 90 l-683 -51 l-31 63 q339 246 613 613 l58 -39 q-235 -313 -562 -570 l570 39 q-53 81 -148 191 l55 39 q132 -156 246 -336 l-59 -39 ZM59 355 q293 205 449 450 l58 -35 q-169 -255 -464 -469 l-43 54 Z" /><glyph glyph-name="Identity.7649" unicode="&#x4e49;" d="M43 -47 q270 78 418 199 q-195 207 -285 559 l66 31 q90 -362 270 -547 q187 199 246 547 l66 -19 q-71 -369 -261 -571 q163 -127 398 -199 l-47 -58 q-242 83 -402 210 q-141 -117 -422 -210 l-47 58 ZM504 551 q-46 123 -98 222 l60 31 q65 -128 100 -220 l-62 -33 Z" /><glyph glyph-name="Identity.7651" unicode="&#x4e4b;" d="M574 -74 q-216 0 -340 133 q-15 27 -43 15 q-56 -68 -89 -144 l-55 54 q42 77 105 149 q38 31 78 8 q314 187 540 414 l-653 0 l0 58 l742 0 l0 -58 q-240 -249 -578 -457 q110 -110 278 -110 l187 0 q95 0 207 8 l-30 -70 l-349 0 ZM531 633 q-55 67 -136 129 l50 43 q59 -44 139 -128 l-53 -44 Z" /><glyph glyph-name="Identity.7652" unicode="&#x4e4c;" d="M756 -101 q-122 0 -217 7 l-18 68 q162 -18 237 -13 q36 2 53 18.5 q17 16.5 21 54.5 q12 98 12 236 l-653 0 l0 429 l196 0 q23 52 39 106 l70 -16 q-20 -51 -39 -90 l352 0 q-1 -32 -8 -203 q-5 -105 -117 -105 q-69 0 -118 4 l-19 62 q78 -8 136 -8 q47 0 52 47 q7 74 7 149 l-484 0 l0 -321 l656 0 q-3 -148 -12 -276 q-6 -81 -39.5 -115 q-33.5 -34 -106.5 -34 ZM43 152 l699 0 l0 -58 l-699 0 l0 58 Z" /><glyph glyph-name="Identity.7653" unicode="&#x4e4d;" d="M422 609 l-145 0 q-67 -126 -179 -250 l-51 43 q164 176 242 407 l66 -20 q-21 -61 -50 -121 l640 0 l0 -59 l-457 0 l0 -171 l395 0 l0 -59 l-395 0 l0 -172 l430 0 l0 -59 l-430 0 l0 -250 l-66 0 l0 711 Z" /><glyph glyph-name="Identity.7654" unicode="&#x4e4e;" d="M406 -102 q-68 0 -152 4 l-18 69 q107 -12 172 -10 q37 1 49 13.5 q12 12.5 12 49.5 l0 257 l-422 0 l0 59 l422 0 l0 351 q-203 -11 -360 -15 l-19 58 q396 7 769 47 l24 -54 q-113 -13 -348 -32 l0 -355 l410 0 l0 -59 l-410 0 l0 -258 q0 -63 -31 -94 q-31 -31 -98 -31 ZM301 383 q-63 112 -137 203 l51 35 q73 -85 140 -199 l-54 -39 ZM641 422 q75 84 152 207 l55 -35 q-87 -131 -157 -211 l-50 39 Z" /><glyph glyph-name="Identity.7655" unicode="&#x4e4f;" d="M51 -35 q51 130 172 176 q301 105 543 277 l-641 0 l0 55 l746 0 l0 -55 q-255 -196 -621 -332 q78 -102 246 -102 l246 0 q115 0 215 4 l-27 -62 l-453 0 q-189 0 -286 129 q-50 -35 -86 -137 l-54 47 ZM531 496 q-47 69 -121 131 l51 37 q64 -45 128 -129 l-58 -39 ZM105 742 q403 0 774 39 l27 -54 q-335 -35 -777 -43 l-24 58 Z" /><glyph glyph-name="Identity.7656" unicode="&#x4e50;" d="M430 -102 q-54 0 -114 4 l-18 67 q83 -8 127 -8 q28 0 40 12.5 q12 12.5 12 38.5 l0 316 l-364 0 l82 399 q316 3 625 58 l28 -55 q-324 -51 -598 -58 l-59 -285 l286 0 l0 234 l66 0 l0 -234 l363 0 l0 -59 l-363 0 l0 -316 q0 -114 -113 -114 ZM43 -16 q156 122 246 270 l55 -35 q-108 -165 -254 -282 l-47 47 ZM898 -63 q-88 134 -220 279 l49 38 q131 -140 226 -274 l-55 -43 Z" /><glyph glyph-name="Identity.7658" unicode="&#x4e52;" d="M51 266 l156 0 l0 457 q346 20 617 74 l31 -55 q-269 -50 -582 -70 l0 -129 l629 0 l0 -59 l-222 0 l0 -218 l269 0 l0 -59 l-898 0 l0 59 ZM59 -55 q185 84 332 239 l50 -43 q-151 -157 -339 -246 l-43 50 ZM613 266 l0 218 l-340 0 l0 -218 l340 0 Z" /><glyph glyph-name="Identity.7659" unicode="&#x4e53;" d="M51 266 l156 0 l0 457 q346 20 617 74 l31 -55 q-269 -50 -582 -70 l0 -129 l629 0 l0 -59 l-222 0 l0 -218 l269 0 l0 -59 l-898 0 l0 59 ZM895 -105 q-152 127 -329 222 l43 47 q181 -97 329 -215 l-43 -54 ZM613 266 l0 218 l-340 0 l0 -218 l340 0 Z" /><glyph glyph-name="Identity.7660" unicode="&#x4e54;" d="M51 313 q219 71 336 195 l-317 0 l0 55 l356 0 q39 73 51 140 q-145 -4 -344 -4 l-16 55 q426 -4 746 35 l28 -51 q-170 -24 -348 -31 q-17 -82 -47 -144 l442 0 l0 -55 l-301 0 q110 -137 320 -188 l-39 -58 q-238 73 -355 246 l-94 0 q-124 -160 -379 -246 l-39 51 ZM94 -47 q211 67 211 250 l0 152 l66 0 l0 -156 q0 -207 -238 -301 l-39 55 ZM637 355 l66 0 l0 -457 l-66 0 l0 457 Z" /><glyph glyph-name="Identity.7662" unicode="&#x4e56;" d="M461 516 l-410 0 l0 58 l410 0 l0 129 l-336 -8 l-16 55 q381 0 746 31 l24 -54 q-169 -13 -352 -20 l0 -133 l422 0 l0 -58 l-422 0 l0 -618 l-66 0 l0 618 ZM277 125 l-214 -51 l-16 59 l230 55 l0 113 l-207 0 l0 58 l207 0 l0 106 l67 0 l0 -438 l-67 0 l0 98 ZM734 43 q-89 0 -89 94 l0 328 l66 0 l0 -141 q69 19 187 78 l32 -54 q-103 -49 -219 -82 l0 -129 q0 -35 31 -35 l88 0 q21 0 29.5 6.5 q8.5 6.5 11.5 20.5 q8 37 12 90 l62 -28 q-1 -13 -3.5 -28.5 q-2.5 -15.5 -4.5 -30 q-2 -14.5 -3 -19.5 q-11 -70 -100 -70 l-100 0 Z" /><glyph glyph-name="Identity.7664" unicode="&#x4e58;" d="M465 223 q-125 -165 -383 -289 l-39 54 q273 117 422 332 l0 235 l-410 0 l0 54 l410 0 l0 98 q-179 -8 -340 -8 l-16 51 q363 0 746 35 l20 -51 q-166 -15 -344 -27 l0 -98 l414 0 l0 -54 l-414 0 l0 -235 q148 -233 426 -328 l-39 -58 q-272 112 -387 289 l0 -325 l-66 0 l0 325 ZM281 254 l-195 -51 l-20 59 l215 47 l0 74 l-191 0 l0 55 l191 0 l0 70 l67 0 l0 -313 l-67 0 l0 59 ZM742 188 q-97 0 -97 89 l0 231 l66 0 l0 -102 q78 24 168 78 l35 -50 q-83 -54 -203 -86 l0 -71 q0 -31 31 -31 l84 0 q32 0 39 28 q7 30 10 78 l62 -25 q-3 -29 -11 -68 q-15 -71 -96 -71 l-88 0 Z" /><glyph glyph-name="Identity.7665" unicode="&#x4e59;" d="M285 -51 q-92 0 -141.5 29.5 q-49.5 29.5 -56.5 77.5 q-6 43 20 91.5 q26 48.5 77 90.5 q256 224 535 430 l-621 0 l0 59 l722 0 l0 -59 q-343 -260 -586 -473 q-87 -71 -78 -123 q10 -60 137 -60 l448 0 q45 0 68 17.5 q23 17.5 33 59.5 q18 93 22 169 l70 -28 q-11 -98 -28 -167 q-28 -114 -160 -114 l-461 0 Z" /><glyph glyph-name="Identity.7669" unicode="&#x4e5d;" d="M51 -51 q199 101 262 301 q35 112 35 301 l-274 0 l0 58 l274 0 l0 192 l66 0 l0 -192 l301 0 l0 -578 q0 -54 47 -54 l47 0 q25 0 37 9.5 q12 9.5 18 33.5 q12 50 21 192 l68 -32 q-6 -87 -19 -168 q-16 -98 -121 -98 l-55 0 q-110 0 -110 117 l0 520 l-234 0 q0 -200 -34 -317 q-64 -219 -282 -339 l-47 54 Z" /><glyph glyph-name="Identity.7670" unicode="&#x4e5e;" d="M301 -74 q-110 0 -125 101 q0 62 62 118 q169 114 446 269 l-481 0 l0 59 l613 0 l0 -55 q-351 -187 -546 -332 q-36 -31 -24 -59 q4 -43 70 -43 l449 0 q41 0 61 15 q20 15 26 48 q13 66 19 160 l67 -27 q-7 -76 -21 -146 q-22 -108 -149 -108 l-467 0 ZM51 461 q152 137 242 344 l62 -24 q-23 -55 -54 -101 l640 0 l0 -59 l-671 0 q-75 -110 -172 -211 l-47 51 Z" /><glyph glyph-name="Identity.7671" unicode="&#x4e5f;" d="M320 -70 q-140 0 -140 133 l0 375 l-125 -28 l-12 59 l137 27 l0 211 l66 0 l0 -195 l234 47 l0 242 l67 0 l0 -227 l305 63 q0 -176 -12 -364 q-3 -53 -34 -80 q-31 -27 -87 -25 q-87 2 -106 4 l-15 63 q58 -6 129 -8 q21 -1 32.5 11.5 q11.5 12.5 13.5 34.5 q12 192 12 290 l-238 -47 l0 -426 l-67 0 l0 410 l-234 -47 l0 -387 q0 -74 78 -74 l466 0 q52 0 69 51 q20 61 32 155 l62 -30 q-10 -69 -27 -133 q-15 -54 -46.5 -79.5 q-31.5 -25.5 -89.5 -25.5 l-470 0 Z" /><glyph glyph-name="Identity.7672" unicode="&#x4e60;" d="M699 -82 q-82 0 -226 6 l-20 70 q178 -15 246 -12 q42 0 62.5 20 q20.5 20 24.5 61 q21 238 19 609 l-707 0 l0 58 l777 0 q0 -419 -20 -664 q-12 -148 -156 -148 ZM74 113 q346 96 660 211 l0 -66 q-304 -111 -629 -203 l-31 58 ZM578 348 q-184 105 -388 175 l37 51 q225 -84 390 -172 l-39 -54 Z" /><glyph glyph-name="Identity.7673" unicode="&#x4e61;" d="M55 -43 q440 73 629 277 l-528 -58 l-25 55 q185 81 404 257 l-355 -23 l-24 55 q213 137 348 289 l62 -36 q-132 -137 -300 -246 l332 20 q95 72 164 160 l66 -35 q-262 -262 -543 -426 l445 47 q56 73 90 168 l71 -20 q-163 -433 -797 -543 l-39 59 Z" /><glyph glyph-name="Identity.7678" unicode="&#x4e66;" d="M410 305 l-359 0 l0 58 l359 0 l0 203 l-293 0 l0 59 l293 0 l0 176 l67 0 l0 -176 l316 0 l-20 -262 l133 0 q0 -159 -8 -250 q-10 -105 -128 -105 q-84 0 -159 8 l-17 68 q82 -14 175 -14 q58 0 64 57 q7 59 7 178 l-363 0 l0 -407 l-67 0 l0 407 ZM711 363 l16 203 l-250 0 l0 -203 l234 0 ZM902 617 q-91 62 -207 106 l32 50 q116 -46 211 -105 l-36 -51 Z" /><glyph glyph-name="Identity.7688" unicode="&#x4e70;" d="M47 -43 q359 59 465 246 l-461 0 l0 59 l480 0 q32 121 28 386 l66 0 q0 -288 -27 -386 l351 0 l0 -59 l-367 0 q-86 -220 -504 -308 l-31 62 ZM359 305 q-111 88 -222 148 l35 47 q115 -58 230 -148 l-43 -47 ZM891 -102 q-154 122 -305 200 l39 47 q154 -84 309 -196 l-43 -51 ZM441 449 q-117 91 -222 149 l35 47 q138 -76 226 -149 l-39 -47 ZM758 508 q64 98 94 183 l-770 0 l0 59 l840 0 l0 -55 q-47 -130 -102 -218 l-62 31 Z" /><glyph glyph-name="Identity.7689" unicode="&#x4e71;" d="M102 313 l171 0 l0 171 l-218 0 l0 55 l218 0 l0 160 q-90 -8 -191 -15 l-19 58 q259 12 441 55 l27 -55 q-106 -24 -195 -35 l0 -168 l227 0 l0 -55 l-227 0 l0 -171 l172 0 l0 -415 l-63 0 l0 63 l-281 0 l0 -63 l-62 0 l0 415 ZM445 16 l0 242 l-281 0 l0 -242 l281 0 ZM707 -90 q-98 0 -98 106 l0 785 l63 0 l0 -770 q0 -62 43 -62 l98 0 q26 0 40 11.5 q14 11.5 20 42.5 q14 74 14 193 l66 -28 q-6 -108 -16 -176 q-15 -102 -121 -102 l-109 0 Z" /><glyph glyph-name="Identity.7691" unicode="&#x4e73;" d="M703 -94 q-98 0 -98 114 l0 781 l67 0 l0 -774 q0 -54 43 -54 l101 0 q27 0 40.5 14 q13.5 14 18.5 44 q12 72 16 182 l66 -29 q-8 -105 -19 -176 q-16 -102 -118 -102 l-117 0 ZM254 -102 q-69 0 -106 6 l-15 68 q56 -11 109 -11 q43 0 43 43 l0 148 l-226 -39 l-20 59 l246 35 l0 78 l160 121 l-371 0 l0 55 l469 0 l0 -55 l-191 -144 l0 -39 l214 35 l0 -55 l-214 -35 l0 -172 q0 -98 -98 -98 ZM148 484 q-26 77 -66 149 l55 27 q38 -69 70 -148 l-59 -28 ZM293 512 q-18 73 -55 148 l55 24 q40 -77 59 -153 l-59 -19 ZM59 758 q263 5 488 35 l19 -55 q-246 -27 -488 -39 l-19 59 ZM395 512 q61 93 93 183 l59 -27 q-39 -97 -98 -188 l-54 32 Z" /><glyph glyph-name="Identity.7702" unicode="&#x4e7e;" d="M227 59 l-176 0 l0 50 l176 0 l0 98 l-141 0 l0 356 l141 0 l0 93 l-172 0 l0 51 l172 0 l0 94 l62 0 l0 -94 l172 0 l0 -51 l-172 0 l0 -93 l141 0 l0 -356 l-141 0 l0 -98 l172 0 l0 -50 l-172 0 l0 -161 l-62 0 l0 161 ZM367 258 l0 101 l-219 0 l0 -101 l219 0 ZM367 410 l0 102 l-219 0 l0 -102 l219 0 ZM613 -86 q-98 0 -117 55 q-19 65 31 136 q90 115 243 293 l-250 0 l0 55 l332 0 l0 -58 q-202 -217 -289 -348 q-29 -74 42 -74 l204 0 q50 0 62 47 q16 62 20 156 l62 -27 q-12 -97 -19 -129 q-24 -106 -121 -106 l-200 0 ZM438 476 q101 134 152 333 l58 -20 q-20 -71 -39 -117 l336 0 l0 -55 l-355 0 q-42 -98 -105 -180 l-47 39 Z" /><glyph glyph-name="Identity.7710" unicode="&#x4e86;" d="M425 -102 q-75 0 -179 8 l-18 70 q133 -16 198 -16 q32 0 47 14 q15 14 15 50 l0 441 q209 121 328 211 l-742 0 l0 58 l828 0 l0 -66 q-157 -125 -347 -230 l0 -415 q0 -125 -130 -125 Z" /><glyph glyph-name="Identity.7712" unicode="&#x4e88;" d="M406 -102 q-81 0 -156 8 l-16 67 q106 -12 180 -12 q55 0 55 59 l0 343 l-418 0 l0 59 l461 0 q-117 90 -270 180 l43 43 q104 -59 188 -118 l257 157 l-601 0 l0 58 l711 0 l0 -58 l-317 -192 q10 -8 55 -39 l-47 -31 l371 0 l0 -59 l-74 -226 l-62 19 l66 207 l-297 0 l0 -359 q0 -106 -129 -106 Z" /><glyph glyph-name="Identity.7713" unicode="&#x4e89;" d="M391 -102 q-73 0 -125 4 l-18 64 q103 -9 146 -9 q59 0 59 57 l0 111 l-305 0 l0 55 l305 0 l0 125 l-402 0 l0 54 l402 0 l0 121 l-281 0 l0 36 q-81 -67 -86 -71 l-35 55 q162 124 273 301 l59 -28 q-20 -32 -43 -62 l363 0 l0 -55 l-113 -121 l238 0 l0 -176 l121 0 l0 -54 l-121 0 l0 -227 l-66 0 l0 47 l-242 0 l0 -113 q0 -114 -129 -114 ZM762 180 l0 125 l-242 0 l0 -125 l242 0 ZM512 535 l109 121 l-324 0 q-51 -66 -109 -121 l324 0 ZM762 359 l0 121 l-242 0 l0 -121 l242 0 Z" /><glyph glyph-name="Identity.7715" unicode="&#x4e8b;" d="M422 -102 q-51 0 -117 8 l-16 66 q92 -11 136 -11 q24 0 34 10.5 q10 10.5 10 36.5 l0 66 l-340 0 l0 51 l340 0 l0 74 l-418 0 l0 51 l418 0 l0 70 l-340 0 l0 51 l340 0 l0 63 l-297 0 l0 179 l297 0 l0 63 l-414 0 l0 51 l414 0 l0 74 l66 0 l0 -74 l410 0 l0 -51 l-410 0 l0 -63 l309 0 l0 -179 l-309 0 l0 -63 l313 0 l0 -121 l101 0 l0 -51 l-101 0 l0 -168 l-67 0 l0 43 l-246 0 l0 -74 q0 -102 -113 -102 ZM781 125 l0 74 l-246 0 l0 -74 l246 0 ZM469 484 l0 79 l-231 0 l0 -79 l231 0 ZM781 250 l0 70 l-246 0 l0 -70 l246 0 ZM777 484 l0 79 l-242 0 l0 -79 l242 0 Z" /><glyph glyph-name="Identity.7716" unicode="&#x4e8c;" d="M51 70 l898 0 l0 -58 l-898 0 l0 58 ZM113 672 l766 0 l0 -59 l-766 0 l0 59 Z" /><glyph glyph-name="Identity.7718" unicode="&#x4e8e;" d="M426 -102 q-68 0 -153 6 l-19 70 q104 -10 175 -10 q48 0 48 48 l0 347 l-422 0 l0 59 l422 0 l0 281 l-364 0 l0 59 l770 0 l0 -59 l-340 0 l0 -281 l406 0 l0 -59 l-406 0 l0 -350 q0 -111 -117 -111 Z" /><glyph glyph-name="Identity.7719" unicode="&#x4e8f;" d="M633 -102 q-95 0 -234 13 l-16 69 q145 -23 242 -23 q85 0 104 64 q25 87 37 221 l-571 0 l0 55 l90 180 l-230 0 l0 54 l894 0 l0 -54 l-590 0 l-89 -180 l570 0 q-18 -180 -42 -281 q-15 -62 -53.5 -90 q-38.5 -28 -111.5 -28 ZM145 750 l714 0 l0 -55 l-714 0 l0 55 Z" /><glyph glyph-name="Identity.7721" unicode="&#x4e91;" d="M789 0 l-672 -70 l-31 58 q194 196 301 418 l-336 0 l0 59 l898 0 l0 -59 l-547 0 l55 -27 q-124 -218 -273 -379 l566 55 q-75 103 -164 199 l55 39 q153 -172 273 -352 l-59 -39 l-66 98 ZM137 746 l730 0 l0 -58 l-730 0 l0 58 Z" /><glyph glyph-name="Identity.7722" unicode="&#x4e92;" d="M51 -4 l629 0 l15 176 l-515 0 l66 523 l-164 0 l0 55 l824 0 l0 -55 l-590 0 l-23 -164 l496 0 l-43 -535 l203 0 l0 -55 l-898 0 l0 55 ZM699 227 l20 250 l-434 0 l-31 -250 l445 0 Z" /><glyph glyph-name="Identity.7724" unicode="&#x4e94;" d="M51 -4 l215 0 l70 395 l-215 0 l0 58 l227 0 l39 242 l-305 0 l0 59 l824 0 l0 -59 l-453 0 l-39 -242 l391 0 l0 -453 l144 0 l0 -59 l-898 0 l0 59 ZM738 -4 l0 395 l-336 0 l-66 -395 l402 0 Z" /><glyph glyph-name="Identity.7725" unicode="&#x4e95;" d="M86 -55 q187 97 187 282 l-222 0 l0 58 l226 0 l0 274 l-203 0 l0 58 l203 0 l0 184 l67 0 l0 -184 l308 0 l0 184 l67 0 l0 -184 l203 0 l0 -58 l-203 0 l0 -274 l230 0 l0 -58 l-230 0 l0 -325 l-67 0 l0 325 l-308 0 q0 -220 -211 -329 l-47 47 ZM652 285 l0 274 l-308 0 l0 -274 l308 0 Z" /><glyph glyph-name="Identity.7730" unicode="&#x4e9a;" d="M55 8 l297 0 l0 687 l-270 0 l0 59 l836 0 l0 -59 l-266 0 l0 -687 l297 0 l0 -59 l-894 0 l0 59 ZM223 133 q-52 216 -121 414 l58 31 q64 -167 125 -418 l-62 -27 ZM586 8 l0 687 l-168 0 l0 -687 l168 0 ZM719 156 q66 167 117 422 l62 -23 q-54 -258 -117 -426 l-62 27 Z" /><glyph glyph-name="Identity.7731" unicode="&#x4e9b;" d="M51 316 l105 12 l0 391 l67 0 l0 -383 l113 16 l0 449 l66 0 l0 -172 l137 0 l0 -55 l-137 0 l0 -211 l145 24 l0 -59 l-477 -70 l-19 58 ZM55 -8 l894 0 l0 -55 l-894 0 l0 55 ZM148 188 l680 0 l0 -55 l-680 0 l0 55 ZM695 266 q-109 0 -109 86 l0 449 l66 0 l0 -223 q131 52 239 145 l43 -51 q-136 -102 -282 -156 l0 -153 q0 -21 9 -30 q9 -9 35 -9 l126 0 q44 0 53 39 q10 39 16 121 l66 -32 q-9 -68 -18 -104 q-19 -82 -108 -82 l-136 0 Z" /><glyph glyph-name="Identity.7737" unicode="&#x4ea1;" d="M188 535 l-133 0 l0 59 l894 0 l0 -59 l-695 0 l0 -543 l652 0 l0 -58 l-718 0 l0 601 ZM523 625 q-58 70 -128 137 l46 43 q79 -72 133 -137 l-51 -43 Z" /><glyph glyph-name="Identity.7740" unicode="&#x4ea4;" d="M43 -43 q277 51 414 164 q-92 95 -164 234 l59 36 q71 -149 156 -227 q98 90 156 223 l59 -32 q-71 -144 -168 -234 q147 -120 402 -164 l-35 -59 q-258 51 -414 180 q-160 -124 -426 -180 l-39 59 ZM63 336 q150 84 273 223 l49 -41 q-144 -152 -287 -241 l-35 59 ZM51 648 l457 0 q-52 71 -106 114 l51 39 q60 -53 113 -117 l-46 -36 l429 0 l0 -58 l-898 0 l0 58 ZM891 277 q-123 132 -270 235 l43 47 q160 -118 274 -235 l-47 -47 Z" /><glyph glyph-name="Identity.7741" unicode="&#x4ea5;" d="M51 129 q290 83 453 238 l-352 -31 l-23 59 q144 105 230 218 l-308 0 l0 59 l449 0 q-36 48 -98 94 l51 39 q63 -47 110 -98 l-47 -35 l433 0 l0 -59 l-574 0 l47 -27 q-85 -105 -195 -184 l336 24 q65 73 105 152 l55 -35 q-184 -328 -637 -469 l-35 55 ZM129 -51 q477 125 664 477 l55 -35 q-77 -131 -192 -239 q137 -86 287 -204 l-48 -50 q-132 114 -286 211 q-190 -141 -445 -214 l-35 54 Z" /><glyph glyph-name="Identity.7742" unicode="&#x4ea6;" d="M86 -59 q258 157 258 430 l0 207 l-278 0 l0 59 l434 0 q-44 66 -102 129 l51 35 q66 -66 110 -133 l-47 -31 l422 0 l0 -59 l-274 0 l0 -566 q0 -58 -28 -86 q-28 -28 -89 -28 q-50 0 -129 7 l-16 63 q82 -11 141 -11 q55 0 55 54 l0 567 l-184 0 l0 -215 q0 -296 -281 -472 l-43 50 ZM47 160 q99 151 148 320 l67 -27 q-69 -194 -160 -328 l-55 35 ZM895 125 q-64 174 -157 324 l55 31 q99 -167 160 -316 l-58 -39 Z" /><glyph glyph-name="Identity.7743" unicode="&#x4ea7;" d="M39 -66 q94 104 94 289 l0 200 l445 0 q65 87 121 203 l59 -31 q-58 -106 -106 -172 l293 0 l0 -59 l-746 0 l0 -137 q0 -200 -105 -332 l-55 39 ZM355 439 q-42 78 -105 144 l51 39 q69 -76 109 -144 l-55 -39 ZM63 699 l421 0 q-17 27 -54 74 l58 32 q47 -57 75 -106 l378 0 l0 -58 l-878 0 l0 58 Z" /><glyph glyph-name="Identity.7745" unicode="&#x4ea9;" d="M145 496 l707 0 l0 -598 l-67 0 l0 32 l-574 0 l0 -32 l-66 0 l0 598 ZM465 -16 l0 204 l-254 0 l0 -204 l254 0 ZM465 242 l0 199 l-254 0 l0 -199 l254 0 ZM785 -16 l0 204 l-254 0 l0 -204 l254 0 ZM785 242 l0 199 l-254 0 l0 -199 l254 0 ZM51 680 l429 0 q-27 53 -62 101 l62 24 q43 -62 75 -125 l394 0 l0 -55 l-898 0 l0 55 Z" /><glyph glyph-name="Identity.7747" unicode="&#x4eab;" d="M430 -102 q-69 0 -114 4 l-17 63 q66 -8 134 -8 q44 0 44 39 l0 94 l-426 0 l0 51 l426 0 l0 58 l175 63 l-472 0 l0 51 l621 0 l0 -51 l-258 -98 l0 -23 l406 0 l0 -51 l-406 0 l0 -102 q0 -90 -113 -90 ZM168 586 l668 0 l0 -207 l-668 0 l0 207 ZM770 430 l0 105 l-536 0 l0 -105 l536 0 ZM55 703 l425 0 q-12 20 -50 82 l58 20 q34 -51 63 -102 l398 0 l0 -51 l-894 0 l0 51 Z" /><glyph glyph-name="Identity.7748" unicode="&#x4eac;" d="M441 -102 q-64 0 -113 4 l-16 65 q94 -10 121 -10 q36 0 36 40 l0 249 l-297 0 l0 270 l656 0 l0 -270 l-293 0 l0 -266 q0 -38 -24 -60 q-24 -22 -70 -22 ZM51 -16 q149 75 273 207 l51 -39 q-125 -132 -285 -222 l-39 54 ZM891 -66 q-113 108 -254 207 l43 47 q172 -124 258 -204 l-47 -50 ZM762 301 l0 160 l-524 0 l0 -160 l524 0 ZM55 668 l441 0 q-38 54 -86 102 l51 35 q62 -59 94 -106 l-43 -31 l437 0 l0 -55 l-894 0 l0 55 Z" /><glyph glyph-name="Identity.7749" unicode="&#x4ead;" d="M447 -102 q-61 0 -123 8 l-16 63 q93 -13 138 -13 q22 0 32 10 q10 10 10 33 l0 134 l-300 0 l0 51 l625 0 l0 -51 l-258 0 l0 -137 q0 -50 -26 -74 q-26 -24 -82 -24 ZM66 320 l868 0 l0 -175 l-67 0 l0 125 l-734 0 l0 -125 l-67 0 l0 175 ZM191 594 l618 0 l0 -203 l-618 0 l0 203 ZM742 441 l0 102 l-484 0 l0 -102 l484 0 ZM59 715 l414 0 q-20 32 -43 62 l58 28 q36 -45 59 -90 l394 0 l0 -51 l-882 0 l0 51 Z" /><glyph glyph-name="Identity.7750" unicode="&#x4eae;" d="M47 -43 q246 12 246 129 l0 102 l395 0 l0 -176 q0 -39 42 -39 l93 0 q43 0 51 35 q13 54 17 101 l62 -27 q-7 -49 -20 -95 q-10 -32 -37.5 -50.5 q-27.5 -18.5 -64.5 -18.5 l-124 0 q-86 0 -86 94 l0 125 l-262 0 l0 -47 q0 -168 -289 -192 l-23 59 ZM78 320 l844 0 l0 -140 l-67 0 l0 90 l-710 0 l0 -90 l-67 0 l0 140 ZM191 586 l614 0 l0 -199 l-614 0 l0 199 ZM738 438 l0 97 l-480 0 l0 -97 l480 0 ZM70 703 l403 0 q-13 26 -43 78 l62 20 q27 -44 55 -98 l379 0 l0 -51 l-856 0 l0 51 Z" /><glyph glyph-name="Identity.7754" unicode="&#x4eb2;" d="M430 -102 q-62 0 -117 4 l-16 63 q101 -8 137 -8 q35 0 35 39 l0 234 l-379 0 l0 55 l379 0 l0 117 l-414 0 l0 55 l531 0 q69 87 125 188 l59 -36 q-67 -104 -110 -152 l289 0 l0 -55 l-414 0 l0 -117 l375 0 l0 -55 l-375 0 l0 -238 q0 -94 -105 -94 ZM47 -27 q156 93 266 215 l50 -43 q-119 -127 -273 -223 l-43 51 ZM910 -81 q-113 114 -277 223 l45 44 q127 -81 282 -216 l-50 -51 ZM348 473 q-52 79 -106 132 l51 40 q65 -67 109 -133 l-54 -39 ZM102 715 l378 0 l-35 66 l63 24 l51 -90 l347 0 l0 -55 l-804 0 l0 55 Z" /><glyph glyph-name="Identity.7762" unicode="&#x4eba;" d="M51 -51 q390 250 418 856 l66 -4 q-4 -101 -15 -211 q132 -473 437 -637 l-47 -58 q-288 170 -422 582 q-98 -388 -386 -582 l-51 54 Z" /><glyph glyph-name="Identity.7767" unicode="&#x4ebf;" d="M477 -82 q-106 0 -133 74 q-17 74 39 149 q156 207 414 531 l-422 0 l0 58 l508 0 l0 -58 q-300 -373 -457 -586 q-28 -46 -4 -86 q23 -20 58 -20 l295 0 q41 0 62 14 q21 14 28 53 q17 93 18 203 l70 -30 q-5 -87 -21 -185 q-9 -58 -42.5 -87.5 q-33.5 -29.5 -112.5 -29.5 l-300 0 ZM180 449 q-32 -63 -102 -152 l-31 70 q140 186 223 442 l66 -24 q-44 -125 -90 -219 l0 -668 l-66 0 l0 551 Z" /><glyph glyph-name="Identity.7768" unicode="&#x4ec0;" d="M602 402 l-282 0 l0 63 l282 0 l0 336 l66 0 l0 -336 l281 0 l0 -63 l-281 0 l0 -504 l-66 0 l0 504 ZM184 453 q-30 -56 -114 -152 l-31 70 q160 192 246 434 l67 -20 q-62 -154 -102 -226 l0 -661 l-66 0 l0 555 Z" /><glyph glyph-name="Identity.7769" unicode="&#x4ec1;" d="M184 453 q-30 -56 -114 -152 l-31 70 q160 192 246 434 l67 -20 q-62 -154 -102 -226 l0 -661 l-66 0 l0 555 ZM305 39 l633 0 l0 -59 l-633 0 l0 59 ZM359 695 l539 0 l0 -58 l-539 0 l0 58 Z" /><glyph glyph-name="Identity.7773" unicode="&#x4ec5;" d="M309 -43 q179 83 296 207 q-141 209 -175 524 l-63 0 l0 62 l528 0 l0 -62 q-41 -311 -200 -528 q119 -129 262 -195 l-51 -63 q-140 78 -258 207 q-122 -122 -296 -211 l-43 59 ZM184 453 q-30 -56 -114 -152 l-31 66 q161 192 246 438 l67 -20 q-62 -154 -102 -226 l0 -661 l-66 0 l0 555 ZM652 215 q132 178 176 473 l-332 0 q39 -305 156 -473 Z" /><glyph glyph-name="Identity.7774" unicode="&#x4ec6;" d="M191 457 q-33 -62 -113 -156 l-31 70 q160 192 246 434 l62 -20 q-60 -152 -97 -219 l0 -668 l-67 0 l0 559 ZM535 801 l67 0 l0 -903 l-67 0 l0 903 ZM910 254 q-152 147 -297 266 l43 46 q158 -130 297 -257 l-43 -55 Z" /><glyph glyph-name="Identity.7775" unicode="&#x4ec7;" d="M270 -59 q214 196 214 602 l-168 0 l0 59 l168 0 l0 199 l67 0 l0 -199 l226 0 l0 -598 q0 -24 20 -24 l35 0 q36 0 39 32 q9 73 12 199 l66 -29 q-5 -99 -14 -178 q-10 -86 -91 -86 l-55 0 q-78 0 -78 94 l0 531 l-160 0 q0 -441 -231 -645 l-50 43 ZM176 441 q-33 -63 -94 -144 l-31 74 q133 179 211 438 l66 -24 q-45 -127 -86 -215 l0 -672 l-66 0 l0 543 Z" /><glyph glyph-name="Identity.7778" unicode="&#x4eca;" d="M47 406 q284 136 433 399 l63 -28 l-20 -31 q153 -219 426 -336 l-43 -58 q-277 136 -422 343 q-144 -211 -394 -343 l-43 54 ZM477 -66 q149 137 250 308 l-567 0 l0 59 l645 0 l0 -59 q-131 -209 -274 -347 l-54 39 ZM543 332 q-65 88 -148 164 l50 39 q84 -72 153 -160 l-55 -43 Z" /><glyph glyph-name="Identity.7779" unicode="&#x4ecb;" d="M43 387 q311 151 445 418 l67 -20 l-20 -31 q129 -226 422 -363 l-43 -55 q-285 144 -414 359 q-146 -223 -414 -359 l-43 51 ZM66 -47 q243 73 243 285 l0 184 l66 0 l0 -164 q0 -270 -270 -360 l-39 55 ZM629 422 l66 0 l0 -524 l-66 0 l0 524 Z" /><glyph glyph-name="Identity.7781" unicode="&#x4ecd;" d="M258 -63 q140 114 183 325 q28 161 28 433 l-117 0 l0 59 l488 0 l0 -59 l-94 -234 l176 0 q0 -252 -8 -418 q-4 -71 -40 -106 q-36 -35 -109 -35 q-84 0 -159 8 l-16 67 q117 -14 178 -14 q39 0 57.5 19.5 q18.5 19.5 22.5 62.5 q7 146 7 357 l-175 0 l0 55 l90 238 l-235 0 q0 -292 -31 -468 q-47 -208 -195 -332 l-51 42 ZM168 441 q-33 -63 -94 -144 l-31 74 q133 179 211 438 l62 -24 q-44 -123 -82 -215 l0 -672 l-66 0 l0 543 Z" /><glyph glyph-name="Identity.7782" unicode="&#x4ece;" d="M309 -51 q234 163 285 457 q15 134 15 395 l67 0 q0 -208 -4 -281 q73 -414 281 -571 l-51 -51 q-174 140 -257 454 q-56 -282 -290 -454 l-46 51 ZM51 -51 q119 138 157 311 q38 173 38 541 l67 0 q0 -210 -8 -356 q114 -134 179 -246 l-54 -47 q-61 118 -137 211 q-39 -272 -191 -465 l-51 51 Z" /><glyph glyph-name="Identity.7785" unicode="&#x4ed1;" d="M43 438 q306 133 445 367 l67 -16 l-20 -31 q163 -222 426 -317 l-43 -58 q-269 121 -418 324 q-141 -191 -414 -324 l-43 55 ZM348 -78 q-121 0 -121 109 l0 407 l66 0 l0 -204 q242 44 453 149 l35 -55 q-243 -106 -488 -152 l0 -141 q0 -55 59 -55 l345 0 q34 0 51 9.5 q17 9.5 24 32.5 q15 57 21 132 l66 -30 q-7 -52 -24 -116 q-12 -48 -44.5 -67 q-32.5 -19 -93.5 -19 l-349 0 Z" /><glyph glyph-name="Identity.7787" unicode="&#x4ed3;" d="M39 430 q298 125 449 375 l71 -20 l-24 -35 q156 -223 426 -316 l-43 -55 q-276 121 -422 324 q-136 -190 -418 -324 l-39 51 ZM355 -82 q-121 0 -121 105 l0 418 l512 0 q0 -117 -8 -211 q-9 -105 -136 -105 q-77 0 -129 4 l-17 64 q79 -9 150 -9 q60 0 66 50 q8 61 8 153 l-379 0 l0 -367 q0 -43 62 -43 l372 0 q51 0 66 46 q18 57 23 125 l63 -31 q-7 -63 -29 -125 q-27 -74 -123 -74 l-380 0 Z" /><glyph glyph-name="Identity.7788" unicode="&#x4ed4;" d="M563 -102 q-54 0 -129 8 l-16 71 q91 -14 145 -14 q42 0 42 47 l0 314 l-320 0 l0 59 l320 0 l0 109 l188 207 l-422 0 l0 59 l508 0 l0 -55 l-207 -230 l0 -90 l277 0 l0 -59 l-277 0 l0 -316 q0 -110 -109 -110 ZM168 441 q-27 -61 -90 -144 l-31 74 q129 180 207 438 l66 -24 q-45 -127 -86 -215 l0 -672 l-66 0 l0 543 Z" /><glyph glyph-name="Identity.7790" unicode="&#x4ed6;" d="M488 -74 q-60 0 -90.5 29 q-30.5 29 -30.5 82 l0 377 l-70 -19 l-16 58 l86 24 l0 218 l63 0 l0 -203 l164 47 l0 262 l62 0 l0 -242 l239 70 q0 -154 -13 -320 q-4 -56 -28 -79 q-24 -23 -77 -23 q-42 0 -70 4 l-16 62 q48 -8 87 -8 q21 0 30.5 10.5 q9.5 10.5 11.5 33.5 q12 120 12 242 l-176 -51 l0 -410 l-62 0 l0 390 l-164 -46 l0 -391 q0 -59 58 -59 l309 0 q52 0 66 47 q17 61 28 137 l62 -31 q-9 -61 -27 -123 q-13 -42 -41.5 -65 q-28.5 -23 -88.5 -23 l-308 0 ZM172 441 q-35 -60 -98 -144 l-31 74 q133 174 211 438 l62 -24 q-44 -123 -82 -215 l0 -672 l-62 0 l0 543 Z" /><glyph glyph-name="Identity.7791" unicode="&#x4ed7;" d="M262 -47 q209 58 320 160 q-128 135 -211 367 l59 28 q77 -222 195 -344 q77 124 82 402 l-406 0 l0 59 l406 0 l0 176 l66 0 l0 -176 l172 0 l0 -59 l-172 0 q0 -299 -101 -453 q129 -105 285 -156 l-47 -59 q-157 63 -281 168 q-129 -113 -328 -168 l-39 55 ZM168 441 q-33 -63 -94 -144 l-31 74 q133 179 211 438 l62 -24 q-44 -123 -82 -215 l0 -672 l-66 0 l0 543 Z" /><glyph glyph-name="Identity.7792" unicode="&#x4ed8;" d="M676 -97 q-84 0 -168 4 l-18 67 q97 -8 182 -8 q58 0 58 47 l0 526 l-414 0 l0 59 l414 0 l0 203 l67 0 l0 -203 l148 0 l0 -59 l-148 0 l0 -530 q0 -106 -121 -106 ZM184 453 q-31 -57 -114 -148 l-31 62 q161 192 246 438 l63 -20 q-57 -149 -98 -222 l0 -665 l-66 0 l0 555 ZM566 172 q-55 112 -146 236 l53 37 q95 -127 152 -234 l-59 -39 Z" /><glyph glyph-name="Identity.7793" unicode="&#x4ed9;" d="M859 -59 l-484 0 l0 672 l63 0 l0 -609 l179 0 l0 797 l63 0 l0 -797 l179 0 l0 609 l63 0 l0 -715 l-63 0 l0 43 ZM168 441 q-33 -63 -94 -144 l-31 74 q133 179 211 438 l62 -24 q-45 -127 -86 -215 l0 -672 l-62 0 l0 543 Z" /><glyph glyph-name="Identity.7803" unicode="&#x4ee3;" d="M805 -102 q-58 0 -110 47 q-149 135 -183 481 l-192 -28 l-11 59 l199 27 q-12 160 -12 317 l67 0 q0 -146 11 -305 l336 51 l8 -55 l-340 -54 q32 -353 180 -458 q62 -43 86 12 q29 64 44 171 l65 -34 q-16 -92 -51 -168 q-29 -63 -97 -63 ZM188 457 q-30 -52 -114 -152 l-31 66 q160 192 246 434 l66 -20 q-60 -148 -101 -222 l0 -665 l-66 0 l0 559 ZM798 590 q-84 72 -170 116 l37 48 q84 -44 176 -113 l-43 -51 Z" /><glyph glyph-name="Identity.7804" unicode="&#x4ee4;" d="M51 441 q280 124 429 364 l71 -16 l-16 -27 q163 -223 418 -321 l-39 -58 q-282 125 -418 336 q-129 -196 -410 -336 l-35 58 ZM629 -105 q-187 139 -388 252 l40 48 q122 -73 196 -121 q159 108 254 211 l-586 0 l0 59 l671 0 l0 -59 q-137 -141 -285 -246 q45 -28 145 -98 l-47 -46 ZM527 371 q-52 73 -128 141 l50 43 q76 -69 133 -141 l-55 -43 Z" /><glyph glyph-name="Identity.7805" unicode="&#x4ee5;" d="M305 -47 q263 104 347 275 q55 113 55 323 l0 250 l66 0 l0 -231 q0 -228 -50 -351 q130 -126 230 -270 l-58 -47 q-90 146 -207 258 q-115 -165 -340 -265 l-43 58 ZM78 23 q27 24 27 71 l0 691 l67 0 l0 -699 l285 187 l12 -66 l-348 -234 l-43 50 ZM500 465 q-76 133 -181 262 l52 39 q105 -128 188 -258 l-59 -43 Z" /><glyph glyph-name="Identity.7810" unicode="&#x4eea;" d="M273 -51 q201 95 309 203 q-164 193 -203 555 l62 12 q36 -345 184 -520 q157 193 188 531 l62 -11 q-35 -360 -207 -567 q116 -121 285 -199 l-51 -55 q-143 79 -277 207 q-121 -113 -309 -207 l-43 51 ZM184 453 q-32 -55 -114 -144 l-31 62 q165 194 250 434 l63 -24 q-61 -144 -102 -218 l0 -665 l-66 0 l0 555 ZM641 582 q-58 117 -121 199 l54 32 q63 -82 125 -196 l-58 -35 Z" /><glyph glyph-name="Identity.7812" unicode="&#x4eec;" d="M684 -26 q71 -6 122 -6 q38 0 38 39 l0 673 l-239 0 l0 58 l305 0 l0 -731 q0 -50 -26 -76 q-26 -26 -71 -26 q-87 0 -110 2 l-19 67 ZM168 445 q-34 -67 -94 -148 l-31 74 q133 183 211 438 l62 -20 q-44 -123 -82 -215 l0 -676 l-66 0 l0 547 ZM367 633 l67 0 l0 -731 l-67 0 l0 731 ZM508 618 q-44 89 -98 148 l51 35 q49 -56 102 -145 l-55 -38 Z" /><glyph glyph-name="Identity.7816" unicode="&#x4ef0;" d="M168 438 q-31 -54 -94 -137 l-31 66 q141 180 219 434 l62 -24 q-52 -140 -94 -222 l0 -657 l-62 0 l0 540 ZM320 43 q28 27 28 59 l0 617 q118 27 226 82 l31 -51 q-116 -53 -195 -74 l0 -586 l160 94 l17 -55 l-224 -137 l-43 51 ZM637 738 l285 0 l0 -609 q0 -90 -94 -90 q-39 0 -78 4 l-16 65 q48 -7 96 -7 q29 0 29 35 l0 544 l-160 0 l0 -782 l-62 0 l0 840 Z" /><glyph glyph-name="Identity.7818" unicode="&#x4ef2;" d="M598 219 l-184 0 l0 -55 l-62 0 l0 453 l246 0 l0 184 l62 0 l0 -184 l246 0 l0 -453 l-62 0 l0 55 l-184 0 l0 -321 l-62 0 l0 321 ZM184 453 q-30 -52 -114 -152 l-31 66 q161 192 246 438 l63 -20 q-56 -149 -102 -222 l0 -665 l-62 0 l0 555 ZM598 277 l0 282 l-184 0 l0 -282 l184 0 ZM844 277 l0 282 l-184 0 l0 -282 l184 0 Z" /><glyph glyph-name="Identity.7822" unicode="&#x4ef6;" d="M605 230 l-281 0 l0 59 l281 0 l0 234 l-160 0 q-32 -87 -82 -175 l-54 43 q82 138 121 339 l66 -15 q-19 -82 -35 -133 l144 0 l0 219 l67 0 l0 -219 l246 0 l0 -59 l-246 0 l0 -234 l277 0 l0 -59 l-277 0 l0 -332 l-67 0 l0 332 ZM180 453 q-29 -56 -110 -152 l-31 66 q157 193 242 438 l63 -20 q-57 -152 -98 -226 l0 -661 l-66 0 l0 555 Z" /><glyph glyph-name="Identity.7823" unicode="&#x4ef7;" d="M184 457 q-32 -59 -114 -144 l-31 58 q165 194 250 434 l63 -20 q-63 -151 -102 -222 l0 -665 l-66 0 l0 559 ZM285 -55 q180 102 180 313 l0 168 l66 0 l0 -164 q0 -258 -199 -364 l-47 47 ZM719 426 l66 0 l0 -528 l-66 0 l0 528 ZM289 453 q211 112 313 348 l62 -20 l-16 -31 q102 -191 305 -293 l-39 -55 q-191 102 -297 286 q-101 -176 -289 -286 l-39 51 Z" /><glyph glyph-name="Identity.7827" unicode="&#x4efb;" d="M359 -8 l246 0 l0 360 l-277 0 l0 58 l277 0 l0 293 q-29 -1 -63.5 -2.5 q-34.5 -1.5 -80 -3 q-45.5 -1.5 -74.5 -2.5 l-20 59 q281 5 516 43 l27 -55 q-114 -18 -238 -31 l0 -301 l277 0 l0 -58 l-277 0 l0 -360 l246 0 l0 -58 l-559 0 l0 58 ZM191 461 q-33 -61 -121 -164 l-31 66 q153 194 242 442 l67 -20 q-50 -130 -90 -203 l0 -684 l-67 0 l0 563 Z" /><glyph glyph-name="Identity.7829" unicode="&#x4efd;" d="M277 -59 q230 153 235 395 l-129 0 l0 59 l449 0 q-3 -228 -8 -360 q-4 -133 -134 -133 q-75 0 -137 8 l-16 67 q114 -14 153 -14 q33 0 49 13.5 q16 13.5 19 47.5 q6 67 8 312 l-188 0 q-5 -274 -254 -441 l-47 46 ZM168 434 q-35 -65 -94 -145 l-31 74 q133 179 211 438 l62 -24 q-45 -125 -82 -211 l0 -668 l-66 0 l0 536 ZM289 441 q161 145 219 360 l62 -20 q-71 -243 -238 -394 l-43 54 ZM910 387 q-176 144 -254 398 l63 20 q71 -243 234 -364 l-43 -54 Z" /><glyph glyph-name="Identity.7831" unicode="&#x4eff;" d="M273 -59 q204 163 204 504 l0 145 l-164 0 l0 58 l324 0 q-45 65 -114 122 l51 39 q65 -49 125 -129 l-51 -32 l301 0 l0 -58 l-406 0 l0 -164 l312 0 q0 -225 -18 -403 q-12 -120 -134 -120 q-56 0 -140 11 l-16 68 q104 -17 164 -17 q52 0 59 56 q19 157 19 346 l-250 0 q-7 -276 -211 -472 l-55 46 ZM176 445 q-33 -59 -98 -144 l-35 70 q141 180 219 438 l66 -24 q-45 -127 -86 -215 l0 -672 l-66 0 l0 547 Z" /><glyph glyph-name="Identity.7833" unicode="&#x4f01;" d="M70 0 l145 0 l0 363 l66 0 l0 -363 l207 0 l0 500 l67 0 l0 -195 l293 0 l0 -59 l-293 0 l0 -246 l375 0 l0 -59 l-860 0 l0 59 ZM47 445 q298 134 449 360 l70 -20 q-14 -20 -19 -31 q149 -195 414 -309 l-35 -58 q-266 125 -422 324 q-141 -185 -418 -324 l-39 58 Z" /><glyph glyph-name="Identity.7842" unicode="&#x4f0a;" d="M277 -51 q171 116 215 274 l-164 0 l0 58 l176 0 q8 63 12 180 l-211 0 l0 59 l211 0 l0 175 l-180 0 l0 59 l535 0 l0 -234 l78 0 l0 -59 l-78 0 l0 -289 l-66 0 l0 51 l-242 0 q-44 -189 -243 -325 l-43 51 ZM168 445 q-33 -63 -94 -144 l-31 70 q133 179 211 438 l62 -24 q-46 -124 -82 -211 l0 -676 l-66 0 l0 547 ZM805 281 l0 180 l-223 0 q0 -113 -12 -180 l235 0 ZM805 520 l0 175 l-223 0 l0 -175 l223 0 Z" /><glyph glyph-name="Identity.7845" unicode="&#x4f0d;" d="M293 -8 l160 0 l35 379 l-129 0 l0 63 l137 0 l20 257 l-180 0 l0 63 l586 0 l0 -63 l-340 0 l-19 -257 l296 0 l0 -442 l90 0 l0 -62 l-656 0 l0 62 ZM168 441 q-27 -59 -90 -144 l-31 74 q129 180 207 438 l62 -20 q-46 -132 -82 -219 l0 -672 l-66 0 l0 543 ZM793 -8 l0 379 l-238 0 l-35 -379 l273 0 Z" /><glyph glyph-name="Identity.7847" unicode="&#x4f0f;" d="M289 -51 q247 197 281 520 l-246 0 l0 58 l250 0 q4 115 4 274 l67 0 q0 -163 -4 -274 l293 0 l0 -58 l-289 0 q82 -340 312 -520 l-47 -51 q-220 173 -293 461 q-54 -269 -281 -461 l-47 51 ZM191 461 q-37 -62 -117 -160 l-31 66 q165 194 250 438 l62 -20 q-60 -152 -97 -219 l0 -668 l-67 0 l0 563 ZM852 594 q-59 66 -137 120 l39 44 q78 -51 141 -117 l-43 -47 Z" /><glyph glyph-name="Identity.7848" unicode="&#x4f10;" d="M815 -94 q-47 0 -88 28 q-82 55 -133 171 q-115 -96 -262 -164 l-39 52 q154 72 277 171 q-36 130 -47 320 l-203 -23 l-11 59 l207 23 q-8 146 -8 258 l66 0 q0 -108 8 -250 l332 35 l8 -59 l-336 -35 q11 -185 39 -281 q118 106 176 219 l54 -35 q-77 -132 -207 -247 q50 -123 125 -168 q62 -38 83 19 q21 59 35 159 l58 -33 q-10 -75 -35 -148 q-25 -71 -99 -71 ZM191 461 q-37 -62 -117 -160 l-31 70 q165 194 250 434 l62 -20 q-60 -152 -97 -219 l0 -668 l-67 0 l0 563 ZM813 621 q-72 65 -163 115 l38 45 q86 -44 167 -113 l-42 -47 Z" /><glyph glyph-name="Identity.7849" unicode="&#x4f11;" d="M590 418 q-90 -241 -254 -414 l-51 47 q195 191 285 480 l-257 0 l0 59 l277 0 l0 211 l66 0 l0 -211 l274 0 l0 -59 l-254 0 q90 -307 273 -480 l-54 -47 q-161 161 -239 414 l0 -520 l-66 0 l0 520 ZM176 445 q-35 -63 -98 -148 l-35 70 q141 180 219 442 l62 -24 q-39 -122 -82 -215 l0 -672 l-66 0 l0 547 Z" /><glyph glyph-name="Identity.7855" unicode="&#x4f17;" d="M63 461 q284 117 433 344 l63 -16 l-16 -27 q161 -203 406 -297 l-43 -55 q-235 102 -402 301 q-136 -179 -399 -301 l-42 51 ZM55 -47 q235 176 230 508 l67 0 q0 -65 -8 -156 q88 -85 164 -180 l-47 -51 q-87 115 -137 160 q-62 -204 -222 -328 l-47 47 ZM367 -51 q249 155 254 512 l67 0 q0 -57 -4 -109 q88 -274 277 -399 l-47 -55 q-171 128 -254 348 q-66 -230 -246 -348 l-47 51 Z" /><glyph glyph-name="Identity.7856" unicode="&#x4f18;" d="M277 -59 q212 192 219 559 l-187 0 l0 59 l187 0 q4 93 4 242 l66 0 q0 -137 -3 -242 l363 0 l0 -59 l-363 0 q-7 -394 -235 -602 l-51 43 ZM184 457 q-37 -63 -118 -156 l-31 70 q166 202 250 434 l63 -20 q-58 -150 -98 -215 l0 -672 l-66 0 l0 559 ZM738 -78 q-101 0 -101 109 l0 426 l66 0 l0 -426 q0 -47 51 -47 l64 0 q48 0 57 43 q8 42 16 145 l66 -29 q-6 -63 -16 -123 q-17 -98 -117 -98 l-86 0 ZM828 605 q-97 85 -176 125 l39 47 q104 -60 180 -121 l-43 -51 Z" /><glyph glyph-name="Identity.7857" unicode="&#x4f19;" d="M273 -55 q248 180 297 496 q12 197 12 360 l66 0 q0 -138 -7 -274 q74 -429 308 -578 l-51 -54 q-207 152 -281 464 q-62 -285 -293 -464 l-51 50 ZM176 445 q-34 -62 -98 -144 l-31 70 q137 181 215 434 l66 -20 q-47 -126 -86 -211 l0 -676 l-66 0 l0 547 ZM410 305 q-27 151 -78 285 l63 19 q52 -137 82 -281 l-67 -23 ZM730 344 q83 118 141 265 l59 -31 q-52 -127 -145 -273 l-55 39 Z" /><glyph glyph-name="Identity.7858" unicode="&#x4f1a;" d="M43 441 q306 146 461 364 l66 -20 l-19 -31 q145 -189 410 -313 l-43 -50 q-253 124 -410 316 q-135 -166 -418 -316 l-47 50 ZM840 -105 q-33 44 -67 78 q-223 -16 -601 -47 l-27 54 q58 43 125.5 113.5 q67.5 70.5 112.5 136.5 l-281 0 l0 59 l808 0 l0 -59 l-445 0 q-113 -153 -219 -242 q187 11 477 35 q-46 49 -127 116 l49 41 q155 -127 250 -243 l-55 -42 ZM270 469 l472 0 l0 -59 l-472 0 l0 59 Z" /><glyph glyph-name="Identity.7862" unicode="&#x4f1e;" d="M469 121 l-399 0 l0 55 l399 0 l0 394 l66 0 l0 -394 l395 0 l0 -55 l-395 0 l0 -223 l-66 0 l0 223 ZM352 223 q-68 87 -164 172 l46 43 q90 -75 168 -168 l-50 -47 ZM602 266 q93 70 160 172 l54 -40 q-81 -107 -168 -179 l-46 47 ZM43 469 q289 112 457 336 l59 -28 l-20 -27 q152 -169 414 -281 l-39 -59 q-262 124 -414 293 q-155 -171 -418 -293 l-39 59 Z" /><glyph glyph-name="Identity.7863" unicode="&#x4f1f;" d="M578 258 l-250 0 l0 55 l250 0 l0 128 l-211 0 l0 55 l211 0 l0 125 l-246 0 l0 55 l246 0 l0 125 l67 0 l0 -125 l281 0 l0 -55 l-281 0 l0 -125 l238 0 l0 -55 l-238 0 l0 -128 l265 0 q0 -159 -4 -200 q-4 -46 -28 -71.5 q-24 -25.5 -83 -25.5 q-57 0 -92 4 l-17 61 q69 -7 107 -7 q23 0 34 9 q11 9 13 34 q4 45 4 141 l-199 0 l0 -360 l-67 0 l0 360 ZM184 453 q-30 -56 -114 -152 l-31 70 q160 192 246 434 l63 -20 q-57 -152 -98 -226 l0 -661 l-66 0 l0 555 Z" /><glyph glyph-name="Identity.7864" unicode="&#x4f20;" d="M775 -102 q-147 101 -376 218 l35 47 q97 -46 179 -93 l188 172 l-379 0 l0 51 l55 145 l-168 0 l0 54 l187 0 l43 141 l-195 0 l0 55 l211 0 l35 117 l66 -12 l-31 -105 l285 0 l0 -55 l-305 0 l-42 -141 l386 0 l0 -54 l-402 0 l-55 -141 l395 0 l0 -59 l-219 -203 q113 -67 148 -90 l-41 -47 ZM176 438 q-35 -60 -98 -145 l-35 70 q145 179 223 438 l62 -24 q-46 -128 -86 -211 l0 -668 l-66 0 l0 540 Z" /><glyph glyph-name="Identity.7868" unicode="&#x4f24;" d="M305 -59 q254 146 254 418 l-196 0 l0 59 l196 0 l0 152 l66 0 l0 -152 l281 0 q0 -215 -8 -381 q-3 -66 -31 -96.5 q-28 -30.5 -89 -30.5 q-70 0 -145 8 l-17 72 q104 -17 162 -17 q28 0 40 13 q12 13 14 41 q8 119 8 332 l-215 0 q0 -308 -277 -468 l-43 50 ZM191 457 q-35 -59 -117 -156 l-31 70 q165 194 250 434 l66 -20 q-62 -149 -101 -222 l0 -665 l-67 0 l0 559 ZM313 492 q114 135 179 313 l63 -20 q-24 -61 -47 -109 l433 0 l0 -59 l-461 0 q-46 -85 -117 -168 l-50 43 Z" /><glyph glyph-name="Identity.7870" unicode="&#x4f26;" d="M184 461 q-37 -61 -118 -156 l-31 66 q165 194 250 434 l67 -20 q-64 -146 -102 -215 l0 -672 l-66 0 l0 563 ZM512 -74 q-98 0 -98 94 l0 425 l66 0 l0 -215 q164 63 313 180 l43 -51 q-164 -118 -356 -191 l0 -145 q0 -39 40 -39 l246 0 q47 0 58 47 q16 61 20 145 l66 -28 q-11 -73 -27 -138 q-20 -84 -115 -84 l-256 0 ZM270 453 q219 118 332 352 l62 -24 l-19 -35 q101 -180 308 -293 l-43 -51 q-198 113 -301 293 q-93 -168 -296 -293 l-43 51 Z" /><glyph glyph-name="Identity.7874" unicode="&#x4f2a;" d="M266 -59 q257 192 281 551 l-242 0 l0 59 l246 0 q4 100 4 250 l66 0 q0 -135 -4 -250 l305 0 q0 -279 -20 -524 q-8 -121 -125 -121 q-87 0 -152 4 l-20 69 q106 -15 172 -10 q55 4 59 62 q19 194 19 461 l-242 0 q-27 -387 -297 -597 l-50 46 ZM168 441 q-32 -61 -90 -144 l-31 74 q129 180 207 438 l62 -24 q-44 -123 -82 -215 l0 -672 l-66 0 l0 543 ZM738 133 q-47 100 -113 187 l55 35 q69 -91 117 -186 l-59 -36 ZM453 587 q-43 65 -112 131 l46 40 q73 -68 117 -129 l-51 -42 Z" /><glyph glyph-name="Identity.7879" unicode="&#x4f2f;" d="M395 656 l152 0 q35 83 51 145 l70 -16 q-22 -73 -51 -129 l289 0 l0 -758 l-66 0 l0 43 l-379 0 l0 -43 l-66 0 l0 758 ZM184 441 q-29 -53 -106 -148 l-31 70 q140 179 223 438 l66 -24 q-45 -130 -86 -207 l0 -672 l-66 0 l0 543 ZM840 0 l0 281 l-379 0 l0 -281 l379 0 ZM840 340 l0 258 l-379 0 l0 -258 l379 0 Z" /><glyph glyph-name="Identity.7880" unicode="&#x4f30;" d="M391 340 l214 0 l0 223 l-273 0 l0 58 l273 0 l0 180 l67 0 l0 -180 l277 0 l0 -58 l-277 0 l0 -223 l215 0 l0 -442 l-67 0 l0 43 l-363 0 l0 -43 l-66 0 l0 442 ZM180 449 q-34 -61 -106 -148 l-31 70 q144 178 227 438 l66 -24 q-44 -126 -90 -215 l0 -672 l-66 0 l0 551 ZM820 0 l0 281 l-363 0 l0 -281 l363 0 Z" /><glyph glyph-name="Identity.7884" unicode="&#x4f34;" d="M598 164 l-289 0 l0 55 l289 0 l0 187 l-254 0 l0 55 l254 0 l0 340 l66 0 l0 -340 l254 0 l0 -55 l-254 0 l0 -187 l289 0 l0 -55 l-289 0 l0 -266 l-66 0 l0 266 ZM176 441 q-32 -60 -98 -152 l-31 74 q137 180 219 438 l62 -24 q-46 -128 -86 -214 l0 -665 l-66 0 l0 543 ZM480 512 q-60 99 -140 187 l51 35 q85 -93 144 -183 l-55 -39 ZM723 551 q88 83 148 187 l55 -35 q-74 -118 -153 -191 l-50 39 Z" /><glyph glyph-name="Identity.7886" unicode="&#x4f36;" d="M262 445 q210 123 320 356 l63 -12 l-12 -31 q112 -194 320 -301 l-43 -55 q-212 124 -312 297 q-98 -176 -289 -301 l-47 47 ZM168 438 q-28 -60 -90 -149 l-31 78 q129 180 207 434 l62 -24 q-45 -126 -82 -214 l0 -665 l-66 0 l0 540 ZM730 -102 q-181 138 -355 235 l39 43 q73 -41 172 -102 q120 93 203 196 l-469 0 l0 58 l555 0 l0 -58 q-117 -136 -234 -231 l132 -94 l-43 -47 ZM646 367 q-50 69 -124 131 l48 40 q58 -46 129 -129 l-53 -42 Z" /><glyph glyph-name="Identity.7888" unicode="&#x4f38;" d="M613 141 l-183 0 l0 -43 l-63 0 l0 543 l246 0 l0 160 l63 0 l0 -160 l246 0 l0 -543 l-63 0 l0 43 l-183 0 l0 -243 l-63 0 l0 243 ZM184 445 q-36 -59 -102 -156 l-35 74 q143 183 223 438 l62 -24 q-38 -126 -86 -214 l0 -665 l-62 0 l0 547 ZM613 195 l0 168 l-183 0 l0 -168 l183 0 ZM613 422 l0 164 l-183 0 l0 -164 l183 0 ZM859 195 l0 168 l-183 0 l0 -168 l183 0 ZM859 422 l0 164 l-183 0 l0 -164 l183 0 Z" /><glyph glyph-name="Identity.7890" unicode="&#x4f3a;" d="M797 -95 q-42 -1 -179 6 l-16 63 q123 -11 194 -11 q59 0 59 64 l0 672 l-500 0 l0 55 l567 0 l0 -731 q0 -60 -29.5 -88.5 q-29.5 -28.5 -95.5 -29.5 ZM172 438 q-32 -57 -94 -145 l-31 74 q132 178 211 434 l62 -24 q-40 -119 -82 -211 l0 -668 l-66 0 l0 540 ZM387 422 l351 0 l0 -336 l-285 0 l0 -63 l-66 0 l0 399 ZM672 141 l0 226 l-219 0 l0 -226 l219 0 ZM344 586 l449 0 l0 -55 l-449 0 l0 55 Z" /><glyph glyph-name="Identity.7892" unicode="&#x4f3c;" d="M453 -47 q301 172 301 520 l0 316 l66 0 l0 -281 q0 -202 -47 -313 q99 -118 180 -250 l-58 -39 q-69 123 -157 231 q-72 -131 -242 -239 l-43 55 ZM172 441 q-32 -59 -94 -148 l-31 78 q133 174 211 438 l62 -24 q-39 -122 -82 -215 l0 -672 l-66 0 l0 543 ZM340 78 q27 24 27 59 l0 597 l67 0 l0 -581 l140 132 l28 -51 l-219 -214 l-43 58 ZM609 539 q-43 109 -117 234 l55 32 q63 -109 121 -231 l-59 -35 Z" /><glyph glyph-name="Identity.7899" unicode="&#x4f43;" d="M375 758 l539 0 l0 -856 l-62 0 l0 63 l-414 0 l0 -67 l-63 0 l0 860 ZM184 441 q-34 -55 -102 -148 l-35 70 q143 179 223 438 l62 -24 q-47 -135 -86 -214 l0 -665 l-62 0 l0 543 ZM613 23 l0 321 l-175 0 l0 -321 l175 0 ZM852 23 l0 321 l-176 0 l0 -321 l176 0 ZM613 402 l0 297 l-175 0 l0 -297 l175 0 ZM852 402 l0 297 l-176 0 l0 -297 l176 0 Z" /><glyph glyph-name="Identity.7902" unicode="&#x4f46;" d="M406 754 l461 0 l0 -617 l-461 0 l0 617 ZM180 441 q-26 -43 -98 -152 l-35 74 q141 180 219 438 l62 -24 q-34 -109 -82 -211 l0 -668 l-66 0 l0 543 ZM328 -12 l617 0 l0 -54 l-617 0 l0 54 ZM801 191 l0 231 l-328 0 l0 -231 l328 0 ZM801 477 l0 222 l-328 0 l0 -222 l328 0 Z" /><glyph glyph-name="Identity.7909" unicode="&#x4f4d;" d="M285 -12 l332 0 q95 224 153 469 l66 -23 q-78 -275 -148 -446 l261 0 l0 -58 l-664 0 l0 58 ZM180 434 q-31 -57 -94 -145 l-31 78 q132 178 211 434 l62 -24 q-40 -129 -82 -218 l0 -661 l-66 0 l0 536 ZM484 66 q-31 167 -105 364 l62 27 q65 -166 110 -363 l-67 -28 ZM313 590 l601 0 l0 -59 l-601 0 l0 59 ZM598 609 q-32 87 -78 161 l58 31 q49 -78 82 -156 l-62 -36 Z" /><glyph glyph-name="Identity.7910" unicode="&#x4f4e;" d="M863 -86 q-50 0 -101 59 q-93 104 -110 418 l-203 0 l0 -328 l156 101 l24 -55 l-234 -160 l-40 63 q28 22 28 47 l0 679 q268 5 512 43 l31 -54 q-129 -21 -211 -28 l0 -250 l223 0 l0 -58 l-219 0 q15 -290 99 -380 q44 -47 57 1 q16 60 20 172 l62 -32 q-7 -107 -22 -168 q-8 -31 -26.5 -50.5 q-18.5 -19.5 -45.5 -19.5 ZM176 441 q-33 -57 -102 -152 l-31 78 q141 180 219 434 l62 -24 q-45 -126 -82 -214 l0 -665 l-66 0 l0 543 ZM648 -102 q-32 56 -85 118 l50 35 q43 -43 90 -117 l-55 -36 ZM648 449 l0 242 q-15 -1 -199 -11 l0 -231 l199 0 Z" /><glyph glyph-name="Identity.7911" unicode="&#x4f4f;" d="M305 -12 l289 0 l0 278 l-231 0 l0 58 l231 0 l0 250 l-266 0 l0 59 l598 0 l0 -59 l-266 0 l0 -250 l231 0 l0 -58 l-231 0 l0 -278 l289 0 l0 -58 l-644 0 l0 58 ZM176 438 q-35 -65 -98 -149 l-31 74 q137 180 219 438 l62 -24 q-46 -128 -86 -214 l0 -665 l-66 0 l0 540 ZM637 645 q-56 67 -121 117 l50 39 q63 -48 122 -113 l-51 -43 Z" /><glyph glyph-name="Identity.7913" unicode="&#x4f51;" d="M445 297 q-59 -99 -129 -176 l-43 55 q141 148 235 398 l-184 0 l0 55 l203 0 q27 62 47 172 l67 -12 q-18 -86 -43 -160 l347 0 l0 -55 l-367 0 q-44 -114 -90 -203 l395 0 l0 -473 l-67 0 l0 43 l-304 0 l0 -43 l-67 0 l0 399 ZM172 434 q-34 -63 -90 -145 l-31 78 q129 180 207 434 l62 -24 q-40 -123 -82 -214 l0 -665 l-66 0 l0 536 ZM816 -4 l0 320 l-304 0 l0 -320 l304 0 Z" /><glyph glyph-name="Identity.7915" unicode="&#x4f53;" d="M582 86 l-141 0 l0 59 l141 0 l0 382 q-77 -259 -266 -484 l-46 51 q175 194 265 469 l-238 0 l0 58 l285 0 l0 180 l66 0 l0 -180 l290 0 l0 -58 l-247 0 q83 -260 266 -465 l-51 -51 q-188 229 -258 480 l0 -382 l141 0 l0 -59 l-141 0 l0 -188 l-66 0 l0 188 ZM172 457 q-37 -59 -86 -117 l-39 55 q143 182 211 402 l62 -20 q-44 -122 -82 -203 l0 -676 l-66 0 l0 559 Z" /><glyph glyph-name="Identity.7917" unicode="&#x4f55;" d="M732 -96 q-97 0 -146 4 l-20 67 q114 -8 166 -8 q35 0 50 14 q15 14 15 44 l0 670 l-461 0 l0 59 l609 0 l0 -59 l-86 0 l0 -681 q0 -110 -127 -110 ZM184 469 q-44 -83 -94 -145 l-39 55 q134 185 195 422 l63 -24 q-32 -107 -63 -179 l0 -700 l-62 0 l0 571 ZM387 547 l289 0 l0 -402 l-227 0 l0 -55 l-62 0 l0 457 ZM613 203 l0 285 l-164 0 l0 -285 l164 0 Z" /><glyph glyph-name="Identity.7921" unicode="&#x4f59;" d="M434 -102 q-35 0 -118 5 l-18 67 q88 -9 128 -9 q47 0 47 47 l0 242 l-371 0 l0 59 l371 0 l0 136 l-231 0 l0 43 q-68 -42 -148 -82 l-43 55 q273 112 437 340 l67 -16 l-16 -23 q149 -188 414 -297 l-43 -59 q-80 38 -148 78 l0 -39 l-223 0 l0 -136 l363 0 l0 -59 l-363 0 l0 -241 q0 -53 -27.5 -82 q-27.5 -29 -77.5 -29 ZM82 -20 q127 87 223 219 l54 -39 q-100 -128 -226 -226 l-51 46 ZM871 -59 q-113 129 -230 215 l47 43 q126 -96 238 -211 l-55 -47 ZM734 504 q-140 94 -234 207 q-98 -113 -234 -207 l468 0 Z" /><glyph glyph-name="Identity.7923" unicode="&#x4f5b;" d="M277 -59 q156 97 200 282 l-168 0 l23 257 l160 0 l0 145 l-176 0 l0 55 l176 0 l0 121 l63 0 l0 -121 l105 0 l0 121 l63 0 l0 -121 l168 0 l0 -254 l-168 0 l0 -149 l203 0 q0 -131 -4 -183 q-1 -18 -5 -31.5 q-4 -13.5 -13 -28 q-9 -14.5 -27.5 -22.5 q-18.5 -8 -45.5 -8 q-34 0 -65 4 l-16 61 q47 -6 76 -6 q30 0 33 36 q4 37 4 124 l-140 0 l0 -325 l-63 0 l0 325 l-117 0 q-43 -223 -223 -328 l-43 46 ZM172 438 q-34 -63 -90 -145 l-31 74 q129 180 207 434 l58 -24 q-46 -124 -82 -211 l0 -668 l-62 0 l0 540 ZM488 277 q4 35 4 86 l0 63 l-101 0 l-16 -149 l113 0 ZM660 277 l0 149 l-105 0 l0 -55 q0 -48 -8 -94 l113 0 ZM660 480 l0 145 l-105 0 l0 -145 l105 0 ZM828 480 l0 145 l-105 0 l0 -145 l105 0 Z" /><glyph glyph-name="Identity.7924" unicode="&#x4f5c;" d="M539 594 l-62 0 q-46 -108 -125 -219 l-51 47 q114 153 187 383 l67 -20 l-55 -133 l449 0 l0 -58 l-344 0 l0 -172 l293 0 l0 -59 l-293 0 l0 -172 l297 0 l0 -58 l-297 0 l0 -235 l-66 0 l0 696 ZM191 438 q-36 -61 -105 -149 l-35 70 q152 188 230 442 l67 -24 q-46 -127 -90 -214 l0 -665 l-67 0 l0 540 Z" /><glyph glyph-name="Identity.7928" unicode="&#x4f60;" d="M184 453 q-33 -53 -114 -152 l-31 70 q160 192 246 434 l63 -20 q-50 -130 -98 -222 l0 -665 l-66 0 l0 555 ZM309 63 q106 168 152 332 l62 -24 q-67 -205 -160 -344 l-54 36 ZM543 -102 q-57 0 -98 4 l-11 67 q50 -8 113 -8 q47 0 47 43 l0 539 l66 0 l0 -559 q0 -86 -117 -86 ZM891 27 q-70 182 -164 336 l54 32 q91 -148 168 -329 l-58 -39 ZM316 469 q99 138 161 328 l62 -24 q-20 -54 -47 -117 l422 0 l0 -58 q-20 -66 -74 -160 l-59 27 q37 58 67 133 l-375 0 q-51 -95 -106 -172 l-51 43 Z" /><glyph glyph-name="Identity.7931" unicode="&#x4f63;" d="M262 -66 q105 110 105 305 l0 511 l547 0 l0 -754 q0 -47 -20.5 -70.5 q-20.5 -23.5 -69.5 -23.5 q-49 0 -86 4 l-19 62 q68 -7 96 -7 q20 0 28.5 9.5 q8.5 9.5 8.5 31.5 l0 205 l-180 0 l0 -277 l-63 0 l0 277 l-179 0 q-4 -191 -114 -312 l-54 39 ZM168 434 q-34 -63 -90 -145 l-31 74 q130 181 203 438 l63 -24 q-42 -127 -83 -214 l0 -665 l-62 0 l0 536 ZM609 266 l0 183 l-179 0 l0 -183 l179 0 ZM609 508 l0 183 l-179 0 l0 -183 l179 0 ZM852 266 l0 183 l-180 0 l0 -183 l180 0 ZM852 508 l0 183 l-180 0 l0 -183 l180 0 Z" /><glyph glyph-name="Identity.7937" unicode="&#x4f69;" d="M238 -63 q82 125 82 399 l0 418 l535 0 l0 -586 q0 -126 16 -187 q4 -14 8.5 -14.5 q4.5 -0.5 7.5 16.5 q6 42 8 142 l58 -23 q-4 -76 -15 -145 q-9 -55 -57 -55 q-16 0 -31.5 10 q-15.5 10 -23.5 28 q-29 53 -29 248 l0 511 l-418 0 l0 -375 q0 -280 -90 -429 l-51 42 ZM160 457 q-37 -66 -78 -121 l-35 59 q128 182 187 406 l59 -20 q-33 -119 -74 -203 l0 -680 l-59 0 l0 559 ZM559 383 l-67 0 l0 -356 l-58 0 l0 407 l125 0 l0 117 l-141 0 l0 51 l340 0 l0 -51 l-141 0 l0 -117 l125 0 l0 -341 q0 -36 -13 -51 q-13 -15 -41 -15 q-25 0 -40 4 l-11 55 q13 -4 32 -4 q15 0 15 14 l0 287 l-67 0 l0 -473 l-58 0 l0 473 Z" /><glyph glyph-name="Identity.7947" unicode="&#x4f73;" d="M316 -12 l282 0 l0 180 l-231 0 l0 55 l231 0 l0 125 l66 0 l0 -125 l234 0 l0 -55 l-234 0 l0 -180 l281 0 l0 -54 l-629 0 l0 54 ZM176 434 q-35 -66 -98 -145 l-31 74 q140 179 223 438 l62 -24 q-43 -120 -90 -214 l0 -665 l-66 0 l0 536 ZM328 441 l270 0 l0 168 l-231 0 l0 55 l231 0 l0 137 l66 0 l0 -137 l234 0 l0 -55 l-234 0 l0 -168 l270 0 l0 -54 l-606 0 l0 54 Z" /><glyph glyph-name="Identity.7959" unicode="&#x4f7f;" d="M176 461 q-39 -67 -82 -121 l-39 62 q135 170 203 399 l58 -20 q-31 -107 -78 -203 l0 -680 l-62 0 l0 563 ZM266 -47 q157 32 230 94 q-82 58 -148 148 l50 39 q68 -93 141 -144 q43 46 55 176 l-239 0 l0 265 l243 0 l0 106 l-285 0 l0 54 l285 0 l0 106 l62 0 l0 -106 l285 0 l0 -54 l-285 0 l0 -106 l242 0 l0 -265 l-246 0 q-8 -137 -62 -211 q138 -79 359 -98 l-35 -59 q-230 32 -367 110 q-95 -74 -246 -110 l-39 55 ZM598 320 l0 157 l-180 0 l0 -157 l180 0 ZM840 320 l0 157 l-180 0 l0 -157 l180 0 Z" /><glyph glyph-name="Identity.7964" unicode="&#x4f84;" d="M313 -8 l285 0 l0 180 l-227 0 l0 58 l227 0 l0 165 l-223 -20 l-23 55 q127 124 199 269 l-203 0 l0 59 l566 0 l0 -59 l-348 0 l51 -27 q-91 -147 -172 -234 l360 27 q-33 60 -91 136 l56 32 q102 -135 156 -254 l-59 -35 q-14 36 -35 70 l-168 -16 l0 -168 l227 0 l0 -58 l-227 0 l0 -180 l285 0 l0 -58 l-636 0 l0 58 ZM180 461 q-43 -64 -94 -121 l-35 62 q145 173 215 399 l62 -20 q-32 -101 -82 -203 l0 -680 l-66 0 l0 563 Z" /><glyph glyph-name="Identity.7968" unicode="&#x4f88;" d="M281 -43 q231 39 356 113 q-38 38 -110 90 l47 39 q64 -43 121 -94 q94 62 160 168 l-273 0 q-96 -90 -234 -179 l-43 47 q183 105 308 257 l63 -23 q-18 -25 -43 -47 l297 0 l0 -55 q-158 -285 -606 -375 l-43 59 ZM176 434 q-35 -66 -98 -145 l-27 74 q138 182 211 438 l62 -24 q-40 -123 -82 -214 l0 -665 l-66 0 l0 536 ZM289 387 q232 59 309 109 q-46 41 -110 74 l43 43 q61 -31 125 -82 q100 62 160 137 l-304 0 q-62 -65 -164 -141 l-47 47 q153 96 230 227 l59 -24 l-39 -54 l344 0 l0 -55 q-165 -234 -571 -336 l-35 55 Z" /><glyph glyph-name="Identity.7971" unicode="&#x4f8b;" d="M273 -63 q144 132 215 274 q-26 38 -90 94 l40 47 q51 -45 78 -79 q43 100 58 219 l-140 0 q-44 -126 -114 -242 l-47 39 q103 157 149 406 l-102 0 l0 59 l340 0 l0 -59 l-176 0 q-14 -67 -35 -144 l188 0 l0 -59 q-44 -347 -313 -594 l-51 39 ZM164 453 q-34 -66 -78 -117 l-35 62 q128 172 187 403 l59 -20 q-33 -116 -70 -207 l0 -676 l-63 0 l0 555 ZM703 699 l63 0 l0 -582 l-63 0 l0 582 ZM820 -98 q-53 0 -101 4 l-17 67 q50 -8 114 -8 q39 0 39 38 l0 798 l63 0 l0 -795 q0 -104 -98 -104 Z" /><glyph glyph-name="Identity.7973" unicode="&#x4f8d;" d="M768.5 -73 q-24.5 -25 -81.5 -25 q-57 0 -132 8 l-16 67 q89 -12 147 -12 q23 0 32 8 q9 8 9 30 l0 231 l-411 0 l0 59 l411 0 l0 86 l66 0 l0 -86 l152 0 l0 -59 l-152 0 l0 -228 q0 -54 -24.5 -79 ZM180 434 q-32 -60 -98 -145 l-31 74 q137 181 215 438 l66 -24 q-46 -128 -86 -214 l0 -665 l-66 0 l0 536 ZM543 20 q-73 76 -160 140 l47 43 q86 -63 160 -137 l-47 -46 ZM316 477 l282 0 l0 140 l-243 0 l0 59 l243 0 l0 125 l66 0 l0 -125 l242 0 l0 -59 l-242 0 l0 -140 l281 0 l0 -59 l-629 0 l0 59 Z" /><glyph glyph-name="Identity.7987" unicode="&#x4f9b;" d="M301 273 l148 0 l0 266 l-136 0 l0 59 l136 0 l0 203 l67 0 l0 -203 l199 0 l0 203 l66 0 l0 -203 l137 0 l0 -59 l-137 0 l0 -266 l149 0 l0 -58 l-629 0 l0 58 ZM285 -47 q126 84 223 219 l55 -39 q-95 -126 -235 -235 l-43 55 ZM172 438 q-35 -65 -94 -145 l-31 74 q132 178 211 434 l62 -24 q-40 -119 -82 -211 l0 -668 l-66 0 l0 540 ZM887 -102 q-101 132 -211 227 l47 43 q113 -98 215 -227 l-51 -43 ZM715 273 l0 266 l-199 0 l0 -266 l199 0 Z" /><glyph glyph-name="Identity.7989" unicode="&#x4f9d;" d="M410 -43 q24 23 24 47 l0 250 q-58 -70 -129 -129 l-39 51 q190 168 297 402 l-266 0 l0 59 l648 0 l0 -59 l-304 0 q10 -179 50 -273 q98 74 164 179 l55 -43 q-70 -96 -195 -199 q91 -192 238 -281 l-51 -51 q-277 207 -312 578 q-44 -86 -90 -156 l0 -324 l145 94 l19 -59 l-219 -145 l-35 59 ZM172 457 q-40 -68 -82 -117 l-39 58 q137 176 203 403 l62 -24 q-34 -108 -78 -199 l0 -680 l-66 0 l0 559 ZM629 652 q-65 73 -117 106 l47 43 q58 -39 121 -106 l-51 -43 Z" /><glyph glyph-name="Identity.7992" unicode="&#x4fa0;" d="M266 -47 q234 102 297 309 l-274 0 l0 54 l285 0 q8 72 8 289 l-266 0 l0 59 l266 0 l0 133 l66 0 l0 -133 l266 0 l0 -59 l-266 0 q0 -226 -3 -289 l296 0 l0 -54 l-285 0 q83 -227 301 -305 l-43 -59 q-220 95 -305 313 q-58 -194 -300 -313 l-43 55 ZM172 434 q-35 -65 -94 -145 l-31 70 q133 184 211 442 l62 -24 q-40 -123 -82 -214 l0 -665 l-66 0 l0 536 ZM453 355 q-51 97 -105 165 l50 35 q64 -76 110 -164 l-55 -36 ZM715 395 q68 70 121 160 l51 -35 q-57 -94 -121 -165 l-51 40 Z" /><glyph glyph-name="Identity.7995" unicode="&#x4fa3;" d="M180 438 q-31 -58 -98 -149 l-31 78 q144 180 222 434 l67 -24 q-52 -136 -94 -226 l0 -653 l-66 0 l0 540 ZM379 305 l535 0 l0 -407 l-66 0 l0 47 l-403 0 l0 -47 l-66 0 l0 407 ZM848 0 l0 250 l-403 0 l0 -250 l403 0 ZM414 750 l465 0 l0 -336 l-465 0 l0 336 ZM813 469 l0 226 l-333 0 l0 -226 l333 0 Z" /><glyph glyph-name="Identity.7997" unicode="&#x4fa5;" d="M828 328 q-55 0 -98 20 q-42 19 -109 78 q-122 -62 -289 -94 l-31 55 q167 27 285 86 q-49 64 -82 144 l-188 -31 l-11 59 l179 27 q-17 43 -35 117 l63 12 q10 -53 35 -117 l344 50 l11 -50 l-332 -55 q32 -78 75 -129 q96 57 171 125 l47 -39 q-84 -73 -179 -129 q24 -27 58.5 -46.5 q34.5 -19.5 62.5 -22.5 q25 -3 35.5 2 q10.5 5 18.5 27 q14 42 28 110 l57 -35 q-14 -57 -34 -108 q-20 -51 -82 -56 ZM176 457 q-38 -64 -86 -117 l-35 58 q136 175 207 403 l58 -24 q-34 -108 -78 -199 l0 -680 l-66 0 l0 559 ZM281 -51 q196 58 207 266 l-172 0 l0 55 l602 0 l0 -55 l-188 0 l0 -195 q0 -36 36 -36 l70 0 q34 0 39 36 q8 53 8 117 l66 -25 q-5 -64 -13 -114 q-12 -72 -91 -72 l-91 0 q-90 0 -90 90 l0 199 l-109 0 q-19 -249 -235 -317 l-39 51 Z" /><glyph glyph-name="Identity.7998" unicode="&#x4fa6;" d="M367 527 l207 0 l0 274 l63 0 l0 -110 l301 0 l0 -54 l-301 0 l0 -110 l230 0 l0 -414 l-62 0 l0 360 l-375 0 l0 -360 l-63 0 l0 414 ZM184 441 q-30 -52 -102 -148 l-31 66 q144 192 222 442 l63 -24 q-45 -119 -90 -214 l0 -665 l-62 0 l0 543 ZM277 -47 q309 97 309 320 l0 141 l62 0 l0 -156 q0 -238 -332 -360 l-39 55 ZM898 -102 q-111 100 -261 196 l43 43 q144 -93 265 -192 l-47 -47 Z" /><glyph glyph-name="Identity.7999" unicode="&#x4fa7;" d="M156 453 q-34 -66 -78 -117 l-31 62 q124 175 183 403 l59 -24 q-33 -117 -70 -203 l0 -676 l-63 0 l0 555 ZM617 -63 q-41 74 -125 158 l47 38 q76 -76 133 -156 l-55 -40 ZM254 -59 q184 121 184 340 l0 336 l62 0 l0 -344 q0 -234 -203 -378 l-43 46 ZM309 750 l320 0 l0 -578 l-63 0 l0 523 l-195 0 l0 -523 l-62 0 l0 578 ZM711 699 l63 0 l0 -582 l-63 0 l0 582 ZM820 -97 q-48 0 -89 4 l-16 67 q50 -8 106 -8 q34 0 34 35 l0 796 l63 0 l0 -796 q0 -98 -98 -98 Z" /><glyph glyph-name="Identity.8000" unicode="&#x4fa8;" d="M281 293 q181 83 242 203 l-222 0 l0 59 l246 0 q18 62 23 136 q-77 -7 -207 -7 l-15 58 q228 -4 500 47 l31 -55 q-136 -24 -242 -35 q-7 -73 -24 -144 l325 0 l0 -59 l-215 0 q66 -128 234 -199 l-39 -55 q-192 95 -266 254 l-58 0 q-68 -152 -270 -254 l-43 51 ZM289 -47 q176 51 176 211 l0 137 l66 0 l0 -149 q0 -184 -199 -254 l-43 55 ZM180 457 q-40 -60 -94 -117 l-35 58 q144 176 215 403 l62 -24 q-33 -103 -82 -199 l0 -680 l-66 0 l0 559 ZM711 301 l66 0 l0 -403 l-66 0 l0 403 Z" /><glyph glyph-name="Identity.8006" unicode="&#x4fae;" d="M706 -99 q-60 0 -112 4 l-16 63 q67 -8 120 -8 q24 0 35.5 1.5 q11.5 1.5 22.5 11 q11 9.5 14 29.5 q8 45 8 49 l-423 0 l26 226 l-96 0 l0 55 l104 0 l25 219 l446 0 q0 -135 -4 -219 l89 0 l0 -55 l-89 0 q-1 -37 -8 -172 l86 0 l0 -54 l-91 0 q-5 -43 -10 -64 q-11 -47 -42 -66.5 q-31 -19.5 -85 -19.5 ZM172 465 q-39 -71 -82 -121 l-39 58 q137 176 203 403 l59 -24 q-30 -104 -79 -199 l0 -684 l-62 0 l0 567 ZM785 105 q8 109 9 172 l-347 0 l-21 -172 l359 0 ZM648 121 q-53 54 -117 94 l39 39 q65 -33 121 -94 l-43 -39 ZM794 332 q4 80 4 164 l-325 0 l-22 -164 l343 0 ZM660 344 q-49 49 -117 97 l43 36 q62 -39 117 -90 l-43 -43 ZM285 551 q99 99 176 250 l62 -20 q-28 -53 -46 -82 l457 0 l0 -54 l-493 0 q-48 -78 -109 -137 l-47 43 Z" /><glyph glyph-name="Identity.8007" unicode="&#x4faf;" d="M285 -47 q220 71 281 223 l-257 0 l0 54 l273 0 q8 54 8 129 l-125 0 q-40 -64 -94 -113 l-47 47 q87 84 145 207 l61 -24 q-8 -25 -34 -62 l379 0 l0 -55 l-219 0 q0 -70 -8 -129 l278 0 l0 -54 l-270 0 q95 -168 293 -219 l-39 -59 q-195 63 -297 231 q-78 -149 -285 -231 l-43 55 ZM176 461 q-37 -62 -86 -121 l-39 58 q141 175 211 403 l62 -20 q-32 -101 -82 -203 l0 -680 l-66 0 l0 563 ZM313 578 l414 0 l11 121 l-347 0 l0 55 l418 0 l-16 -176 l133 0 l0 -55 l-613 0 l0 55 Z" /><glyph glyph-name="Identity.8013" unicode="&#x4fb5;" d="M293 -47 q174 27 285 86 q-69 62 -125 172 l-43 0 l0 55 l414 0 l0 -55 q-50 -101 -140 -172 q115 -63 265 -82 l-35 -59 q-176 32 -285 102 q-122 -74 -305 -102 l-31 55 ZM176 461 q-38 -68 -86 -121 l-35 58 q134 173 203 403 l62 -24 q-34 -105 -78 -195 l0 -684 l-66 0 l0 563 ZM633 74 q76 62 121 137 l-227 0 q31 -73 106 -137 ZM313 387 l613 0 l0 -149 l-67 0 l0 94 l-480 0 l0 -94 l-66 0 l0 149 ZM355 508 l434 0 l0 70 l-398 0 l0 55 l398 0 l0 66 l-426 0 l0 55 l492 0 l0 -301 l-500 0 l0 55 Z" /><glyph glyph-name="Identity.8023" unicode="&#x4fbf;" d="M277 -47 q195 24 250 74 q-74 51 -140 137 l47 35 q57 -81 132 -125 q27 56 32 156 l-231 0 l0 375 l231 0 l0 94 l-266 0 l0 55 l598 0 l0 -55 l-270 0 l0 -94 l231 0 l0 -375 l-231 0 q-5 -126 -39 -187 q155 -77 336 -82 l-31 -59 q-188 17 -344 90 q-89 -77 -277 -94 l-28 55 ZM176 465 q-38 -80 -90 -137 l-35 55 q125 173 195 414 l59 -20 q-30 -105 -67 -191 l0 -688 l-62 0 l0 567 ZM598 285 l0 106 l-168 0 l0 -106 l168 0 ZM598 445 l0 106 l-168 0 l0 -106 l168 0 ZM828 285 l0 106 l-168 0 l0 -106 l168 0 ZM828 445 l0 106 l-168 0 l0 -106 l168 0 Z" /><glyph glyph-name="Identity.8027" unicode="&#x4fc3;" d="M270 -59 q135 121 140 375 l67 -7 q-5 -85 -20 -157 q58 -120 152 -152 l0 418 l-211 0 l0 336 l481 0 l0 -336 l-203 0 l0 -156 l234 0 l0 -55 l-234 0 l0 -219 q120 -4 285 8 l-23 -66 q-144 -8 -250 -4 q-161 0 -254 144 q-43 -109 -114 -172 l-50 43 ZM176 438 q-30 -58 -98 -145 l-31 70 q137 181 215 438 l66 -24 q-47 -126 -86 -211 l0 -668 l-66 0 l0 540 ZM813 473 l0 226 l-348 0 l0 -226 l348 0 Z" /><glyph glyph-name="Identity.8028" unicode="&#x4fc4;" d="M859 -102 q-45 0 -89 47 q-42 43 -71 125 q-68 -51 -136 -90 l-40 51 q83 44 157 106 q-28 127 -28 324 l-144 0 l0 -160 l113 31 l8 -62 l-121 -32 l0 -241 q0 -99 -100 -99 q-42 0 -88 8 l-15 67 q71 -12 105 -12 q31 0 31 39 l0 219 l-140 -39 l-16 62 l156 39 l0 180 l-156 0 l0 59 l156 0 l0 164 q-54 -13 -105 -20 l-23 63 q142 15 285 58 l23 -55 q-46 -15 -113 -28 l0 -182 l144 0 l0 277 l67 0 l0 -277 l215 0 l0 -59 l-215 0 q0 -170 19 -277 q81 83 141 211 l51 -36 q-70 -143 -176 -246 q27 -96 74 -133 q19 -16 30.5 -12.5 q11.5 3.5 16.5 28.5 q11 55 16 160 l62 -28 q-3 -64 -15 -136 q-15 -94 -79 -94 ZM168 469 q-33 -67 -82 -129 l-39 58 q129 185 195 403 l63 -24 q-30 -88 -71 -183 l0 -696 l-66 0 l0 571 ZM879 582 q-56 80 -121 141 l47 39 q58 -55 125 -137 l-51 -43 Z" /><glyph glyph-name="Identity.8034" unicode="&#x4fca;" d="M285 -47 q168 34 293 113 q-58 51 -109 145 q-69 -66 -121 -98 l-43 39 q152 107 242 243 l55 -24 q-22 -36 -39 -58 l265 0 l0 -59 q-62 -117 -152 -191 q106 -71 273 -110 l-39 -55 q-163 44 -285 125 q-130 -79 -305 -125 l-35 55 ZM168 438 q-34 -64 -94 -149 l-27 74 q130 181 203 438 l63 -24 q-42 -127 -83 -214 l0 -665 l-62 0 l0 540 ZM625 98 q91 67 137 160 l-246 0 q32 -88 109 -160 ZM292 363 q136 56 224 129 l41 -40 q-140 -103 -229 -136 l-36 47 ZM896 316 q-108 81 -214 135 l37 42 q129 -64 219 -130 l-42 -47 ZM867 484 q-25 35 -49 59 l-466 -27 l-24 50 q149 110 235 235 l58 -31 q-103 -127 -195 -196 l351 20 q-26 33 -86 90 l47 35 q104 -104 180 -199 l-51 -36 Z" /><glyph glyph-name="Identity.8039" unicode="&#x4fcf;" d="M387 523 l234 0 l0 278 l67 0 l0 -278 l234 0 l0 -519 q0 -52 -23.5 -77 q-23.5 -25 -75.5 -25 q-71 0 -123 4 l-16 67 q78 -8 137 -8 q34 0 34 34 l0 138 l-402 0 l0 -239 l-66 0 l0 625 ZM188 438 q-39 -63 -102 -145 l-35 70 q147 174 230 438 l63 -24 q-45 -127 -90 -214 l0 -665 l-66 0 l0 540 ZM855 191 l0 114 l-402 0 l0 -114 l402 0 ZM855 359 l0 110 l-402 0 l0 -110 l402 0 ZM488 555 q-59 98 -133 175 l47 40 q89 -89 141 -176 l-55 -39 ZM762 590 q82 94 129 180 l54 -36 q-50 -87 -129 -179 l-54 35 Z" /><glyph glyph-name="Identity.8040" unicode="&#x4fd0;" d="M441 367 q-49 -131 -152 -265 l-43 58 q120 139 176 313 l-145 0 l0 62 l164 0 l0 168 q-70 -8 -121 -8 l-15 59 q185 5 304 35 l28 -55 q-67 -16 -133 -23 l0 -176 l156 0 l0 -62 l-156 0 l0 -114 l35 32 q80 -85 133 -157 l-47 -43 q-54 78 -121 149 l0 -442 l-63 0 l0 469 ZM168 469 q-33 -67 -82 -129 l-35 58 q126 177 187 403 l59 -24 q-33 -101 -67 -187 l0 -692 l-62 0 l0 571 ZM707 672 l63 0 l0 -555 l-63 0 l0 555 ZM816 -102 q-34 0 -120 6 l-16 67 q77 -12 132 -12 q47 0 47 49 l0 789 l63 0 l0 -787 q0 -112 -106 -112 Z" /><glyph glyph-name="Identity.8047" unicode="&#x4fd7;" d="M172 434 q-33 -61 -94 -141 l-31 74 q137 181 215 434 l62 -24 q-38 -117 -86 -214 l0 -665 l-66 0 l0 536 ZM402 270 l442 0 l0 -372 l-67 0 l0 39 l-308 0 l0 -39 l-67 0 l0 372 ZM777 -8 l0 223 l-308 0 l0 -223 l308 0 ZM281 320 q223 106 324 309 l67 -20 l-20 -35 q121 -172 301 -250 l-39 -58 q-184 88 -297 257 q-101 -152 -297 -257 l-39 54 ZM313 586 q114 79 199 215 l54 -35 q-92 -144 -207 -227 l-46 47 ZM871 543 q-108 140 -207 223 l47 35 q131 -108 211 -215 l-51 -43 Z" /><glyph glyph-name="Identity.8048" unicode="&#x4fd8;" d="M577 -99 q-65 0 -132 8 l-16 67 q96 -15 145 -15 q31 0 31 32 l0 167 l-289 0 l0 55 l289 0 l0 58 l172 114 l-410 0 l0 58 l512 0 l0 -54 l-207 -143 l0 -33 l277 0 l0 -55 l-277 0 l0 -165 q0 -94 -95 -94 ZM184 469 q-42 -63 -94 -129 l-39 58 q146 173 215 403 l62 -24 q-35 -102 -78 -191 l0 -688 l-66 0 l0 571 ZM440 473 q-29 72 -92 148 l54 31 q61 -74 94 -148 l-56 -31 ZM624 497 q-32 81 -84 148 l55 31 q55 -74 85 -149 l-56 -30 ZM332 742 q285 5 570 47 l28 -55 q-288 -36 -578 -46 l-20 54 ZM727 510 q75 78 128 175 l51 -33 q-60 -103 -133 -179 l-46 37 Z" /><glyph glyph-name="Identity.8053" unicode="&#x4fdd;" d="M582 215 q-90 -151 -269 -270 l-43 55 q170 90 289 285 l-266 0 l0 59 l289 0 l0 105 l-199 0 l0 301 l465 0 l0 -301 l-200 0 l0 -105 l290 0 l0 -59 l-270 0 q102 -183 285 -285 l-43 -55 q-179 114 -262 270 l0 -317 l-66 0 l0 317 ZM184 434 q-35 -61 -98 -141 l-35 62 q147 173 230 446 l59 -24 q-43 -120 -90 -214 l0 -665 l-66 0 l0 536 ZM781 504 l0 187 l-332 0 l0 -187 l332 0 Z" /><glyph glyph-name="Identity.8057" unicode="&#x4fe1;" d="M180 453 q-29 -56 -110 -152 l-27 70 q151 192 234 434 l63 -20 q-54 -145 -94 -226 l0 -661 l-66 0 l0 555 ZM398 227 l473 0 l0 -329 l-66 0 l0 39 l-340 0 l0 -39 l-67 0 l0 329 ZM805 -8 l0 180 l-340 0 l0 -180 l340 0 ZM395 375 l480 0 l0 -55 l-480 0 l0 55 ZM395 523 l480 0 l0 -54 l-480 0 l0 54 ZM332 672 l301 0 q-29 39 -90 90 l47 39 q50 -34 101 -94 l-43 -35 l293 0 l0 -55 l-609 0 l0 55 Z" /><glyph glyph-name="Identity.8065" unicode="&#x4fe9;" d="M328 551 l172 0 l0 137 l-203 0 l0 54 l648 0 l0 -54 l-203 0 l0 -137 l172 0 l0 -560 q0 -41 -24 -64.5 q-24 -23.5 -65 -23.5 q-62 0 -114 4 l-16 63 q78 -10 125 -10 q32 0 32 35 l0 501 l-110 0 q-4 -105 -15 -168 q79 -95 117 -172 l-47 -39 q-46 93 -90 145 q-34 -115 -113 -223 l-50 43 q133 159 140 414 l-125 0 q-5 -75 -12 -133 q49 -41 82 -97 l-43 -51 q-22 53 -55 82 q-19 -116 -78 -223 l-51 39 q91 154 98 383 l-109 0 l0 -598 l-63 0 l0 653 ZM156 457 q-32 -61 -74 -121 l-35 66 q125 172 183 399 l59 -20 q-32 -110 -70 -203 l0 -680 l-63 0 l0 559 ZM684 551 l0 137 l-125 0 l0 -137 l125 0 Z" /><glyph glyph-name="Identity.8069" unicode="&#x4fed;" d="M180 449 q-29 -51 -106 -148 l-31 66 q151 199 234 438 l63 -20 q-55 -142 -94 -222 l0 -665 l-66 0 l0 551 ZM402 47 q-33 147 -74 262 l59 23 q44 -123 78 -262 l-63 -23 ZM289 -8 l387 0 q77 180 121 356 l62 -28 q-48 -166 -113 -328 l192 0 l0 -58 l-649 0 l0 58 ZM578 78 q-27 148 -70 258 l62 19 q40 -115 71 -253 l-63 -24 ZM402 457 l411 0 l0 -59 l-411 0 l0 59 ZM277 480 q211 129 313 325 l70 -12 l-19 -35 q113 -164 316 -274 l-43 -54 q-215 137 -312 277 q-96 -154 -286 -277 l-39 50 Z" /><glyph glyph-name="Identity.8070" unicode="&#x4fee;" d="M383 422 q146 32 238 86 q-68 54 -113 117 q-30 -41 -78 -94 l-47 43 q105 106 160 227 l62 -20 q-17 -32 -35 -62 l297 0 l0 -51 q-55 -99 -140 -160 q81 -54 230 -86 l-31 -59 q-146 39 -250 106 q-107 -61 -262 -106 l-31 59 ZM160 461 q-32 -61 -82 -121 l-35 62 q129 172 195 399 l63 -20 q-36 -102 -78 -203 l0 -680 l-63 0 l0 563 ZM375 -47 q292 46 512 235 l39 -47 q-219 -185 -516 -243 l-35 55 ZM297 684 l62 0 l0 -590 l-62 0 l0 590 ZM402 109 q219 43 411 192 l35 -47 q-184 -145 -418 -199 l-28 54 ZM426 273 q178 41 308 137 l39 -47 q-149 -101 -316 -144 l-31 54 ZM676 539 q76 60 121 129 l-250 0 q47 -70 129 -129 Z" /><glyph glyph-name="Identity.8071" unicode="&#x4fef;" d="M242 -66 q94 143 94 406 l0 363 l281 0 q-20 38 -47 74 l59 28 q28 -39 59 -102 l257 0 l0 -55 l-547 0 l0 -308 q0 -273 -101 -445 l-55 39 ZM160 438 q-27 -56 -90 -141 l-31 70 q133 187 207 434 l59 -24 q-45 -126 -82 -214 l0 -665 l-63 0 l0 540 ZM504 313 q-23 -38 -55 -86 l-39 54 q106 152 160 336 l59 -19 q-27 -91 -63 -164 l0 -536 l-62 0 l0 415 ZM691 113 q-20 66 -74 185 l55 26 q46 -90 78 -183 l-59 -28 ZM764 -99 q-47 0 -103 4 l-16 63 q70 -8 124 -8 q32 0 32 35 l0 407 l-207 0 l0 55 l207 0 l0 152 l62 0 l0 -152 l86 0 l0 -55 l-86 0 l0 -411 q0 -90 -99 -90 Z" /><glyph glyph-name="Identity.8073" unicode="&#x4ff1;" d="M285 184 l90 0 l0 578 l480 0 l0 -578 l98 0 l0 -51 l-668 0 l0 51 ZM277 -47 q141 63 254 164 l47 -43 q-120 -108 -265 -176 l-36 55 ZM168 434 q-32 -63 -94 -145 l-31 70 q137 188 215 442 l58 -24 q-45 -126 -82 -214 l0 -665 l-66 0 l0 536 ZM898 -98 q-100 89 -242 168 l43 43 q133 -72 242 -160 l-43 -51 ZM789 184 l0 94 l-348 0 l0 -94 l348 0 ZM789 329 l0 94 l-348 0 l0 -94 l348 0 ZM789 474 l0 93 l-348 0 l0 -93 l348 0 ZM789 618 l0 93 l-348 0 l0 -93 l348 0 Z" /><glyph glyph-name="Identity.8082" unicode="&#x4ffa;" d="M684 -82 q-106 0 -106 94 l0 90 l-144 0 l0 -51 l-63 0 l0 387 q-31 -21 -74 -43 l-35 54 q161 78 234 184 l-183 0 l0 55 l214 0 q23 47 43 117 l59 -16 l-35 -101 l332 0 l0 -55 l-199 0 q77 -121 230 -184 l-39 -54 q-36 18 -70 39 l0 -332 l-207 0 l0 -82 q0 -43 43 -43 l134 0 q22 0 33 8.5 q11 8.5 18 31.5 q15 55 20 93 l60 -36 q-9 -43 -23 -84 q-13 -39 -38 -55.5 q-25 -16.5 -70 -16.5 l-134 0 ZM172 441 q-39 -62 -98 -140 l-31 66 q141 175 219 434 l58 -24 q-46 -128 -86 -214 l0 -665 l-62 0 l0 543 ZM578 156 l0 90 l-144 0 l0 -90 l144 0 ZM578 301 l0 86 l-144 0 l0 -86 l144 0 ZM785 156 l0 90 l-144 0 l0 -90 l144 0 ZM785 301 l0 86 l-144 0 l0 -86 l144 0 ZM578 441 l0 94 l63 0 l0 -94 l195 0 q-113 80 -176 192 l-94 0 q-61 -106 -191 -192 l203 0 Z" /><glyph glyph-name="Identity.8101" unicode="&#x500d;" d="M180 453 q-28 -51 -106 -152 l-31 66 q151 199 234 438 l63 -20 q-54 -138 -94 -219 l0 -668 l-66 0 l0 555 ZM383 258 l492 0 l0 -360 l-66 0 l0 32 l-360 0 l0 -32 l-66 0 l0 360 ZM809 -16 l0 219 l-360 0 l0 -219 l360 0 ZM516 438 q-40 63 -102 125 l51 35 q58 -58 105 -125 l-54 -35 ZM309 418 l339 0 q80 86 129 180 l63 -32 q-53 -76 -113 -148 l222 0 l0 -55 l-640 0 l0 55 ZM344 684 l258 0 q-30 51 -67 93 l59 28 q49 -56 82 -121 l238 0 l0 -55 l-570 0 l0 55 Z" /><glyph glyph-name="Identity.8106" unicode="&#x5012;" d="M254 -8 l184 35 l0 170 l-141 0 l0 55 l141 0 l0 158 l-145 -15 l-20 43 q100 152 133 250 l-117 0 l0 54 l367 0 l0 -54 l-179 0 q-58 -129 -125 -231 l199 20 q-25 56 -51 101 l55 27 q67 -124 101 -222 l-62 -28 q-12 43 -28 71 l-66 -8 l0 -166 l141 0 l0 -55 l-141 0 l0 -158 l164 31 l0 -54 l-387 -79 l-23 55 ZM152 465 q-40 -75 -78 -125 l-39 58 q125 173 192 395 l58 -20 q-33 -106 -70 -191 l0 -680 l-63 0 l0 563 ZM815 -96 q-67 0 -126 4 l-21 63 q78 -8 146 -8 q23 0 32 11 q9 11 9 40 l0 787 l63 0 l0 -782 q0 -61 -23.5 -88 q-23.5 -27 -79.5 -27 ZM707 707 l63 0 l0 -582 l-63 0 l0 582 Z" /><glyph glyph-name="Identity.8108" unicode="&#x5014;" d="M250 -63 q102 149 102 426 l0 395 l562 0 l0 -219 l-500 0 l0 -176 q0 -307 -113 -468 l-51 42 ZM168 441 q-27 -59 -94 -148 l-27 74 q130 186 203 434 l63 -24 q-47 -132 -83 -214 l0 -665 l-62 0 l0 543 ZM852 -63 l-383 0 l0 251 l62 0 l0 -196 l129 0 l0 242 l-172 0 l0 227 l63 0 l0 -172 l109 0 l0 219 l63 0 l0 -219 l109 0 l0 172 l63 0 l0 -227 l-172 0 l0 -242 l129 0 l0 196 l62 0 l0 -282 l-62 0 l0 31 ZM852 594 l0 109 l-438 0 l0 -109 l438 0 Z" /><glyph glyph-name="Identity.8112" unicode="&#x5018;" d="M344 527 l254 0 l0 274 l62 0 l0 -274 l254 0 l0 -521 q0 -104 -105 -104 q-64 0 -121 4 l-16 63 q75 -8 138 -8 q42 0 42 40 l0 472 l-446 0 l0 -575 l-62 0 l0 629 ZM172 441 q-28 -56 -94 -144 l-31 70 q129 173 207 434 l59 -24 q-42 -121 -79 -211 l0 -668 l-62 0 l0 543 ZM500 363 l258 0 l0 -285 l-258 0 l0 285 ZM695 133 l0 176 l-132 0 l0 -176 l132 0 ZM477 563 q-69 95 -141 164 l47 35 q72 -69 144 -160 l-50 -39 ZM727 602 q101 82 156 156 l51 -39 q-81 -91 -164 -160 l-43 43 Z" /><glyph glyph-name="Identity.8113" unicode="&#x5019;" d="M363 -51 q203 74 262 227 l-207 0 l0 54 l223 0 q7 48 7 129 l-101 0 q-33 -57 -70 -105 l-47 39 q69 88 113 211 l59 -20 q-15 -42 -28 -70 l324 0 l0 -55 l-187 0 q0 -75 -8 -129 l235 0 l0 -54 l-227 0 q78 -164 242 -223 l-39 -55 q-176 83 -242 231 q-68 -145 -270 -231 l-39 51 ZM168 445 q-28 -64 -94 -152 l-27 74 q126 178 199 434 l59 -24 q-35 -113 -75 -207 l0 -672 l-62 0 l0 547 ZM313 676 l62 0 l0 -590 l-62 0 l0 590 ZM422 582 l348 0 l7 121 l-297 0 l0 55 l364 0 l-12 -176 l106 0 l0 -55 l-516 0 l0 55 Z" /><glyph glyph-name="Identity.8114" unicode="&#x501a;" d="M745 -97 q-79 0 -124 4 l-17 67 q91 -8 141 -8 q24 0 34 11 q10 11 10 38 l0 356 l-492 0 l0 55 l648 0 l0 -55 l-90 0 l0 -362 q0 -106 -110 -106 ZM176 438 q-34 -62 -98 -149 l-31 74 q137 177 215 438 l66 -24 q-47 -126 -86 -211 l0 -668 l-66 0 l0 540 ZM371 289 l293 0 l0 -234 l-226 0 l0 -55 l-67 0 l0 289 ZM598 109 l0 125 l-160 0 l0 -125 l160 0 ZM328 504 q168 39 238 148 l-230 0 l0 55 l250 0 q11 37 16 94 l66 0 q-4 -55 -12 -94 l258 0 l0 -55 l-273 0 q-5 -8 -12 -27 q133 -39 266 -121 l-40 -51 q-99 71 -257 129 q-85 -89 -231 -133 l-39 55 Z" /><glyph glyph-name="Identity.8119" unicode="&#x501f;" d="M180 449 q-29 -55 -106 -144 l-31 62 q151 192 234 438 l63 -20 q-55 -142 -94 -222 l0 -665 l-66 0 l0 551 ZM809 -16 l0 125 l-356 0 l0 -125 l356 0 ZM387 340 l488 0 l0 -442 l-66 0 l0 32 l-356 0 l0 -32 l-66 0 l0 442 ZM809 164 l0 121 l-356 0 l0 -121 l356 0 ZM727 480 l0 149 l-188 0 l0 -149 l188 0 ZM313 480 l160 0 l0 149 l-137 0 l0 55 l137 0 l0 117 l66 0 l0 -117 l188 0 l0 117 l66 0 l0 -117 l133 0 l0 -55 l-133 0 l0 -149 l156 0 l0 -54 l-636 0 l0 54 Z" /><glyph glyph-name="Identity.8121" unicode="&#x5021;" d="M180 453 q-28 -50 -110 -152 l-27 70 q151 192 234 434 l63 -20 q-55 -142 -94 -222 l0 -665 l-66 0 l0 555 ZM836 -4 l0 109 l-418 0 l0 -109 l418 0 ZM352 313 l550 0 l0 -415 l-66 0 l0 47 l-418 0 l0 -47 l-66 0 l0 415 ZM836 156 l0 106 l-418 0 l0 -106 l418 0 ZM797 453 l0 102 l-344 0 l0 -102 l344 0 ZM387 754 l476 0 l0 -352 l-476 0 l0 352 ZM797 605 l0 98 l-344 0 l0 -98 l344 0 Z" /><glyph glyph-name="Identity.8126" unicode="&#x5026;" d="M516 -82 q-46 0 -70 24.5 q-24 24.5 -24 69.5 l0 230 q-56 -42 -109 -74 l-47 51 q156 90 207 176 l-196 0 l0 54 l227 0 q24 49 35 90 l-207 0 l0 55 l223 0 q23 94 27 207 l66 -4 q-8 -113 -27 -203 l270 0 l0 -55 l-282 0 q-16 -55 -31 -90 l363 0 l0 -54 l-203 0 q77 -105 215 -172 l-47 -55 q-70 44 -129 90 q0 -50 -4 -112 q-3 -45 -24 -66 q-21 -21 -73 -21 q-50 0 -86 7 l-16 59 q58 -10 95 -10 q36 0 39 34 q3 33 3 85 l-223 0 l0 -216 q0 -26 11 -35.5 q11 -9.5 38 -9.5 l228 0 q38 0 47 34 q11 42 16 102 l62 -32 q-7 -45 -15 -76 q-9 -38 -32 -60.5 q-23 -22.5 -73 -22.5 l-254 0 ZM168 438 q-33 -67 -94 -149 l-31 74 q133 174 211 438 l62 -24 q-45 -126 -82 -214 l0 -665 l-66 0 l0 540 ZM746 289 q-46 46 -86 106 l-109 0 q-35 -59 -82 -106 l277 0 ZM453 617 q-47 74 -98 125 l51 35 q54 -48 102 -121 l-55 -39 ZM711 656 q60 52 98 121 l54 -35 q-43 -70 -101 -125 l-51 39 Z" /><glyph glyph-name="Identity.8146" unicode="&#x503a;" d="M172 441 q-34 -59 -98 -148 l-31 74 q132 178 211 434 l62 -24 q-46 -124 -82 -211 l0 -668 l-62 0 l0 543 ZM273 -43 q321 46 321 242 l0 63 l62 0 l0 -67 q0 -229 -351 -297 l-32 59 ZM906 -102 q-110 77 -250 133 l35 47 q148 -61 254 -125 l-39 -55 ZM375 352 l500 0 l0 -282 l-62 0 l0 227 l-375 0 l0 -231 l-63 0 l0 286 ZM301 477 l293 0 l0 70 l-207 0 l0 55 l207 0 l0 70 l-258 0 l0 55 l258 0 l0 74 l62 0 l0 -74 l262 0 l0 -55 l-262 0 l0 -70 l207 0 l0 -55 l-207 0 l0 -70 l293 0 l0 -55 l-648 0 l0 55 Z" /><glyph glyph-name="Identity.8148" unicode="&#x503c;" d="M281 -20 l94 0 l0 583 l191 0 l12 97 l-273 0 l0 55 l277 0 l8 90 l66 -8 l-8 -82 l270 0 l0 -55 l-273 0 l-12 -97 l215 0 l0 -583 l97 0 l0 -50 l-664 0 l0 50 ZM164 434 q-32 -63 -94 -145 l-27 78 q130 176 203 434 l63 -24 q-45 -126 -82 -214 l0 -665 l-63 0 l0 536 ZM781 -20 l0 98 l-343 0 l0 -98 l343 0 ZM781 129 l0 94 l-343 0 l0 -94 l343 0 ZM781 277 l0 90 l-343 0 l0 -90 l343 0 ZM781 418 l0 90 l-343 0 l0 -90 l343 0 Z" /><glyph glyph-name="Identity.8150" unicode="&#x503e;" d="M535 570 l137 0 q16 73 27 137 l-199 0 l0 55 l453 0 l0 -55 l-191 0 q-13 -74 -28 -137 l184 0 l0 -441 l-63 0 l0 387 l-257 0 l0 -391 l-63 0 l0 445 ZM156 461 q-32 -68 -74 -121 l-35 62 q117 173 180 403 l58 -20 q-31 -102 -66 -199 l0 -688 l-63 0 l0 563 ZM449 -51 q246 102 246 317 l0 191 l63 0 l0 -199 q0 -235 -266 -363 l-43 54 ZM289 74 q24 20 24 47 l0 676 l62 0 l0 -270 l121 0 l0 -58 l-121 0 l0 -348 l125 78 l0 -66 l-176 -117 l-35 58 ZM910 -102 q-70 94 -168 192 l43 39 q94 -82 176 -188 l-51 -43 Z" /><glyph glyph-name="Identity.8159" unicode="&#x5047;" d="M164 441 q-33 -61 -94 -144 l-27 70 q130 176 203 434 l59 -24 q-38 -119 -78 -214 l0 -665 l-63 0 l0 543 ZM328 754 l258 0 l0 -289 l-195 0 l0 -113 l187 0 l0 -55 l-187 0 l0 -121 l199 0 l0 -55 l-199 0 l0 -223 l-63 0 l0 856 ZM512 -47 q132 58 207 125 q-71 94 -90 246 l-27 0 l0 55 l308 0 l0 -55 q-27 -144 -109 -250 q61 -73 160 -125 l-47 -51 q-90 51 -160 133 q-88 -76 -203 -133 l-39 55 ZM762 121 q57 81 86 203 l-157 0 q19 -119 71 -203 ZM523 520 l0 179 l-132 0 l0 -179 l132 0 ZM625 520 l211 0 l0 179 l-211 0 l0 55 l273 0 l0 -289 l-273 0 l0 55 Z" /><glyph glyph-name="Identity.8166" unicode="&#x504e;" d="M363 -55 q20 17 20 47 l0 266 l-94 0 l0 55 l668 0 l0 -55 l-344 0 q33 -92 94 -149 q78 44 152 121 l43 -46 q-78 -70 -156 -114 q86 -74 219 -113 l-39 -55 q-301 114 -375 356 l-106 0 l0 -281 l184 82 l8 -55 l-239 -109 l-35 50 ZM176 449 q-36 -65 -102 -148 l-31 66 q153 209 223 434 l58 -24 q-46 -128 -86 -214 l0 -665 l-62 0 l0 551 ZM598 441 l0 102 l-168 0 l0 -102 l168 0 ZM598 598 l0 101 l-168 0 l0 -101 l168 0 ZM367 754 l524 0 l0 -367 l-524 0 l0 367 ZM828 441 l0 102 l-168 0 l0 -102 l168 0 ZM828 598 l0 101 l-168 0 l0 -101 l168 0 Z" /><glyph glyph-name="Identity.8167" unicode="&#x504f;" d="M246 -47 q86 142 86 395 l0 359 l262 0 q-20 40 -51 74 l62 20 q37 -40 63 -94 l246 0 l0 -227 l-519 0 l0 -148 q0 -258 -98 -422 l-51 43 ZM164 441 q-32 -61 -90 -144 l-31 70 q128 174 199 434 l59 -24 q-33 -111 -74 -211 l0 -668 l-63 0 l0 543 ZM586 191 l0 141 l-82 0 l0 -141 l82 0 ZM445 387 l477 0 l0 -415 q0 -35 -15 -53 q-15 -18 -56 -18 q-16 0 -43 3 l-16 59 q27 -3 52 -3 q19 0 19 20 l0 157 l-82 0 l0 -196 l-58 0 l0 196 l-78 0 l0 -196 l-59 0 l0 196 l-82 0 l0 -239 l-59 0 l0 489 ZM723 191 l0 141 l-78 0 l0 -141 l78 0 ZM863 191 l0 141 l-82 0 l0 -141 l82 0 ZM852 535 l0 117 l-457 0 l0 -117 l457 0 Z" /><glyph glyph-name="Identity.8178" unicode="&#x505a;" d="M570 -56 q104 81 168 201 q-53 120 -82 293 q-15 -37 -43 -79 l-43 55 q98 159 133 387 l59 -16 q-18 -99 -32 -148 l223 0 l0 -59 l-62 0 q-12 -274 -82 -433 q66 -120 140 -199 l-49 -48 q-87 116 -127 184 q-58 -99 -159 -187 l-44 49 ZM164 438 q-32 -65 -94 -141 l-27 70 q132 183 203 434 l59 -24 l-78 -214 l0 -665 l-63 0 l0 540 ZM523 74 l0 227 l-148 0 l0 -227 l148 0 ZM313 359 l105 0 l0 204 l-137 0 l0 58 l137 0 l0 180 l62 0 l0 -180 l137 0 l0 -58 l-137 0 l0 -204 l106 0 l0 -371 l-63 0 l0 28 l-148 0 l0 -71 l-62 0 l0 414 ZM773 219 q52 138 59 359 l-117 0 q-11 -25 -16 -43 q24 -193 74 -316 Z" /><glyph glyph-name="Identity.8180" unicode="&#x505c;" d="M172 445 q-32 -60 -98 -152 l-31 74 q132 174 211 434 l62 -24 q-45 -126 -82 -214 l0 -665 l-62 0 l0 547 ZM576 -102 q-62 0 -111 4 l-16 59 q69 -7 125 -7 q31 0 31 30 l0 164 l-203 0 l0 51 l446 0 l0 -51 l-180 0 l0 -164 q0 -44 -21 -65 q-21 -21 -71 -21 ZM305 340 l636 0 l0 -145 l-62 0 l0 94 l-512 0 l0 -94 l-62 0 l0 145 ZM383 590 l472 0 l0 -184 l-472 0 l0 184 ZM793 457 l0 82 l-348 0 l0 -82 l348 0 ZM316 707 l262 0 q-13 27 -47 74 l63 24 q26 -38 54 -98 l286 0 l0 -51 l-618 0 l0 51 Z" /><glyph glyph-name="Identity.8189" unicode="&#x5065;" d="M246 -63 q80 57 125 137 q-56 102 -66 250 l54 20 q17 -140 47 -207 q27 56 35 261 l-140 0 l0 55 l125 227 l-129 0 l0 54 l191 0 l0 -58 l-121 -223 l133 0 l0 -55 q-7 -236 -55 -320 q78 -105 211 -105 q141 0 309 7 l-27 -58 q-95 -4 -290 -4 q-148 0 -238 102 q-44 -63 -117 -129 l-47 46 ZM160 441 q-27 -53 -86 -140 l-31 66 q121 175 195 434 l59 -24 q-30 -85 -74 -207 l0 -672 l-63 0 l0 543 ZM680 117 l-164 0 l0 51 l164 0 l0 84 l-145 0 l0 51 l145 0 l0 80 l-129 0 l0 51 l129 0 l0 89 l-160 0 l0 51 l160 0 l0 86 l-129 0 l0 51 l129 0 l0 90 l62 0 l0 -90 l153 0 l0 -137 l54 0 l0 -51 l-54 0 l0 -140 l-153 0 l0 -80 l160 0 l0 -51 l-160 0 l0 -84 l180 0 l0 -51 l-180 0 l0 -105 l-62 0 l0 105 ZM832 434 l0 89 l-90 0 l0 -89 l90 0 ZM832 574 l0 86 l-90 0 l0 -86 l90 0 Z" /><glyph glyph-name="Identity.8206" unicode="&#x5076;" d="M316 305 l270 0 l0 86 l-231 0 l0 363 l524 0 l0 -363 l-231 0 l0 -86 l266 0 l0 -303 q0 -101 -106 -101 q-72 0 -120 4 l-16 63 q75 -8 139 -8 q23 0 32 9.5 q9 9.5 9 29.5 l0 251 l-204 0 l0 -125 l79 8 q-14 37 -28 66 l55 20 q37 -84 66 -176 l-58 -23 q-14 40 -20 62 l-304 -35 l-16 56 l164 14 l0 133 l-207 0 l0 -352 l-63 0 l0 407 ZM168 441 q-31 -57 -94 -140 l-31 66 q132 174 211 434 l62 -20 q-47 -135 -86 -218 l0 -665 l-62 0 l0 543 ZM586 445 l0 102 l-168 0 l0 -102 l168 0 ZM586 602 l0 97 l-168 0 l0 -97 l168 0 ZM816 445 l0 102 l-168 0 l0 -102 l168 0 ZM816 602 l0 97 l-168 0 l0 -97 l168 0 Z" /><glyph glyph-name="Identity.8207" unicode="&#x5077;" d="M168 441 q-33 -65 -94 -140 l-31 66 q132 178 211 434 l62 -24 q-46 -128 -86 -214 l0 -665 l-62 0 l0 543 ZM328 438 l274 0 l0 -457 q0 -83 -79 -83 q-34 0 -62 4 l-16 59 q31 -4 68 -4 q26 0 26 28 l0 105 l-148 0 l0 -192 l-63 0 l0 540 ZM539 145 l0 93 l-148 0 l0 -93 l148 0 ZM539 293 l0 90 l-148 0 l0 -90 l148 0 ZM684 414 l62 0 l0 -348 l-62 0 l0 348 ZM785 -102 q-39 0 -78 4 l-16 61 q59 -6 99 -6 q38 0 38 39 l0 465 l63 0 l0 -474 q0 -89 -106 -89 ZM742 574 q-90 68 -144 141 q-62 -72 -149 -141 l293 0 ZM254 523 q205 95 340 286 l58 -28 l-19 -23 q121 -140 324 -235 l-39 -50 q-94 48 -152 86 l0 -39 l-336 0 l0 39 q-67 -50 -133 -86 l-43 50 Z" /><glyph glyph-name="Identity.8215" unicode="&#x507f;" d="M168 445 q-28 -60 -94 -144 l-31 66 q132 174 211 434 l59 -24 q-42 -127 -83 -214 l0 -665 l-62 0 l0 547 ZM867 -98 q-24 37 -51 71 l-476 -43 l-20 54 q110 86 203 231 l-210 0 l0 55 l613 0 l0 -55 l-391 0 l47 -27 q-93 -126 -172 -196 l371 31 q-33 46 -97 114 l46 35 q113 -119 188 -235 l-51 -35 ZM395 434 l445 0 l0 -55 l-445 0 l0 55 ZM445 629 q-38 55 -101 105 l47 39 q66 -54 105 -105 l-51 -39 ZM305 617 l281 0 l0 184 l62 0 l0 -184 l282 0 l0 -191 l-63 0 l0 137 l-500 0 l0 -141 l-62 0 l0 195 ZM738 660 q57 57 90 113 l55 -31 q-40 -63 -94 -117 l-51 35 Z" /><glyph glyph-name="Identity.8216" unicode="&#x5080;" d="M273 -59 q215 141 282 348 l-207 0 l0 399 l168 0 q34 54 54 117 l67 -20 q-27 -55 -51 -97 l301 0 l0 -399 l-266 0 q-4 -14 -19 -55 l58 0 l0 -218 q0 -24 10 -33.5 q10 -9.5 33 -9.5 l113 0 q25 0 38 8 q13 8 20 28 q14 45 21 124 l57 -29 q-15 -88 -30 -127 q-22 -59 -97 -59 l-136 0 q-91 0 -91 89 l0 212 q-78 -196 -278 -324 l-47 46 ZM172 441 q-33 -59 -98 -144 l-31 66 q137 177 215 438 l62 -20 q-46 -137 -86 -218 l0 -665 l-62 0 l0 543 ZM570 344 q11 55 16 121 l-176 0 l0 -121 l160 0 ZM824 23 q-10 44 -11 47 l-122 -27 l-19 39 q44 78 66 184 l51 -20 q-33 -95 -55 -144 l67 11 q-8 32 -20 55 l47 20 q23 -54 43 -145 l-47 -20 ZM586 520 l0 113 l-176 0 l0 -113 l176 0 ZM824 344 l0 121 l-176 0 q-3 -62 -15 -121 l191 0 ZM824 520 l0 113 l-176 0 l0 -113 l176 0 Z" /><glyph glyph-name="Identity.8221" unicode="&#x5085;" d="M344 586 l250 0 l0 66 l-293 0 l0 51 l293 0 l0 98 l62 0 l0 -98 l166 0 q-22 22 -76 55 l39 35 q44 -17 86 -59 l-33 -31 l111 0 l0 -51 l-293 0 l0 -66 l250 0 l0 -371 l-62 0 l0 74 l-188 0 l0 -74 l-62 0 l0 74 l-188 0 l0 -74 l-62 0 l0 371 ZM530 -31 q-49 47 -126 89 l37 40 q70 -35 131 -87 l-42 -42 ZM164 453 q-35 -63 -98 -148 l-31 66 q137 181 215 438 l59 -24 q-44 -123 -82 -215 l0 -672 l-63 0 l0 555 ZM711 -102 q-61 0 -113 4 l-16 64 q66 -9 133 -9 q21 0 30 8 q9 8 9 30 l0 118 l-453 0 l0 51 l453 0 l0 63 l62 0 l0 -63 l133 0 l0 -51 l-133 0 l0 -118 q0 -52 -25.5 -74.5 q-25.5 -22.5 -79.5 -22.5 ZM594 340 l0 74 l-188 0 l0 -74 l188 0 ZM594 465 l0 70 l-188 0 l0 -70 l188 0 ZM844 340 l0 74 l-188 0 l0 -74 l188 0 ZM844 465 l0 70 l-188 0 l0 -70 l188 0 Z" /><glyph glyph-name="Identity.8229" unicode="&#x508d;" d="M258 -55 q101 49 150 111 q49 62 49 145 l0 76 l-176 0 l0 55 l324 0 q-23 36 -66 74 l51 35 q41 -36 74 -78 l-39 -31 l324 0 l0 -55 l-429 0 l0 -82 l328 0 q0 -114 -9 -184 q-13 -109 -115 -109 q-97 0 -145 4 l-16 63 q89 -9 152 -9 q51 0 57 48 q9 70 9 133 l-265 0 q-40 -168 -215 -243 l-43 47 ZM172 453 q-31 -57 -102 -148 l-31 66 q137 186 215 438 l62 -24 q-40 -119 -82 -211 l0 -676 l-62 0 l0 555 ZM313 512 l175 0 q-21 37 -66 82 l51 31 q38 -35 74 -86 l-39 -27 l168 0 q41 48 74 117 l63 -27 q-37 -57 -67 -90 l180 0 l0 -137 l-63 0 l0 82 l-488 0 l0 -82 l-62 0 l0 137 ZM316 695 l293 0 q-26 33 -74 75 l51 35 q50 -42 82 -78 l-39 -32 l289 0 l0 -54 l-602 0 l0 54 Z" /><glyph glyph-name="Identity.8256" unicode="&#x50a8;" d="M555 262 q-43 -35 -78 -55 l-39 47 q156 97 250 184 l-208 0 l0 54 l168 0 l0 133 l-136 0 l0 55 l136 0 l0 121 l63 0 l0 -121 l98 0 l0 -55 l-98 0 l0 -133 l27 0 q99 112 160 227 l51 -31 q-73 -126 -136 -196 l136 0 l0 -54 l-183 0 q-47 -50 -102 -94 l215 0 l0 -446 l-63 0 l0 36 l-199 0 l0 -36 l-62 0 l0 364 ZM164 449 q-28 -64 -94 -152 l-27 70 q121 184 199 442 l59 -24 q-33 -108 -74 -207 l0 -680 l-63 0 l0 551 ZM324 0 q28 19 28 66 l0 372 l-86 0 l0 54 l148 0 l0 -433 l94 62 l8 -58 l-153 -114 l-39 51 ZM816 -12 l0 125 l-199 0 l0 -125 l199 0 ZM816 168 l0 121 l-199 0 l0 -121 l199 0 ZM402 578 q-40 87 -97 168 l50 31 q53 -73 102 -164 l-55 -35 Z" /><glyph glyph-name="Identity.8260" unicode="&#x50ac;" d="M379 328 q-26 -32 -86 -98 l-35 59 q122 109 195 270 l59 -24 q-19 -42 -51 -94 l215 0 q-33 38 -90 79 l43 39 q69 -45 101 -86 l-39 -32 l254 0 l0 -50 l-230 0 l0 -98 l211 0 l0 -51 l-211 0 l0 -101 l211 0 l0 -51 l-211 0 l0 -102 l238 0 l0 -51 l-512 0 l0 -39 l-62 0 l0 430 ZM168 449 q-34 -67 -98 -152 l-31 66 q137 203 215 446 l62 -24 q-45 -127 -86 -215 l0 -672 l-62 0 l0 551 ZM652 -12 l0 102 l-211 0 l0 -102 l211 0 ZM652 141 l0 101 l-211 0 l0 -101 l211 0 ZM652 293 l0 98 l-211 0 l0 -98 l211 0 ZM352 770 l62 0 l0 -145 l191 0 l0 180 l63 0 l0 -180 l191 0 l0 145 l63 0 l0 -196 l-570 0 l0 196 Z" /><glyph glyph-name="Identity.8266" unicode="&#x50b2;" d="M574 -55 q105 74 172 188 q-73 151 -90 328 l-31 -55 l-43 51 q102 161 141 348 l62 -16 q-22 -92 -51 -164 l223 0 l0 -59 l-66 0 q-4 -253 -75 -433 q64 -112 145 -188 l-51 -47 q-76 84 -129 172 q-53 -88 -164 -175 l-43 50 ZM152 441 q-27 -55 -82 -136 l-31 66 q120 189 191 438 l63 -24 q-38 -114 -78 -211 l0 -676 l-63 0 l0 543 ZM236 -59 q49 53 75.5 114 q26.5 61 35.5 147 q5 53 5 146 l-94 0 l0 54 l148 0 l0 90 l-117 0 l0 55 l117 0 l0 90 l-133 0 l0 54 l133 0 l0 114 l63 0 l0 -114 l140 0 l0 -54 l-140 0 l0 -90 l117 0 l0 -55 l-117 0 l0 -90 l144 0 l0 -54 l-199 0 q0 -55 -4 -94 l168 0 q-2 -140 -9 -251 q-4 -50 -28 -69.5 q-24 -19.5 -69 -19.5 q-42 0 -74 4 l-15 61 q54 -8 89 -8 q32 0 36 35 q8 78 8 193 l-110 0 q-19 -189 -121 -301 l-49 43 ZM781 203 q42 138 47 363 l-117 0 l-8 -15 q24 -223 78 -348 Z" /><glyph glyph-name="Identity.8275" unicode="&#x50bb;" d="M262 -51 q182 31 304 90 q-54 39 -105 90 q-50 -38 -125 -78 l-39 47 q157 83 258 215 l54 -32 q-20 -24 -43 -47 l274 0 l0 -54 q-58 -77 -168 -145 q111 -55 285 -82 l-31 -55 q-153 24 -309 102 q-151 -74 -324 -102 l-31 51 ZM164 445 q-28 -56 -94 -144 l-31 66 q129 185 207 442 l63 -24 q-44 -123 -82 -215 l0 -672 l-63 0 l0 547 ZM273 266 q117 38 211 113 l43 -39 q-81 -69 -218 -125 l-36 51 ZM617 70 q89 45 145 110 l-246 0 l-12 -12 q46 -54 113 -98 ZM906 219 q-97 66 -218 109 l35 47 q113 -43 222 -105 l-39 -51 ZM746 453 q-56 43 -117 78 q-74 -41 -176 -74 l-31 43 q94 27 156 63 q-87 43 -125 58 l39 35 q66 -28 137 -66 q52 23 101 66 l43 -35 q-48 -40 -93 -62 q43 -25 105 -67 l-39 -39 ZM840 441 l0 227 l-449 0 l0 -227 l449 0 ZM328 723 l192 0 q30 48 46 90 l67 -16 q-17 -35 -43 -74 l312 0 l0 -336 l-574 0 l0 336 Z" /><glyph glyph-name="Identity.8295" unicode="&#x50cf;" d="M621 -102 q-30 0 -86 4 l-15 62 q56 -7 99 -7 q49 0 53 39 q8 72 -4 129 q-115 -108 -336 -191 l-39 46 q222 74 359 204 q-10 29 -23 54 q-109 -86 -297 -156 l-39 47 q181 56 309 160 q-15 25 -36 43 q-127 -82 -242 -105 l-35 46 q166 36 262 118 l-168 0 l0 172 l-55 -43 l-39 46 q138 98 223 239 l58 -20 q-14 -29 -35 -55 l274 0 l0 -54 l-82 -82 l175 0 l0 -203 l-273 0 l-16 -20 q67 -85 90 -148 q90 54 168 132 l43 -42 q-62 -57 -98 -83 q44 -157 141 -242 l-47 -51 q-98 102 -144 258 q-13 -9 -44 -28 q19 -95 13 -168 q-7 -101 -114 -101 ZM184 461 q-33 -55 -110 -152 l-31 62 q157 204 242 438 l63 -20 q-65 -156 -102 -223 l0 -668 l-62 0 l0 563 ZM590 445 q15 40 27 94 l-172 0 l0 -94 l145 0 ZM648 594 l79 82 l-235 0 q-33 -42 -78 -82 l234 0 ZM840 445 l0 94 l-156 0 q-12 -57 -28 -94 l184 0 Z" /><glyph glyph-name="Identity.8306" unicode="&#x50da;" d="M543 -102 q-43 0 -78 4 l-16 63 q46 -8 97 -8 q20 0 28 8.5 q8 8.5 8 28.5 l0 162 l-203 0 l0 254 q-43 -22 -82 -39 l-39 55 q95 32 168 94 q-45 42 -106 78 l39 43 q52 -30 110 -78 q49 49 70 97 l-242 0 l0 51 l262 0 q14 56 19 90 l67 -4 l-20 -86 l301 0 l0 -51 l-227 0 q24 -61 71 -105 q45 30 101 82 l43 -43 q-56 -44 -105 -78 q77 -62 156 -94 l-39 -51 q-39 17 -78 43 l0 -258 l-203 0 l0 -172 q0 -86 -102 -86 ZM266 -27 q128 72 187 152 l51 -39 q-77 -89 -195 -160 l-43 47 ZM160 449 q-27 -58 -94 -152 l-27 74 q130 193 203 438 l63 -24 q-46 -124 -82 -211 l0 -676 l-63 0 l0 551 ZM785 207 l0 74 l-344 0 l0 -74 l344 0 ZM891 -70 q-88 103 -168 160 l47 35 q105 -78 171 -156 l-50 -39 ZM785 332 l0 70 l-344 0 l0 -70 l344 0 ZM793 453 q-116 89 -160 207 l-28 0 q-59 -126 -167 -207 l355 0 Z" /><glyph glyph-name="Identity.8319" unicode="&#x50e7;" d="M324 668 l160 0 q-33 53 -82 102 l47 35 q56 -52 90 -106 l-39 -31 l184 0 q41 52 86 133 l58 -31 q-36 -55 -74 -102 l164 0 l0 -313 l-594 0 l0 313 ZM172 449 q-34 -65 -98 -152 l-31 70 q132 186 211 442 l62 -24 q-41 -117 -82 -207 l0 -680 l-62 0 l0 551 ZM813 -16 l0 102 l-383 0 l0 -102 l383 0 ZM367 285 l508 0 l0 -387 l-62 0 l0 36 l-383 0 l0 -36 l-63 0 l0 387 ZM813 137 l0 97 l-383 0 l0 -97 l383 0 ZM590 406 l0 211 l-203 0 l0 -211 l203 0 ZM492 438 q-27 70 -58 113 l46 31 q35 -50 63 -113 l-51 -31 ZM855 406 l0 211 l-203 0 l0 -211 l203 0 ZM691 465 q37 56 67 117 l55 -27 q-43 -80 -71 -117 l-51 27 Z" /><glyph glyph-name="Identity.8333" unicode="&#x50f5;" d="M160 445 q-34 -58 -94 -144 l-27 70 q130 186 203 438 l59 -24 q-38 -117 -78 -215 l0 -672 l-63 0 l0 547 ZM285 -35 l672 0 l0 -43 l-672 0 l0 43 ZM586 63 l0 62 l-164 0 l0 -62 l164 0 ZM586 168 l0 59 l-164 0 l0 -59 l164 0 ZM359 270 l516 0 l0 -250 l-516 0 l0 250 ZM813 63 l0 62 l-165 0 l0 -62 l165 0 ZM813 168 l0 59 l-165 0 l0 -59 l165 0 ZM301 367 l637 0 l0 -43 l-637 0 l0 43 ZM586 465 l0 58 l-164 0 l0 -58 l164 0 ZM586 566 l0 55 l-164 0 l0 -55 l164 0 ZM359 664 l516 0 l0 -242 l-516 0 l0 242 ZM813 465 l0 58 l-165 0 l0 -58 l165 0 ZM813 566 l0 55 l-165 0 l0 -55 l165 0 ZM313 758 l617 0 l0 -43 l-617 0 l0 43 Z" /><glyph glyph-name="Identity.8339" unicode="&#x50fb;" d="M227 -12 q62 150 62 414 l0 360 l270 0 l0 -301 l-207 0 l0 -117 q0 -187 -71 -403 l-54 47 ZM145 445 q-32 -69 -86 -148 l-28 70 q118 186 188 442 l54 -24 q-31 -115 -66 -211 l0 -676 l-62 0 l0 547 ZM375 332 l191 0 l0 -398 l-62 0 l0 62 l-66 0 l0 -78 l-63 0 l0 414 ZM504 47 l0 230 l-66 0 l0 -230 l66 0 ZM738 129 l-133 0 l0 55 l133 0 l0 144 l-148 0 l0 55 l171 0 q57 103 82 203 l58 -27 q-35 -103 -78 -176 l126 0 l0 -55 l-148 0 l0 -144 l133 0 l0 -55 l-133 0 l0 -231 l-63 0 l0 231 ZM496 520 l0 183 l-144 0 l0 -183 l144 0 ZM691 406 q-22 88 -56 153 l51 23 q39 -70 58 -152 l-53 -24 ZM602 672 l140 0 q-12 42 -47 105 l55 24 q30 -55 57 -129 l123 0 l0 -55 l-328 0 l0 55 Z" /><glyph glyph-name="Identity.8362" unicode="&#x5112;" d="M320 215 l219 0 l23 78 l-289 0 l0 47 l676 0 l0 -47 l-320 0 l-24 -78 l293 0 l0 -241 q0 -39 -17.5 -57 q-17.5 -18 -59.5 -18 q-24 0 -51 3 l-15 55 q35 -6 57 -6 q13 0 18.5 5 q5.5 5 5.5 20 l0 192 l-109 0 l0 -242 l-63 0 l0 242 l-109 0 l0 -242 l-63 0 l0 242 l-109 0 l0 -270 l-63 0 l0 317 ZM156 441 q-27 -63 -90 -140 l-27 74 q130 188 203 434 l59 -24 q-39 -122 -82 -215 l0 -672 l-63 0 l0 543 ZM359 445 l172 0 l0 -47 l-172 0 l0 47 ZM398 543 l133 0 l0 -47 l-133 0 l0 47 ZM574 594 l-219 0 l0 -121 l-62 0 l0 168 l281 0 l0 66 l-250 0 l0 47 l563 0 l0 -47 l-250 0 l0 -66 l285 0 l0 -168 l-63 0 l0 121 l-222 0 l0 -215 l-63 0 l0 215 ZM680 445 l172 0 l0 -47 l-172 0 l0 47 ZM680 543 l136 0 l0 -47 l-136 0 l0 47 Z" /><glyph glyph-name="Identity.8377" unicode="&#x5121;" d="M145 441 q-30 -64 -82 -144 l-28 74 q118 186 188 438 l58 -24 q-33 -102 -74 -215 l0 -672 l-62 0 l0 543 ZM398 -16 l0 121 l-54 0 l0 -121 l54 0 ZM512 -16 l0 121 l-55 0 l0 -121 l55 0 ZM281 328 l293 0 l0 -430 l-62 0 l0 36 l-168 0 l0 -36 l-63 0 l0 430 ZM398 156 l0 121 l-54 0 l0 -121 l54 0 ZM512 156 l0 121 l-55 0 l0 -121 l55 0 ZM754 -16 l0 121 l-55 0 l0 -121 l55 0 ZM867 -16 l0 121 l-54 0 l0 -121 l54 0 ZM641 328 l289 0 l0 -430 l-63 0 l0 36 l-168 0 l0 -36 l-58 0 l0 430 ZM754 156 l0 121 l-55 0 l0 -121 l55 0 ZM574 453 l0 106 l-172 0 l0 -106 l172 0 ZM867 156 l0 121 l-54 0 l0 -121 l54 0 ZM574 609 l0 98 l-172 0 l0 -98 l172 0 ZM340 758 l531 0 l0 -356 l-531 0 l0 356 ZM809 453 l0 106 l-172 0 l0 -106 l172 0 ZM809 609 l0 98 l-172 0 l0 -98 l172 0 Z" /><glyph glyph-name="Identity.8407" unicode="&#x513f;" d="M688 -82 q-106 0 -106 109 l0 774 l66 0 l0 -777 q0 -22 13 -34.5 q13 -12.5 36 -12.5 l102 0 q49 0 60 50 q18 90 18 211 l72 -33 q-6 -111 -25 -201 q-17 -86 -128 -86 l-108 0 ZM47 -43 q230 164 230 484 l0 360 l67 0 l0 -379 q0 -332 -246 -531 l-51 66 Z" /><glyph glyph-name="Identity.8409" unicode="&#x5141;" d="M55 -27 q277 61 277 300 l0 118 l-219 -16 l-31 66 q220 137 359 360 l67 -35 q-135 -194 -305 -317 l551 32 q-65 70 -145 132 l57 50 q138 -117 264 -268 l-59 -55 q-40 57 -72 86 l-151 -12 l0 -375 q0 -59 51 -59 l106 0 q51 0 58 44 q6 42 12 144 l66 -29 q-3 -68 -13 -127 q-16 -94 -119 -94 l-106 0 q-121 0 -121 121 l0 371 l-184 -15 l0 -133 q0 -259 -304 -356 l-39 67 Z" /><glyph glyph-name="Identity.8411" unicode="&#x5143;" d="M51 -43 q269 107 269 363 l0 106 l-257 0 l0 54 l882 0 l0 -54 l-300 0 l0 -399 q0 -21 11 -34 q11 -13 32 -13 l125 0 q48 0 59 48 q15 67 24 175 l59 -29 q-14 -115 -23 -151 q-22 -97 -131 -97 l-113 0 q-110 0 -110 101 l0 399 l-191 0 l0 -102 q0 -298 -289 -422 l-47 55 ZM160 750 l688 0 l0 -55 l-688 0 l0 55 Z" /><glyph glyph-name="Identity.8412" unicode="&#x5144;" d="M55 -39 q285 66 285 277 l0 102 l-192 0 l0 406 l707 0 l0 -406 l-195 0 l0 -313 q0 -50 51 -50 l114 0 q44 0 51 42 q7 46 7 122 l62 -24 q-3 -65 -11 -113 q-13 -82 -110 -82 l-117 0 q-113 0 -113 109 l0 309 l-188 0 l0 -110 q0 -242 -316 -332 l-35 63 ZM789 395 l0 296 l-574 0 l0 -296 l574 0 Z" /><glyph glyph-name="Identity.8413" unicode="&#x5145;" d="M55 -31 q277 58 277 273 l0 106 l-195 -8 l-28 58 q99 41 258 215 l-304 0 l0 55 l438 0 q-20 25 -95 88 l43 45 q66 -46 110 -98 l-36 -35 l411 0 l0 -55 l-559 0 l51 -35 q-112 -116 -199 -176 l511 20 q-17 20 -113 114 l53 42 q116 -108 220 -234 l-54 -49 q-21 34 -59 72 l-137 -8 l0 -332 q0 -54 51 -54 l106 0 q51 0 58 43 q7 50 12 129 l66 -29 q-3 -46 -16 -113 q-24 -85 -116 -85 l-113 0 q-55 0 -84.5 28 q-29.5 28 -29.5 79 l0 330 l-184 -7 l0 -118 q0 -235 -304 -320 l-39 59 Z" /><glyph glyph-name="Identity.8414" unicode="&#x5146;" d="M667 -78 q-128 0 -128 130 l0 749 l66 0 l0 -750 q0 -71 67 -71 l124 0 q33 0 48 10.5 q15 10.5 21 41.5 q12 63 18 136 l66 -31 q-4 -46 -19 -118 q-10 -47 -37.5 -72 q-27.5 -25 -93.5 -25 l-132 0 ZM47 -43 q263 107 285 359 l-254 -136 l-31 62 l289 145 l0 414 l66 0 l0 -434 q0 -324 -308 -461 l-47 51 ZM230 434 q-85 111 -152 179 l43 51 q88 -88 160 -180 l-51 -50 ZM857 184 q-103 70 -216 117 l35 62 q110 -46 219 -117 l-38 -62 ZM660 484 q100 78 172 176 l55 -47 q-77 -98 -176 -179 l-51 50 Z" /><glyph glyph-name="Identity.8416" unicode="&#x5148;" d="M55 -27 q277 58 277 269 l0 94 l-273 0 l0 59 l414 0 l0 187 l-238 0 q-28 -69 -75 -148 l-58 43 q88 140 133 293 l66 -28 q-21 -58 -39 -101 l211 0 l0 152 l66 0 l0 -152 l328 0 l0 -59 l-328 0 l0 -187 l402 0 l0 -59 l-289 0 l0 -305 q0 -54 52 -54 l114 0 q47 0 53 46 q7 62 10 126 l68 -24 q-6 -64 -13 -114 q-12 -89 -110 -89 l-121 0 q-62 0 -90.5 25.5 q-28.5 25.5 -28.5 80.5 l0 308 l-188 0 l0 -94 q0 -117 -77 -202 q-77 -85 -227 -126 l-39 59 Z" /><glyph glyph-name="Identity.8417" unicode="&#x5149;" d="M55 -35 q277 58 277 281 l0 117 l-266 0 l0 59 l399 0 l0 379 l66 0 l0 -379 l403 0 l0 -59 l-282 0 l0 -339 q0 -27 12.5 -39 q12.5 -12 40.5 -12 l112 0 q25 0 37 9.5 q12 9.5 17 32.5 q11 52 16 134 l63 -28 q-6 -71 -19 -128 q-18 -79 -112 -79 l-122 0 q-111 0 -111 113 l0 336 l-188 0 l0 -124 q0 -243 -304 -337 l-39 63 ZM313 445 q-88 130 -180 227 l55 47 q91 -102 179 -227 l-54 -47 ZM617 496 q112 92 199 223 l55 -43 q-85 -134 -207 -231 l-47 51 Z" /><glyph glyph-name="Identity.8419" unicode="&#x514b;" d="M54 -34 q274 44 294 249 l-176 0 l0 293 l293 0 l0 125 l-391 0 l0 55 l391 0 l0 113 l66 0 l0 -113 l391 0 l0 -55 l-391 0 l0 -125 l289 0 l0 -293 l-187 0 l0 -199 q0 -51 51 -51 l115 0 q54 0 64 45 q11 54 14 127 l68 -28 q-6 -56 -19 -113 q-20 -86 -119 -86 l-135 0 q-106 0 -106 98 l0 207 l-152 0 q-19 -250 -332 -317 l-28 68 ZM754 270 l0 183 l-516 0 l0 -183 l516 0 Z" /><glyph glyph-name="Identity.8421" unicode="&#x514d;" d="M63 -43 q285 90 363 281 l-254 0 l0 262 l-78 -62 l-43 54 q163 112 297 317 l66 -28 q-32 -44 -55 -70 l364 0 l0 -55 l-114 -121 l227 0 l0 -297 l-340 0 q-86 -230 -398 -340 l-35 59 ZM445 293 q17 83 24 187 l-231 0 l0 -187 l207 0 ZM633 -78 q-62 0 -91.5 26.5 q-29.5 26.5 -29.5 84.5 l0 166 l66 0 l0 -164 q0 -58 67 -58 l167 0 q54 0 62 45 q11 58 17 136 l66 -28 q-5 -48 -19 -121 q-18 -87 -112 -87 l-193 0 ZM520 535 l117 121 l-317 0 q-50 -62 -113 -121 l313 0 ZM770 293 l0 187 l-235 0 q-7 -86 -23 -187 l258 0 Z" /><glyph glyph-name="Identity.8425" unicode="&#x5151;" d="M43 -43 q297 66 312 316 l-207 0 l0 344 l418 0 q82 85 129 184 l61 -34 q-61 -99 -111 -150 l203 0 l0 -344 l-200 0 l0 -253 q0 -47 54 -47 l118 0 q50 0 57 53 q10 85 10 142 l66 -27 q-6 -79 -17 -135 q-17 -88 -110 -88 l-138 0 q-106 0 -106 98 l0 257 l-160 0 q-27 -293 -332 -371 l-47 55 ZM781 328 l0 235 l-566 0 l0 -235 l566 0 ZM371 637 q-52 67 -124 123 l46 45 q64 -51 129 -124 l-51 -44 Z" /><glyph glyph-name="Identity.8428" unicode="&#x5154;" d="M59 -43 q285 90 363 281 l-254 0 l0 262 l-78 -62 l-43 54 q165 113 301 317 l62 -28 q-26 -42 -51 -70 l360 0 l0 -55 l-114 -121 l227 0 l0 -297 l-340 0 q-86 -230 -398 -340 l-35 59 ZM441 293 q17 83 24 187 l-231 0 l0 -187 l207 0 ZM626 -82 q-118 0 -118 108 l0 173 l66 0 l0 -169 q0 -30 14.5 -43.5 q14.5 -13.5 49.5 -13.5 l167 0 q54 0 65 47 q13 56 17 144 l66 -29 q-6 -75 -21 -135 q-10 -40 -36.5 -61 q-26.5 -21 -82.5 -21 l-187 0 ZM766 47 q-42 42 -130 112 l40 44 q82 -62 137 -113 l-47 -43 ZM516 535 l117 121 l-317 0 q-50 -62 -113 -121 l313 0 ZM766 293 l0 187 l-235 0 q-7 -86 -23 -187 l258 0 Z" /><glyph glyph-name="Identity.8434" unicode="&#x515a;" d="M47 -47 q281 35 301 250 l-129 0 l0 258 l570 0 l0 -258 l-137 0 l0 -191 q0 -47 50 -47 l124 0 q25 0 36 10.5 q11 10.5 16 33.5 q9 47 9 92 l68 -31 q-8 -60 -16 -90 q-18 -70 -114 -70 l-134 0 q-105 0 -105 98 l0 195 l-172 0 q-17 -254 -328 -308 l-39 58 ZM723 258 l0 148 l-438 0 l0 -148 l438 0 ZM313 621 q-68 65 -158 113 l47 47 q89 -49 161 -109 l-50 -51 ZM82 609 l387 0 l0 192 l66 0 l0 -192 l391 0 l0 -203 l-67 0 l0 149 l-711 0 l0 -149 l-66 0 l0 203 ZM641 672 q93 50 156 109 l51 -51 q-80 -64 -160 -109 l-47 51 Z" /><glyph glyph-name="Identity.8436" unicode="&#x515c;" d="M340 707 l98 0 q13 35 31 102 l70 -16 q-14 -45 -31 -86 l148 0 l0 -391 l-316 0 l0 391 ZM47 -35 q297 46 297 308 l66 0 q0 -307 -324 -378 l-39 70 ZM78 320 q20 20 20 47 l0 340 q76 22 168 74 l35 -54 q-54 -33 -141 -55 l0 -317 l121 43 l20 -58 l-192 -74 l-31 54 ZM694 -82 q-57 0 -82.5 24 q-25.5 24 -25.5 74 l0 257 l66 0 l0 -250 q0 -50 50 -50 l122 0 q42 0 52 42 q11 48 14 104 l65 -30 q-4 -49 -17 -97 q-21 -74 -111 -74 l-133 0 ZM594 371 l0 113 l-192 0 l0 -113 l192 0 ZM594 539 l0 113 l-192 0 l0 -113 l192 0 ZM707 355 l129 0 l0 333 l-129 0 l0 54 l191 0 l0 -441 l-191 0 l0 54 Z" /><glyph glyph-name="Identity.8442" unicode="&#x5162;" d="M422 -47 q187 102 187 309 l-89 0 l0 258 l156 0 l0 109 l-180 0 l0 55 l180 0 l0 117 l62 0 l0 -117 l188 0 l0 -55 l-188 0 l0 -109 l157 0 l0 -258 l-102 0 l0 -250 q0 -32 31 -32 l27 0 q25 0 31 40 q11 69 12 140 l55 -24 q-5 -77 -13 -133 q-12 -81 -84 -81 l-36 0 q-86 0 -86 82 l0 258 l-58 0 q0 -230 -207 -364 l-43 55 ZM43 -43 q133 85 133 305 l-78 0 l0 258 l140 0 l0 109 l-172 0 l0 55 l172 0 l0 117 l63 0 l0 -117 l164 0 l0 -55 l-164 0 l0 -109 l144 0 l0 -258 l-86 0 l0 -215 l106 86 l8 -67 l-172 -132 l-43 50 q39 20 39 55 l0 223 l-59 0 q0 -242 -156 -360 l-39 55 ZM383 316 l0 149 l-223 0 l0 -149 l223 0 ZM832 316 l0 149 l-250 0 l0 -149 l250 0 Z" /><glyph glyph-name="Identity.8445" unicode="&#x5165;" d="M55 -39 q299 211 406 621 q-63 117 -168 180 l47 47 q148 -95 234 -321 q145 -367 375 -523 l-47 -63 q-251 197 -402 590 q-102 -359 -398 -590 l-47 59 Z" /><glyph glyph-name="Identity.8448" unicode="&#x5168;" d="M70 -12 l395 0 l0 180 l-289 0 l0 55 l289 0 l0 160 l-266 0 l0 55 l606 0 l0 -55 l-274 0 l0 -160 l301 0 l0 -55 l-301 0 l0 -180 l395 0 l0 -54 l-856 0 l0 54 ZM43 488 q270 114 434 317 l82 -12 q-12 -14 -24 -31 q152 -172 426 -274 l-39 -62 q-265 112 -426 293 q-169 -176 -414 -293 l-39 62 Z" /><glyph glyph-name="Identity.8451" unicode="&#x516b;" d="M891 -86 q-258 266 -293 859 l66 8 q32 -578 281 -804 l-54 -63 ZM55 -27 q247 262 269 808 l67 -8 q-20 -547 -282 -863 l-54 63 Z" /><glyph glyph-name="Identity.8452" unicode="&#x516c;" d="M797 -109 q-19 52 -43 86 l-594 -40 l-23 63 q177 142 328 438 l58 -36 q-132 -250 -289 -394 l481 27 q-57 87 -145 180 l63 43 q130 -142 230 -317 l-66 -50 ZM51 375 q216 162 316 422 l59 -31 q-111 -272 -328 -446 l-47 55 ZM902 328 q-245 163 -343 442 l62 27 q85 -262 324 -406 l-43 -63 Z" /><glyph glyph-name="Identity.8453" unicode="&#x516d;" d="M875 -102 q-112 220 -297 442 l59 43 q178 -212 301 -434 l-63 -51 ZM39 -47 q191 152 293 426 l66 -35 q-92 -249 -308 -442 l-51 51 ZM51 551 l898 0 l0 -59 l-898 0 l0 59 ZM512 598 q-59 93 -137 164 l59 43 q84 -89 140 -164 l-62 -43 Z" /><glyph glyph-name="Identity.8456" unicode="&#x5170;" d="M82 590 l273 0 q-41 89 -101 156 l59 43 q67 -79 113 -156 l-63 -43 l207 0 q80 97 141 203 l62 -39 q-45 -93 -113 -164 l258 0 l0 -55 l-836 0 l0 55 ZM51 23 l898 0 l0 -54 l-898 0 l0 54 ZM168 328 l664 0 l0 -55 l-664 0 l0 55 Z" /><glyph glyph-name="Identity.8457" unicode="&#x5171;" d="M51 266 l234 0 l0 281 l-195 0 l0 55 l195 0 l0 191 l67 0 l0 -191 l296 0 l0 191 l67 0 l0 -191 l199 0 l0 -55 l-199 0 l0 -281 l238 0 l0 -55 l-902 0 l0 55 ZM47 -39 q171 73 312 211 l51 -51 q-147 -140 -312 -223 l-51 63 ZM898 -102 q-138 115 -304 215 l47 55 q157 -93 308 -203 l-51 -67 ZM648 266 l0 281 l-296 0 l0 -281 l296 0 Z" /><glyph glyph-name="Identity.8459" unicode="&#x5173;" d="M47 -35 q340 109 406 336 l-394 0 l0 58 l398 0 l0 188 l-344 0 l0 58 l235 0 q-64 99 -129 161 l58 35 q79 -72 137 -156 l-55 -40 l219 0 q76 96 129 196 l66 -31 q-48 -91 -109 -165 l223 0 l0 -58 l-364 0 l0 -188 l415 0 l0 -58 l-411 0 q109 -253 422 -336 l-47 -63 q-304 106 -414 321 q-73 -196 -394 -321 l-47 63 Z" /><glyph glyph-name="Identity.8460" unicode="&#x5174;" d="M55 -51 q178 124 297 293 l58 -39 q-122 -165 -301 -301 l-54 47 ZM262 402 q-84 179 -153 305 l59 35 q84 -152 156 -301 l-62 -39 ZM51 355 l894 0 l0 -58 l-894 0 l0 58 ZM879 -98 q-134 150 -293 293 l55 47 q139 -135 297 -293 l-59 -47 ZM500 441 q-47 182 -105 332 l66 24 q62 -166 109 -336 l-70 -20 ZM648 426 q118 147 184 336 l66 -32 q-72 -182 -187 -343 l-63 39 Z" /><glyph glyph-name="Identity.8461" unicode="&#x5175;" d="M51 234 l152 0 l0 512 q369 5 625 47 l27 -59 q-273 -38 -585 -46 l0 -165 l632 0 l0 -58 l-214 0 l0 -231 l261 0 l0 -58 l-898 0 l0 58 ZM59 -37 q162 59 289 174 l43 -51 q-139 -115 -296 -185 l-36 62 ZM887 -102 q-136 104 -285 188 l43 51 q156 -90 285 -180 l-43 -59 ZM621 234 l0 231 l-351 0 l0 -231 l351 0 Z" /><glyph glyph-name="Identity.8462" unicode="&#x5176;" d="M55 184 l160 0 l0 453 l-141 0 l0 54 l141 0 l0 110 l66 0 l0 -110 l438 0 l0 110 l66 0 l0 -110 l141 0 l0 -54 l-141 0 l0 -453 l160 0 l0 -55 l-890 0 l0 55 ZM55 -39 q158 46 316 137 l39 -55 q-175 -97 -320 -141 l-35 59 ZM719 184 l0 113 l-438 0 l0 -113 l438 0 ZM914 -98 q-165 79 -328 137 l35 59 q164 -62 332 -137 l-39 -59 ZM719 352 l0 117 l-438 0 l0 -117 l438 0 ZM719 523 l0 114 l-438 0 l0 -114 l438 0 Z" /><glyph glyph-name="Identity.8463" unicode="&#x5177;" d="M55 168 l121 0 l0 602 l652 0 l0 -602 l121 0 l0 -55 l-894 0 l0 55 ZM66 -43 q181 46 329 137 l43 -55 q-169 -95 -340 -144 l-32 62 ZM762 168 l0 98 l-520 0 l0 -98 l520 0 ZM902 -102 q-158 78 -336 133 l39 55 q173 -58 333 -129 l-36 -59 ZM762 320 l0 94 l-520 0 l0 -94 l520 0 ZM762 469 l0 94 l-520 0 l0 -94 l520 0 ZM762 617 l0 98 l-520 0 l0 -98 l520 0 Z" /><glyph glyph-name="Identity.8464" unicode="&#x5178;" d="M55 191 l86 0 l0 477 l214 0 l0 133 l67 0 l0 -133 l152 0 l0 133 l67 0 l0 -133 l218 0 l0 -477 l86 0 l0 -54 l-890 0 l0 54 ZM55 -43 q186 56 332 148 l47 -54 q-175 -102 -344 -153 l-35 59 ZM355 191 l0 184 l-148 0 l0 -184 l148 0 ZM895 -98 q-152 70 -336 149 l39 54 q176 -71 336 -144 l-39 -59 ZM574 191 l0 184 l-152 0 l0 -184 l152 0 ZM355 430 l0 183 l-148 0 l0 -183 l148 0 ZM793 191 l0 184 l-152 0 l0 -184 l152 0 ZM574 430 l0 183 l-152 0 l0 -183 l152 0 ZM793 430 l0 183 l-152 0 l0 -183 l152 0 Z" /><glyph glyph-name="Identity.8467" unicode="&#x517b;" d="M43 180 q206 49 309 152 l-293 0 l0 55 l336 0 q18 29 35 97 l-301 0 l0 55 l312 0 q8 54 8 86 l-355 0 l0 55 l250 0 q-35 39 -90 86 l47 39 q53 -38 97 -90 l-35 -35 l215 0 q52 51 98 125 l58 -32 q-39 -54 -78 -93 l242 0 l0 -55 l-386 0 q0 -32 -8 -86 l355 0 l0 -55 l-363 0 q-7 -58 -27 -97 l469 0 l0 -55 l-282 0 q107 -113 297 -152 l-39 -55 q-230 66 -336 207 l-144 0 q-95 -129 -352 -207 l-39 55 ZM113 -63 q109 36 168 110 q39 47 39 172 l67 0 q0 -141 -51 -203 q-55 -82 -188 -125 l-35 46 ZM613 219 l67 0 l0 -321 l-67 0 l0 321 Z" /><glyph glyph-name="Identity.8468" unicode="&#x517c;" d="M336 141 q-96 -138 -258 -223 l-35 62 q152 75 258 211 l-176 0 l0 55 l211 0 l0 94 l-277 0 l0 55 l277 0 l0 93 l-211 0 l0 55 l211 0 l0 94 l-270 0 l0 54 l258 0 q-15 31 -54 75 l58 43 q48 -65 78 -118 l164 0 q52 57 86 114 l59 -39 q-34 -50 -59 -75 l289 0 l0 -54 l-328 0 l0 -94 l215 0 l0 -148 l121 0 l0 -55 l-121 0 l0 -149 l-180 0 q122 -144 301 -207 l-31 -66 q-180 78 -305 227 l0 -247 l-66 0 l0 293 l-149 0 l0 -293 l-66 0 l0 243 ZM551 246 l0 94 l-149 0 l0 -94 l149 0 ZM551 395 l0 93 l-149 0 l0 -93 l149 0 ZM766 246 l0 94 l-149 0 l0 -94 l149 0 ZM551 543 l0 94 l-149 0 l0 -94 l149 0 ZM766 395 l0 93 l-149 0 l0 -93 l149 0 Z" /><glyph glyph-name="Identity.8469" unicode="&#x517d;" d="M133 684 l199 0 l-78 93 l59 28 q65 -59 109 -121 l156 0 q71 59 117 121 l67 -28 q-34 -48 -86 -93 l195 0 l0 -340 l-738 0 l0 340 ZM164 152 l676 0 l0 -254 l-67 0 l0 36 l-543 0 l0 -36 l-66 0 l0 254 ZM773 -16 l0 118 l-543 0 l0 -118 l543 0 ZM55 277 l890 0 l0 -50 l-890 0 l0 50 ZM469 395 l0 93 l-270 0 l0 -93 l270 0 ZM469 539 l0 94 l-270 0 l0 -94 l270 0 ZM805 395 l0 93 l-270 0 l0 -93 l270 0 ZM805 539 l0 94 l-270 0 l0 -94 l270 0 Z" /><glyph glyph-name="Identity.8472" unicode="&#x5180;" d="M55 102 l261 0 l0 70 l-218 0 l0 47 l218 0 l0 54 l-164 0 l0 266 l700 0 l0 -266 l-164 0 l0 -54 l218 0 l0 -47 l-218 0 l0 -70 l261 0 l0 -47 l-894 0 l0 47 ZM55 -43 q171 27 324 82 l39 -47 q-168 -58 -336 -90 l-27 55 ZM625 102 l0 70 l-246 0 l0 -70 l246 0 ZM469 320 l0 63 l-250 0 l0 -63 l250 0 ZM926 -94 q-165 48 -340 74 l19 51 q170 -22 344 -70 l-23 -55 ZM625 219 l0 54 l-246 0 l0 -54 l246 0 ZM469 430 l0 62 l-250 0 l0 -62 l250 0 ZM348 625 l-270 -47 l-19 51 l289 39 l0 43 l-262 0 l0 47 l262 0 l0 43 l66 0 l0 -235 l-66 0 l0 59 ZM785 320 l0 63 l-250 0 l0 -63 l250 0 ZM785 430 l0 62 l-250 0 l0 -62 l250 0 ZM654 578 q-52 0 -71.5 19.5 q-19.5 19.5 -19.5 59.5 l0 144 l66 0 l0 -63 q123 17 266 55 l27 -47 q-160 -37 -293 -58 l0 -32 q0 -31 37 -31 l170 0 q32 0 40 27 q8 25 11 61 l61 -26 q-4 -26 -15 -58 q-19 -51 -91 -51 l-188 0 Z" /><glyph glyph-name="Identity.8477" unicode="&#x5185;" d="M105 641 l364 0 l0 160 l66 0 l0 -160 l360 0 l0 -625 q0 -114 -114 -114 q-80 0 -156 4 l-16 64 q121 -9 164 -9 q29 0 42 12.5 q13 12.5 13 41.5 l0 567 l-293 0 q-5 -82 -15 -144 q146 -132 253 -258 l-54 -55 q-116 160 -227 246 q-70 -144 -238 -250 l-43 59 q251 134 258 402 l-297 0 l0 -684 l-67 0 l0 743 Z" /><glyph glyph-name="Identity.8480" unicode="&#x5188;" d="M105 758 l790 0 l0 -731 q0 -66 -28 -95.5 q-28 -29.5 -86 -29.5 q-80 0 -156 4 l-16 63 q91 -8 162 -8 q31 0 44 13 q13 13 13 46 l0 679 l-656 0 l0 -801 l-67 0 l0 860 ZM214 89 q150 78 274 220 q-124 139 -244 247 l48 42 q98 -90 238 -238 q96 127 134 249 l63 -28 q-53 -133 -156 -266 q111 -122 183 -221 l-57 -45 q-57 86 -168 214 q-136 -160 -275 -224 l-40 50 Z" /><glyph glyph-name="Identity.8484" unicode="&#x518c;" d="M367 410 l0 285 l-160 0 l0 -285 l160 0 ZM789 410 l0 285 l-172 0 l0 -285 l172 0 ZM47 -55 q98 137 98 328 l0 79 l-94 0 l0 58 l94 0 l0 344 l285 0 l0 -344 l125 0 l0 344 l297 0 l0 -344 l97 0 l0 -58 l-97 0 l0 -344 q0 -102 -98 -102 q-65 0 -106 4 l-15 63 q66 -8 114 -8 q42 0 42 43 l0 344 l-172 0 l0 -59 q0 -234 -94 -391 l-62 39 q94 140 94 360 l0 51 l-125 0 l0 -344 q0 -102 -98 -102 q-55 0 -96 4 l-15 63 q66 -8 104 -8 q42 0 42 43 l0 344 l-160 0 l0 -63 q0 -239 -102 -387 l-58 43 Z" /><glyph glyph-name="Identity.8485" unicode="&#x518d;" d="M168 145 l-117 0 l0 54 l117 0 l0 379 l297 0 l0 121 l-387 0 l0 55 l840 0 l0 -55 l-387 0 l0 -121 l297 0 l0 -379 l117 0 l0 -54 l-117 0 l0 -137 q0 -110 -112 -110 q-56 0 -118 8 l-16 63 q82 -12 133 -12 q47 0 47 50 l0 138 l-528 0 l0 -247 l-66 0 l0 247 ZM465 199 l0 137 l-231 0 l0 -137 l231 0 ZM465 391 l0 132 l-231 0 l0 -132 l231 0 ZM762 199 l0 137 l-231 0 l0 -137 l231 0 ZM762 391 l0 132 l-231 0 l0 -132 l231 0 Z" /><glyph glyph-name="Identity.8490" unicode="&#x5192;" d="M164 387 l676 0 l0 -489 l-67 0 l0 36 l-543 0 l0 -36 l-66 0 l0 489 ZM773 -16 l0 86 l-543 0 l0 -86 l543 0 ZM773 121 l0 82 l-543 0 l0 -82 l543 0 ZM773 254 l0 82 l-543 0 l0 -82 l543 0 ZM223 512 l558 0 l0 -51 l-558 0 l0 51 ZM102 750 l800 0 l0 -320 l-66 0 l0 269 l-668 0 l0 -269 l-66 0 l0 320 ZM223 633 l558 0 l0 -51 l-558 0 l0 51 Z" /><glyph glyph-name="Identity.8493" unicode="&#x5195;" d="M47 -51 q270 44 367 168 l-250 0 l0 141 q-1 -1 -66 -43 l-35 47 q154 95 250 211 l66 -20 q-22 -26 -35 -39 l398 0 l0 -51 l-70 -66 l164 0 l0 -180 l-348 0 q-93 -151 -402 -219 l-39 51 ZM441 164 q19 39 24 86 l-235 0 l0 -86 l211 0 ZM593 -78 q-50 0 -71.5 20.5 q-21.5 20.5 -21.5 63.5 l0 80 l66 0 l0 -78 q0 -39 47 -39 l207 0 q27 0 38.5 9 q11.5 9 16.5 30 q12 48 14 86 l59 -29 q-6 -40 -20 -83 q-19 -60 -95 -60 l-240 0 ZM586 297 l74 70 l-359 0 q-37 -37 -86 -70 l371 0 ZM770 164 l0 86 l-239 0 q-2 -13 -19 -86 l258 0 ZM230 539 l543 0 l0 -47 l-543 0 l0 47 ZM109 754 l786 0 l0 -289 l-67 0 l0 242 l-652 0 l0 -242 l-67 0 l0 289 ZM230 648 l543 0 l0 -46 l-543 0 l0 46 Z" /><glyph glyph-name="Identity.8495" unicode="&#x5197;" d="M53 -41 q113 47 165 121.5 q52 74.5 52 186.5 l0 229 l437 0 l0 -473 q0 -39 46 -39 l75 0 q40 0 47 41 q9 70 9 159 l69 -27 q-3 -59 -12 -138 q-12 -93 -106 -93 l-91 0 q-103 0 -103 94 l0 421 l-305 0 l0 -183 q0 -238 -242 -356 l-41 57 ZM82 746 l844 0 l0 -191 l-67 0 l0 136 l-711 0 l0 -136 l-66 0 l0 191 Z" /><glyph glyph-name="Identity.8497" unicode="&#x5199;" d="M723 -102 q-59 -2 -209 7 l-18 60 q129 -12 219 -12 q71 0 78 68 q12 110 12 268 l-629 0 l0 55 l94 301 l66 -12 l-35 -102 l554 0 l0 -54 l-570 0 l-47 -133 l633 0 q-1 -193 -17 -335 q-12 -108 -131 -111 ZM51 160 l676 0 l0 -55 l-676 0 l0 55 ZM82 758 l844 0 l0 -176 l-67 0 l0 121 l-711 0 l0 -121 l-66 0 l0 176 Z" /><glyph glyph-name="Identity.8499" unicode="&#x519b;" d="M488 66 l-437 0 l0 55 l437 0 l0 125 l-324 0 l0 55 l121 176 l-183 0 l0 54 l218 0 l86 137 l59 -31 l-67 -106 l493 0 l0 -54 l-528 0 l-121 -176 l246 0 l0 125 l67 0 l0 -125 l300 0 l0 -55 l-300 0 l0 -125 l394 0 l0 -55 l-394 0 l0 -168 l-67 0 l0 168 ZM74 758 l852 0 l0 -184 l-67 0 l0 129 l-718 0 l0 -129 l-67 0 l0 184 Z" /><glyph glyph-name="Identity.8500" unicode="&#x519c;" d="M266 -43 q23 28 23 63 l0 261 q-96 -102 -207 -176 l-39 63 q297 199 406 449 l-297 0 l0 -133 l-66 0 l0 188 l383 0 q27 70 39 129 l70 -16 q-11 -43 -35 -113 l367 0 l0 -188 l-66 0 l0 133 l-321 0 q-47 -125 -168 -273 l0 -344 l231 129 l4 -70 l-285 -161 l-39 59 ZM914 -74 q-367 163 -406 605 l62 20 q12 -125 51 -231 q110 56 199 149 l51 -51 q-96 -84 -223 -156 q98 -192 301 -278 l-35 -58 Z" /><glyph glyph-name="Identity.8504" unicode="&#x51a0;" d="M43 -55 q125 86 125 282 l0 105 l-102 0 l0 55 l422 0 l0 -55 l-90 0 l0 -309 q0 -43 51 -43 l360 0 q52 0 62 40 q12 48 16 136 l66 -27 q-6 -68 -19 -127 q-17 -76 -118 -76 l-382 0 q-98 0 -98 94 l0 312 l-106 0 l0 -113 q0 -206 -140 -328 l-47 54 ZM105 578 l340 0 l0 -55 l-340 0 l0 55 ZM629 199 q-46 85 -106 160 l51 39 q65 -80 110 -160 l-55 -39 ZM695 39 q-53 0 -101 4 l-16 62 q66 -7 121 -7 q43 0 43 48 l0 299 l-258 0 l0 55 l258 0 l0 133 l63 0 l0 -133 l129 0 l0 -55 l-129 0 l0 -300 q0 -106 -110 -106 ZM74 754 l848 0 l0 -141 l-67 0 l0 86 l-714 0 l0 -86 l-67 0 l0 141 Z" /><glyph glyph-name="Identity.8508" unicode="&#x51a4;" d="M63 -51 q286 83 363 242 l-254 0 l0 231 q-26 -21 -78 -59 l-43 47 q155 97 293 274 l64 -25 q-9 -10 -24.5 -29.5 q-15.5 -19.5 -24.5 -27.5 l364 0 l0 -51 l-114 -102 l227 0 l0 -258 l-340 0 q-85 -198 -398 -293 l-35 51 ZM445 242 q17 68 24 156 l-231 0 l0 -156 l207 0 ZM624 -70 q-112 0 -112 101 l0 121 l66 0 l0 -121 q0 -26 14 -38.5 q14 -12.5 48 -12.5 l179 0 q27 0 41.5 11.5 q14.5 11.5 19.5 39.5 q7 40 13 114 l61 -29 q-9 -77 -18 -108 q-22 -78 -106 -78 l-206 0 ZM777 14 q-61 68 -143 118 l42 40 q78 -44 147 -117 l-46 -41 ZM520 449 l117 102 l-321 0 q-56 -58 -109 -102 l313 0 ZM770 242 l0 156 l-235 0 q-7 -73 -23 -156 l258 0 ZM82 754 l844 0 l0 -164 l-67 0 l0 113 l-711 0 l0 -113 l-66 0 l0 164 Z" /><glyph glyph-name="Identity.8516" unicode="&#x51ac;" d="M39 281 q233 44 395 133 q-98 78 -168 168 q-48 -63 -153 -152 l-47 50 q161 122 274 325 l62 -24 q-21 -51 -43 -82 l446 0 l0 -58 q-86 -125 -242 -227 q166 -100 386 -129 l-27 -62 q-233 43 -430 156 q-181 -101 -426 -160 l-27 62 ZM748 -102 q-296 94 -572 137 l31 55 q290 -52 570 -133 l-29 -59 ZM706 96 q-175 56 -425 103 l27 55 q261 -52 425 -103 l-27 -55 ZM496 449 q144 82 227 192 l-407 0 q63 -121 180 -192 Z" /><glyph glyph-name="Identity.8519" unicode="&#x51af;" d="M723 -102 q-77 0 -153 4 l-16 63 q107 -8 173 -8 q93 0 102 81 q11 94 11 278 l-481 0 l51 321 l67 0 l-43 -266 l277 0 l47 328 l-426 0 l0 55 l500 0 l-55 -383 l129 0 q0 -215 -12 -341 q-13 -132 -171 -132 ZM51 -4 q118 193 164 387 l62 -35 q-54 -193 -160 -391 l-66 39 ZM301 180 l469 0 l0 -55 l-469 0 l0 55 ZM215 520 q-67 108 -156 199 l54 39 q89 -93 160 -188 l-58 -50 Z" /><glyph glyph-name="Identity.8520" unicode="&#x51b0;" d="M543 -90 q-66 0 -121 4 l-16 64 q70 -9 125 -9 q43 0 43 38 l0 790 l67 0 l0 -125 q20 -157 66 -254 q90 73 164 187 l63 -39 q-106 -128 -204 -207 q80 -192 227 -312 l-55 -51 q-172 148 -261 442 l0 -422 q0 -106 -98 -106 ZM47 -8 q105 196 160 395 l59 -39 q-67 -206 -168 -403 l-51 47 ZM223 43 q211 180 238 453 l-168 0 l0 59 l234 0 l0 -55 q-27 -308 -257 -508 l-47 51 ZM207 516 q-72 111 -152 199 l50 39 q86 -91 161 -191 l-59 -47 Z" /><glyph glyph-name="Identity.8522" unicode="&#x51b2;" d="M590 219 l-184 0 l0 -55 l-66 0 l0 449 l250 0 l0 184 l66 0 l0 -184 l250 0 l0 -449 l-66 0 l0 55 l-184 0 l0 -321 l-66 0 l0 321 ZM55 0 q102 197 152 391 l70 -32 q-60 -202 -160 -402 l-62 43 ZM211 527 q-64 112 -148 200 l58 35 q86 -91 152 -188 l-62 -47 ZM590 277 l0 278 l-184 0 l0 -278 l184 0 ZM840 277 l0 278 l-184 0 l0 -278 l184 0 Z" /><glyph glyph-name="Identity.8523" unicode="&#x51b3;" d="M262 -39 q229 129 273 320 l-230 0 l0 59 l238 0 q12 86 12 180 l0 50 l-203 0 l0 59 l203 0 l0 168 l66 0 l0 -168 l231 0 l0 -289 l93 0 l0 -59 l-289 0 q78 -222 301 -316 l-51 -63 q-218 102 -312 348 q-44 -191 -281 -348 l-51 59 ZM51 -16 q108 194 164 395 l66 -35 q-61 -206 -168 -403 l-62 43 ZM227 512 q-67 105 -149 191 l51 39 q87 -84 156 -191 l-58 -39 ZM785 340 l0 230 l-164 0 l0 -78 q0 -74 -12 -152 l176 0 Z" /><glyph glyph-name="Identity.8525" unicode="&#x51b5;" d="M259 -28 q206 95 206 376 l-121 0 l0 406 l519 0 l0 -406 l-140 0 l0 -332 q0 -39 35 -39 l62 0 q24 0 37 10.5 q13 10.5 18 35.5 q13 59 16 139 l62 -27 q-6 -68 -22 -133 q-19 -84 -100 -84 l-77 0 q-98 0 -98 94 l0 336 l-125 0 q-4 -301 -226 -434 l-46 58 ZM51 -8 q121 196 172 395 l66 -32 q-61 -207 -180 -402 l-58 39 ZM219 523 q-70 107 -159 195 l53 44 q91 -93 163 -189 l-57 -50 ZM797 406 l0 289 l-387 0 l0 -289 l387 0 Z" /><glyph glyph-name="Identity.8526" unicode="&#x51b6;" d="M871 360 q-21 47 -48 85 l-491 -47 l-27 55 q145 134 261 352 l71 -28 q-107 -189 -223 -312 l373 35 q-33 55 -102 137 l61 39 q101 -120 193 -277 l-68 -39 ZM51 -8 q117 192 168 391 l70 -35 q-62 -203 -176 -403 l-62 47 ZM363 293 l496 0 l0 -395 l-66 0 l0 51 l-363 0 l0 -51 l-67 0 l0 395 ZM793 8 l0 226 l-363 0 l0 -226 l363 0 ZM226 524 q-68 114 -158 197 l55 42 q89 -82 166 -193 l-63 -46 Z" /><glyph glyph-name="Identity.8527" unicode="&#x51b7;" d="M266 453 q195 121 304 344 l78 -8 l-15 -35 q112 -187 320 -297 l-43 -59 q-194 97 -312 301 q-109 -182 -285 -301 l-47 55 ZM51 -8 q110 193 168 391 l62 -31 q-66 -208 -172 -403 l-58 43 ZM727 -102 q-188 136 -356 231 l47 51 q79 -42 172 -102 q100 78 195 192 l-461 0 l0 54 l555 0 l0 -54 q-125 -141 -234 -231 q64 -48 132 -86 l-50 -55 ZM215 523 q-69 105 -156 196 l54 39 q86 -91 164 -188 l-62 -47 ZM629 352 q-54 77 -121 136 l55 43 q69 -61 125 -133 l-59 -46 Z" /><glyph glyph-name="Identity.8531" unicode="&#x51bb;" d="M551 -102 q-51 0 -86 4 l-16 63 q61 -8 98 -8 q23 0 33 9.5 q10 9.5 10 35.5 l0 295 l-274 0 l0 58 l122 250 l-141 0 l0 59 l164 0 l55 137 l70 -20 l-47 -117 l402 0 l0 -59 l-429 0 l-125 -250 l203 0 l0 161 l66 0 l0 -161 l242 0 l0 -58 l-242 0 l0 -295 q0 -56 -25.5 -80 q-25.5 -24 -79.5 -24 ZM47 -8 q115 201 172 395 l62 -28 q-71 -210 -172 -402 l-62 35 ZM273 -16 q108 116 168 243 l59 -36 q-65 -131 -172 -254 l-55 47 ZM227 523 q-75 109 -161 200 l55 35 q75 -82 160 -188 l-54 -47 ZM891 -59 q-66 139 -151 250 l61 39 q86 -116 156 -245 l-66 -44 Z" /><glyph glyph-name="Identity.8536" unicode="&#x51c0;" d="M530 -98 q-53 0 -108 4 l-16 63 q62 -8 110 -8 q43 0 43 43 l0 141 l-223 0 l0 54 l223 0 l0 114 l-258 0 l0 54 l258 0 l0 110 l-192 0 l0 54 l235 0 l97 125 l-211 0 q-71 -91 -172 -156 l-27 59 q145 101 219 246 l70 -20 q-24 -38 -51 -74 l254 0 l0 -55 l-97 -125 l179 0 l0 -164 l86 0 l0 -54 l-86 0 l0 -215 l-66 0 l0 47 l-172 0 l0 -149 q0 -94 -95 -94 ZM51 -16 q103 196 160 403 l66 -35 q-61 -209 -168 -407 l-58 39 ZM211 523 q-73 110 -152 192 l54 39 q79 -82 160 -191 l-62 -40 ZM797 199 l0 114 l-172 0 l0 -114 l172 0 ZM797 367 l0 110 l-172 0 l0 -110 l172 0 Z" /><glyph glyph-name="Identity.8540" unicode="&#x51c4;" d="M293 -47 q192 17 289 63 q-132 44 -207 70 q17 18 42.5 46.5 q25.5 28.5 31.5 35.5 l-164 0 l0 51 l203 0 q38 48 55 82 l-199 0 l0 51 l230 0 l0 78 l-277 0 l0 50 l277 0 l0 75 l-222 0 l0 50 l222 0 l0 75 l-289 0 l0 50 l289 0 l0 71 l67 0 l0 -71 l300 0 l0 -50 l-300 0 l0 -75 l234 0 l0 -125 l74 0 l0 -50 l-74 0 l0 -129 l-312 0 l46 -24 q-8 -14 -43 -58 l383 0 l0 -51 l-129 0 q-39 -82 -109 -133 q97 -39 195 -70 l-35 -63 q-113 50 -223 82 q-129 -62 -324 -89 l-31 58 ZM47 -8 q113 200 156 403 l67 -32 q-56 -214 -161 -406 l-62 35 ZM641 55 q71 44 105 113 l-211 0 q-26 -29 -47 -59 q68 -23 153 -54 ZM203 527 q-66 107 -144 192 l54 43 q83 -86 153 -192 l-63 -43 ZM809 352 l0 78 l-168 0 l0 -78 l168 0 ZM809 480 l0 75 l-168 0 l0 -75 l168 0 Z" /><glyph glyph-name="Identity.8542" unicode="&#x51c6;" d="M379 496 q-31 -50 -94 -121 l-43 66 q149 158 219 364 l74 -24 q-36 -89 -78 -160 l484 0 l0 -55 l-238 0 l0 -152 l203 0 l0 -55 l-203 0 l0 -152 l203 0 l0 -55 l-203 0 l0 -160 l246 0 l0 -55 l-504 0 l0 -39 l-66 0 l0 598 ZM55 -23 q117 190 156 382 l66 -31 q-49 -192 -160 -387 l-62 36 ZM637 -8 l0 160 l-192 0 l0 -160 l192 0 ZM211 512 q-68 108 -145 191 l55 43 q79 -86 152 -191 l-62 -43 ZM637 207 l0 152 l-192 0 l0 -152 l192 0 ZM637 414 l0 152 l-192 0 l0 -152 l192 0 ZM695 633 q-35 75 -90 133 l59 39 q55 -55 94 -133 l-63 -39 Z" /><glyph glyph-name="Identity.8545" unicode="&#x51c9;" d="M535 -98 q-52 0 -91 4 l-17 63 q64 -8 109 -8 q21 0 29.5 9.5 q8.5 9.5 8.5 31.5 l0 240 l-215 0 l0 278 l500 0 l0 -278 l-218 0 l0 -240 q0 -100 -106 -100 ZM59 -16 q112 199 156 403 l66 -32 q-54 -211 -160 -406 l-62 35 ZM254 -8 q115 90 176 203 l58 -39 q-73 -129 -187 -215 l-47 51 ZM215 520 q-70 109 -145 191 l55 43 q78 -81 152 -191 l-62 -43 ZM898 -55 q-88 128 -164 207 l55 39 q85 -88 164 -199 l-55 -47 ZM793 297 l0 168 l-367 0 l0 -168 l367 0 ZM289 668 l289 0 q-20 56 -55 109 l67 28 q39 -62 66 -137 l282 0 l0 -55 l-649 0 l0 55 Z" /><glyph glyph-name="Identity.8548" unicode="&#x51cc;" d="M281 -43 q180 34 293 94 q-66 51 -117 129 q-47 -44 -117 -90 l-47 51 q156 93 242 242 l67 -28 q-17 -28 -36 -50 l286 0 l0 -51 q-63 -125 -168 -203 q104 -62 265 -94 l-43 -59 q-171 43 -281 114 q-129 -70 -305 -114 l-39 59 ZM43 -8 q113 200 156 403 l67 -32 q-56 -214 -161 -406 l-62 35 ZM281 344 q111 47 199 129 l55 -39 q-94 -90 -215 -145 l-39 55 ZM199 527 q-66 107 -144 192 l54 43 q83 -86 153 -192 l-63 -43 ZM629 94 q91 74 137 156 l-243 0 q-8 -13 -15 -20 q58 -85 121 -136 ZM914 309 q-110 71 -219 117 l47 43 q108 -44 215 -110 l-43 -50 ZM309 547 l289 0 l0 94 l-246 0 l0 54 l246 0 l0 106 l66 0 l0 -106 l234 0 l0 -54 l-234 0 l0 -94 l285 0 l0 -55 l-640 0 l0 55 Z" /><glyph glyph-name="Identity.8551" unicode="&#x51cf;" d="M207 -55 q102 133 102 328 l0 383 l367 0 l0 141 l62 0 l0 -141 l203 0 l0 -54 l-203 0 q0 -259 16 -403 q69 119 101 297 l67 -19 q-44 -207 -141 -360 q15 -67 55 -127 q38 -43 47 12 q8 53 8 152 l68 -28 q-4 -69 -16 -147 q-5 -34 -25 -52.5 q-20 -18.5 -47 -18.5 q-55 0 -86 39 q-40 52 -62 112 q-63 -85 -153 -153 l-54 47 q113 74 187 172 q-27 180 -27 477 l-305 0 l0 -321 q0 -221 -101 -379 l-63 43 ZM47 -16 q112 199 156 403 l67 -32 q-56 -213 -161 -406 l-62 35 ZM426 379 l203 0 l0 -293 l-203 0 l0 293 ZM566 141 l0 183 l-78 0 l0 -183 l78 0 ZM203 520 q-67 107 -144 191 l54 43 q81 -84 153 -191 l-63 -43 ZM402 520 l246 0 l0 -55 l-246 0 l0 55 ZM862 676 q-44 51 -90 78 l43 39 q60 -35 94 -74 l-47 -43 Z" /><glyph glyph-name="Identity.8553" unicode="&#x51d1;" d="M875 -105 q-119 79 -281 152 q-69 -93 -278 -149 l-39 55 q250 58 289 176 l-230 0 l0 51 l238 0 q4 44 4 86 l-125 0 l0 39 q-63 -60 -144 -110 l-39 55 q113 71 183 160 l-172 0 l0 51 l199 0 q14 27 32 74 l-149 0 l0 51 l168 0 q11 40 16 70 l-231 0 l0 51 l243 0 q6 30 11 94 l71 -8 q-5 -52 -12 -86 l285 0 l0 -51 l-293 0 q-13 -55 -16 -70 l258 0 l0 -51 l-273 0 q-19 -51 -27 -74 l378 0 l0 -51 l-171 0 q70 -104 183 -160 l-39 -59 q-87 48 -148 114 l0 -39 l-121 0 q0 -45 -4 -86 l242 0 l0 -51 l-246 0 q-5 -25 -12 -35 q136 -56 293 -149 l-43 -50 ZM51 -8 q113 200 156 403 l66 -32 q-54 -212 -160 -406 l-62 35 ZM207 527 q-66 107 -144 192 l54 43 q83 -86 153 -192 l-63 -43 ZM754 316 q-35 45 -63 94 l-156 0 q-32 -52 -74 -94 l293 0 Z" /><glyph glyph-name="Identity.8563" unicode="&#x51db;" d="M313 625 l589 0 l0 -332 l-589 0 l0 332 ZM51 4 q105 194 156 383 l59 -32 q-71 -212 -161 -394 l-54 43 ZM238 -39 q126 48 203 117 l43 -39 q-89 -78 -211 -125 l-35 47 ZM545 -102 q-31 0 -93 6 l-15 53 q62 -8 103 -8 q37 0 37 37 l0 116 l-307 0 l0 46 l675 0 l0 -46 l-301 0 l0 -114 q0 -47 -24 -68.5 q-24 -21.5 -75 -21.5 ZM203 527 q-60 103 -140 196 l46 39 q72 -82 149 -188 l-55 -47 ZM340 246 l535 0 l0 -47 l-535 0 l0 47 ZM914 -90 q-83 65 -195 117 l39 43 q106 -49 199 -113 l-43 -47 ZM836 340 l0 238 l-457 0 l0 -238 l457 0 ZM457 531 l301 0 l0 -148 l-301 0 l0 148 ZM691 430 l0 54 l-168 0 l0 -54 l168 0 ZM270 715 l300 0 q-9 23 -31 62 l59 28 q29 -43 47 -90 l300 0 l0 -47 l-675 0 l0 47 Z" /><glyph glyph-name="Identity.8565" unicode="&#x51dd;" d="M492 -66 q106 116 106 328 l0 70 l58 0 q0 -134 -15 -234 q34 -70 89 -102 l0 414 l-152 0 l0 55 l184 0 q-48 53 -145 137 l44 43 q54 -48 81 -75 l94 133 l-242 0 l0 55 l316 0 l0 -55 l-121 -176 q7 -6 19 -18.5 q12 -12.5 18 -18.5 l-29 -25 l133 0 l0 -55 l-32 -117 l-58 16 l29 101 l-76 0 l0 -168 l133 0 l0 -54 l-133 0 l0 -208 l156 0 l-19 -54 l-125 0 q-116 0 -184 101 q-34 -89 -74 -132 l-55 39 ZM51 4 q93 188 125 387 l58 -28 q-39 -203 -132 -398 l-51 39 ZM227 -51 q125 86 152 227 l-121 0 l0 54 l129 0 q4 41 4 114 l-47 0 q-17 -46 -35 -86 l-55 27 q42 83 70 180 l55 -20 q-9 -18 -16 -47 l184 0 l0 -54 l-94 0 q0 -89 -4 -114 l110 0 l0 -54 l-114 0 q0 -15 -7 -47 q51 -45 93 -94 l-47 -43 q-32 47 -70 82 q-56 -106 -148 -176 l-39 51 ZM191 531 q-60 109 -128 196 l50 35 q74 -94 133 -188 l-55 -43 ZM391 488 q-86 0 -86 78 l0 235 l62 0 l0 -106 q94 32 154 66 l32 -52 q-105 -52 -186 -72 l0 -63 q0 -31 20 -31 l76 0 q22 0 27 23 q8 29 12 67 l60 -26 q-2 -19 -11 -55 q-18 -64 -82 -64 l-78 0 Z" /><glyph glyph-name="Identity.8568" unicode="&#x51e0;" d="M39 -39 q219 125 219 402 l0 391 l437 0 l0 -719 q0 -51 51 -51 l65 0 q40 0 50 43 q14 72 19 188 l69 -32 q-8 -94 -20 -158 q-19 -99 -105 -99 l-82 0 q-113 0 -113 112 l0 657 l-305 0 l0 -340 q0 -293 -234 -453 l-51 59 Z" /><glyph glyph-name="Identity.8569" unicode="&#x51e1;" d="M535 227 q-84 146 -176 253 l47 43 q99 -112 188 -246 l-59 -50 ZM39 -39 q219 125 219 402 l0 391 l437 0 l0 -719 q0 -51 51 -51 l65 0 q40 0 50 43 q14 72 19 188 l69 -32 q-8 -94 -20 -158 q-19 -99 -105 -99 l-82 0 q-113 0 -113 112 l0 657 l-305 0 l0 -340 q0 -293 -234 -453 l-51 59 Z" /><glyph glyph-name="Identity.8572" unicode="&#x51e4;" d="M43 -55 q82 124 82 403 l0 410 l684 0 l0 -516 q0 -176 27 -246 q5 -13 12.5 -18 q7.5 -5 15 0.5 q7.5 5.5 10.5 21.5 q15 73 21 191 l66 -35 q-8 -92 -27 -179 q-7 -34 -29 -52.5 q-22 -18.5 -51 -18.5 q-25 0 -49.5 23 q-24.5 23 -37.5 67 q-25 81 -25 293 l0 414 l-551 0 l0 -355 q0 -302 -93 -453 l-55 50 ZM205 20 q164 105 254 218 q-98 113 -183 200 l47 39 q84 -86 171 -188 q78 104 110 234 l-348 0 l0 55 l414 0 l0 -47 q-32 -153 -129 -289 q76 -83 164 -203 l-50 -43 q-75 110 -153 195 q-110 -132 -258 -222 l-39 51 Z" /><glyph glyph-name="Identity.8579" unicode="&#x51eb;" d="M215 664 l0 -230 l691 0 q0 -103 -8 -204 q-20 -78 -109 -78 q-32 0 -74 8 l-16 55 q42 -8 74 -8 q55 0 63 35 q8 75 8 137 l-696 0 l0 340 l215 0 q25 45 39 86 l75 -16 q-18 -36 -39 -70 l386 0 q0 -68 -4 -137 q-11 -98 -117 -98 q-48 0 -98 8 l-11 55 q58 -8 94 -8 q58 0 62 39 q8 50 8 86 l-543 0 ZM371 629 q79 -33 168 -94 l-43 -51 q-69 49 -164 94 l39 51 ZM273 285 l403 0 l0 -273 q0 -39 51 -39 l58 0 q27 0 44.5 12.5 q17.5 12.5 25 35.5 q7.5 23 11 49 q3.5 26 5.5 59 q0 5 0 8 l67 -28 q-7 -57 -24 -113 q-20 -78 -121 -78 l-86 0 q-98 0 -98 90 l0 222 l-269 0 l0 -78 q0 -196 -258 -254 l-35 51 q226 43 226 211 l0 125 Z" /><glyph glyph-name="Identity.8581" unicode="&#x51ed;" d="M352 348 l234 0 l0 148 l-277 0 l0 55 l277 0 l0 140 q-122 -11 -223 -15 l-15 58 q297 12 504 51 l23 -47 q-101 -23 -223 -35 l0 -152 l278 0 l0 -55 l-278 0 l0 -148 l235 0 l0 -55 l-535 0 l0 55 ZM47 -35 q246 19 246 137 l0 109 l391 0 l0 -195 q0 -39 39 -39 l93 0 q37 0 47 33 q14 44 20 119 l62 -36 q-7 -56 -23 -105 q-22 -66 -102 -66 l-125 0 q-78 0 -78 90 l0 144 l-258 0 l0 -51 q0 -176 -289 -207 l-23 67 ZM188 570 q-46 -65 -90 -109 l-35 59 q114 123 207 293 l62 -32 q-35 -68 -78 -125 l0 -383 l-66 0 l0 297 Z" /><glyph glyph-name="Identity.8583" unicode="&#x51ef;" d="M467 -53 q96 158 96 401 l0 406 l253 0 l0 -752 q0 -36 27 -36 l20 0 q23 0 27 31 q12 83 12 228 l63 -34 q-6 -129 -12 -190 q-5 -50 -26 -72 q-21 -22 -59 -22 l-33 0 q-81 0 -81 92 l0 696 l-129 0 l0 -375 q0 -229 -98 -425 l-60 52 ZM70 -31 q32 15 32 54 l0 223 l289 0 l0 117 l-328 0 l0 55 l390 0 l0 -227 l-289 0 l0 -187 l293 74 l0 -58 l-359 -94 l-28 43 ZM78 746 l63 0 l0 -180 l101 0 l0 235 l63 0 l0 -235 l101 0 l0 180 l63 0 l0 -234 l-391 0 l0 234 Z" /><glyph glyph-name="Identity.8584" unicode="&#x51f0;" d="M43 -51 q94 155 94 410 l0 403 l679 0 l0 -508 q0 -173 24 -251 q5 -21 13.5 -29 q8.5 -8 15.5 0 q7 8 10 31 q8 62 8 157 l58 -25 q-4 -111 -19 -179 q-6 -27 -23.5 -41.5 q-17.5 -14.5 -36.5 -14.5 q-43 0 -71 52 q-41 84 -41 290 l0 463 l-555 0 l0 -363 q0 -271 -105 -446 l-51 51 ZM191 -8 l250 0 l0 82 l-199 0 l0 51 l199 0 l0 78 l-211 0 l0 51 l493 0 l0 -51 l-219 0 l0 -78 l199 0 l0 -51 l-199 0 l0 -82 l254 0 l0 -51 l-567 0 l0 51 ZM621 367 l0 71 l-293 0 l0 -71 l293 0 ZM266 613 l140 0 l32 75 l62 -16 l-27 -59 l211 0 l0 -297 l-418 0 l0 297 ZM621 488 l0 75 l-293 0 l0 -75 l293 0 Z" /><glyph glyph-name="Identity.8587" unicode="&#x51f3;" d="M51 520 q101 27 176 78 q-48 30 -125 58 l39 43 q86 -40 132 -70 q60 35 110 90 l-278 0 l0 51 l360 0 l0 -51 q-53 -57 -106 -102 l282 0 q-65 61 -125 156 l50 36 q32 -53 59 -82 q76 32 152 82 l47 -51 q-95 -43 -164 -70 q18 -22 55 -51 q73 22 160 82 l39 -47 q-89 -48 -148 -70 q73 -55 187 -75 l-31 -54 q-140 27 -250 117 l0 -24 l-340 0 l0 28 q-112 -82 -246 -129 l-35 55 ZM51 -59 q246 17 246 106 l0 90 l394 0 l0 -149 q0 -16 7 -23.5 q7 -7.5 26 -7.5 l106 0 q34 0 45 31 q9 26 19 84 l58 -33 q-7 -38 -22 -78 q-21 -55 -89 -55 l-138 0 q-78 0 -78 75 l0 105 l-262 0 l0 -35 q0 -138 -289 -160 l-23 50 ZM598 238 q42 30 82 98 l-344 0 q44 -44 90 -98 l172 0 ZM78 238 l266 0 q-23 28 -71 63 l44 35 l-106 0 l0 172 l586 0 l0 -172 l-103 0 l47 -28 q-5 -6 -18.5 -22.5 q-13.5 -16.5 -24 -28.5 q-10.5 -12 -18.5 -19 l261 0 l0 -50 l-863 0 l0 50 ZM730 387 l0 70 l-453 0 l0 -70 l453 0 Z" /><glyph glyph-name="Identity.8590" unicode="&#x51f6;" d="M816 -66 l-703 0 l0 714 l67 0 l0 -660 l636 0 l0 660 l67 0 l0 -750 l-67 0 l0 36 ZM219 152 q144 118 258 282 q-109 154 -223 285 l59 43 q113 -142 207 -266 q92 120 160 285 l62 -35 q-78 -163 -176 -308 q122 -158 204 -274 l-63 -47 q-80 120 -187 258 q-107 -157 -254 -277 l-47 54 Z" /><glyph glyph-name="Identity.8592" unicode="&#x51f8;" d="M94 441 l199 0 l0 309 l414 0 l0 -309 l199 0 l0 -543 l-66 0 l0 43 l-680 0 l0 -43 l-66 0 l0 543 ZM840 -4 l0 391 l-199 0 l0 308 l-282 0 l0 -308 l-199 0 l0 -391 l680 0 Z" /><glyph glyph-name="Identity.8593" unicode="&#x51f9;" d="M98 758 l312 0 l0 -414 l184 0 l0 414 l308 0 l0 -860 l-66 0 l0 55 l-672 0 l0 -55 l-66 0 l0 860 ZM836 8 l0 695 l-176 0 l0 -414 l-316 0 l0 414 l-180 0 l0 -695 l672 0 Z" /><glyph glyph-name="Identity.8594" unicode="&#x51fa;" d="M836 -70 l-738 0 l0 340 l66 0 l0 -282 l301 0 l0 391 l-336 0 l0 332 l66 0 l0 -273 l270 0 l0 363 l66 0 l0 -363 l270 0 l0 273 l66 0 l0 -332 l-336 0 l0 -391 l305 0 l0 282 l62 0 l0 -372 l-62 0 l0 32 Z" /><glyph glyph-name="Identity.8595" unicode="&#x51fb;" d="M781 -74 l-625 0 l0 336 l67 0 l0 -282 l246 0 l0 368 l-418 0 l0 54 l418 0 l0 184 l-344 0 l0 55 l344 0 l0 160 l66 0 l0 -160 l344 0 l0 -55 l-344 0 l0 -184 l414 0 l0 -54 l-414 0 l0 -368 l246 0 l0 282 l67 0 l0 -367 l-67 0 l0 31 Z" /><glyph glyph-name="Identity.8597" unicode="&#x51fd;" d="M844 -63 l-750 0 l0 657 l66 0 l0 -602 l684 0 l0 602 l66 0 l0 -696 l-66 0 l0 39 ZM188 199 q103 58 207 149 l35 -47 q-82 -72 -206 -151 l-36 49 ZM371 387 q-71 80 -156 140 l43 43 q86 -59 160 -136 l-47 -47 ZM434 43 q-48 0 -110 8 l-15 59 q94 -12 121 -12 q43 0 43 43 l0 437 l234 121 l-551 0 l0 55 l664 0 l0 -51 l-281 -152 l0 -412 q0 -50 -26 -73 q-26 -23 -79 -23 ZM768 149 q-92 84 -190 144 l43 43 q97 -58 192 -141 l-45 -46 ZM594 438 q93 55 160 128 l43 -41 q-67 -71 -162 -133 l-41 46 Z" /><glyph glyph-name="Identity.8599" unicode="&#x51ff;" d="M836 -66 l-734 0 l0 543 l66 0 l0 -493 l668 0 l0 493 l66 0 l0 -579 l-66 0 l0 36 ZM469 152 l-231 0 l0 51 l231 0 l0 94 l-266 0 l0 51 l602 0 l0 -51 l-270 0 l0 -94 l235 0 l0 -51 l-235 0 l0 -144 l-66 0 l0 144 ZM402 355 q-32 41 -97 90 l50 43 q67 -46 102 -93 l-55 -40 ZM246 598 q-53 64 -133 125 l51 47 q78 -63 137 -125 l-55 -47 ZM563 391 q63 56 89 97 l63 -35 q-41 -53 -106 -101 l-46 39 ZM51 563 l304 0 l0 238 l67 0 l0 -238 l152 0 l0 238 l67 0 l0 -238 l308 0 l0 -51 l-898 0 l0 51 ZM699 641 q83 61 141 129 l51 -43 q-57 -73 -141 -133 l-51 47 Z" /><glyph glyph-name="Identity.8600" unicode="&#x5200;" d="M51 -47 q168 118 246 295.5 q78 177.5 82 431.5 l-285 0 l0 58 l804 0 q-8 -436 -19 -621 q-16 -199 -176 -199 q-89 0 -180 4 l-21 70 q117 -12 195 -12 q108 0 116 149 q10 190 15 551 l-379 0 q-7 -555 -355 -782 l-43 55 Z" /><glyph glyph-name="Identity.8601" unicode="&#x5201;" d="M656 -102 q-88 0 -186 12 l-17 70 q104 -19 202 -19 q61 0 91.5 38.5 q30.5 38.5 34.5 117.5 q11 222 16 563 l-699 0 l0 58 l765 0 q-4 -374 -15 -625 q-12 -215 -192 -215 ZM59 176 l621 351 l11 -70 l-597 -344 l-35 63 Z" /><glyph glyph-name="Identity.8603" unicode="&#x5203;" d="M104 297 q85 112 129 262 l69 -24 q-49 -162 -133 -281 l-65 43 ZM63 -47 q96 49 166 109 q70 60 124 145.5 q54 85.5 81 203.5 q27 118 27 269 l-367 0 l0 58 l804 0 q-8 -436 -19 -621 q-16 -199 -176 -199 q-89 0 -180 4 l-21 70 q117 -12 195 -12 q108 0 116 149 q10 190 15 551 l-297 0 q0 -585 -425 -782 l-43 55 Z" /><glyph glyph-name="Identity.8606" unicode="&#x5206;" d="M70 -55 q289 109 289 410 l-191 0 l0 59 l617 0 q0 -224 -12 -373 q-9 -123 -141 -123 q-94 0 -169 8 l-18 66 q97 -12 184 -12 q78 0 82 67 q8 111 8 308 l-289 0 q0 -332 -309 -464 l-51 54 ZM43 426 q198 139 301 379 l62 -39 q-122 -246 -320 -403 l-43 63 ZM910 359 q-198 162 -328 403 l63 43 q124 -235 308 -375 l-43 -71 Z" /><glyph glyph-name="Identity.8607" unicode="&#x5207;" d="M329 -52 q226 207 226 595 l0 156 l-180 0 l0 59 l527 0 q-5 -431 -30 -707 q-6 -71 -37.5 -106 q-31.5 -35 -106.5 -35 q-71 0 -131 4 l-19 66 q99 -8 150 -8 q40 0 57 17 q17 17 20 54 q31 335 31 656 l-215 0 l0 -144 q0 -431 -234 -660 l-58 53 ZM129 70 q31 19 31 59 l0 324 l-101 -19 l-8 58 l109 20 l0 289 l67 0 l0 -278 l199 36 l4 -59 l-203 -35 l0 -336 l164 101 l7 -70 l-238 -148 l-31 58 Z" /><glyph glyph-name="Identity.8610" unicode="&#x520a;" d="M266 348 l-215 0 l0 58 l215 0 l0 293 l-172 0 l0 59 l414 0 l0 -59 l-176 0 l0 -293 l215 0 l0 -58 l-215 0 l0 -450 l-66 0 l0 450 ZM609 707 l67 0 l0 -594 l-67 0 l0 594 ZM781 -96 q-75 0 -129 6 l-16 70 q86 -11 141 -11 q55 0 55 54 l0 782 l66 0 l0 -778 q0 -63 -28.5 -93 q-28.5 -30 -88.5 -30 Z" /><glyph glyph-name="Identity.8617" unicode="&#x5211;" d="M43 -55 q141 129 148 391 l-128 0 l0 59 l128 0 l0 300 l-101 0 l0 59 l496 0 l0 -59 l-102 0 l0 -300 l129 0 l0 -59 l-129 0 l0 -438 l-62 0 l0 438 l-168 0 q-7 -292 -164 -438 l-47 47 ZM422 395 l0 300 l-168 0 l0 -300 l168 0 ZM668 703 l62 0 l0 -590 l-62 0 l0 590 ZM793 -97 q-51 0 -109 3 l-16 63 q59 -8 131 -8 q41 0 41 41 l0 799 l62 0 l0 -793 q0 -105 -109 -105 Z" /><glyph glyph-name="Identity.8618" unicode="&#x5212;" d="M512 -94 q-44 0 -78 27 q-70 55 -114 168 q-132 -107 -238 -164 l-39 55 q142 71 254 168 q-35 131 -47 320 l-180 -19 l-7 58 l183 20 q-12 137 -12 258 l63 0 q0 -117 12 -250 l296 35 l8 -59 l-300 -35 q11 -164 39 -273 q97 109 148 215 l51 -40 q-71 -129 -180 -242 q46 -124 106 -168 q34 -22 49 -16.5 q15 5.5 25 36.5 q18 53 31 158 l55 -33 q-9 -76 -32 -149 q-22 -70 -93 -70 ZM668 699 l62 0 l0 -582 l-62 0 l0 582 ZM793 -95 q-57 0 -109 4 l-16 63 q59 -8 129 -8 q43 0 43 47 l0 790 l62 0 l0 -790 q0 -106 -109 -106 ZM512 617 q-70 63 -153 117 l43 43 q74 -44 157 -113 l-47 -47 Z" /><glyph glyph-name="Identity.8623" unicode="&#x5217;" d="M55 -43 q182 85 289 242 q-84 79 -168 125 l39 51 q79 -45 168 -121 q70 124 90 266 l-243 0 q-60 -131 -140 -235 l-55 43 q124 148 195 379 l-164 0 l0 55 l524 0 l0 -55 l-289 0 q-18 -68 -43 -133 l285 0 l0 -51 q-59 -419 -441 -621 l-47 55 ZM648 703 l63 0 l0 -594 l-63 0 l0 594 ZM777 -102 q-39 0 -121 6 l-18 62 q84 -10 139 -10 q59 0 59 60 l0 785 l62 0 l0 -779 q0 -124 -121 -124 Z" /><glyph glyph-name="Identity.8624" unicode="&#x5218;" d="M47 -51 q156 114 250 274 q-76 112 -195 269 l50 39 q106 -135 184 -238 q66 134 90 301 l-367 0 l0 54 l250 0 q-31 66 -90 122 l62 39 q56 -56 94 -125 l-55 -36 l250 0 l0 -54 l-74 0 q-27 -205 -113 -367 q74 -91 164 -227 l-59 -47 q-74 118 -144 211 q-96 -154 -242 -269 l-55 54 ZM645 707 l62 0 l0 -594 l-62 0 l0 594 ZM787 -98 q-67 0 -127 4 l-17 63 q91 -8 142 -8 q55 0 55 55 l0 785 l62 0 l0 -781 q0 -61 -27.5 -89.5 q-27.5 -28.5 -87.5 -28.5 Z" /><glyph glyph-name="Identity.8625" unicode="&#x5219;" d="M113 754 l422 0 l0 -606 l-62 0 l0 547 l-297 0 l0 -547 l-63 0 l0 606 ZM47 -51 q242 117 242 356 l0 320 l63 0 l0 -324 q0 -270 -262 -406 l-43 54 ZM539 -98 q-98 129 -192 209 l48 45 q104 -88 199 -207 l-55 -47 ZM652 707 l63 0 l0 -592 l-63 0 l0 592 ZM789 -96 q-69 0 -129 4 l-17 67 q93 -8 145 -8 q52 0 52 51 l0 783 l62 0 l0 -776 q0 -62 -26.5 -91.5 q-26.5 -29.5 -86.5 -29.5 Z" /><glyph glyph-name="Identity.8626" unicode="&#x521a;" d="M94 754 l504 0 l0 -740 q0 -111 -102 -111 q-64 0 -120 4 l-17 60 q77 -9 137 -9 q39 0 39 51 l0 690 l-379 0 l0 -801 l-62 0 l0 856 ZM184 102 q79 99 140 222 q-55 120 -133 254 l55 35 q65 -116 113 -215 q48 101 82 223 l55 -23 q-34 -134 -98 -270 q62 -111 106 -215 l-55 -39 q-45 110 -86 188 q-62 -116 -129 -203 l-50 43 ZM684 695 l62 0 l0 -582 l-62 0 l0 582 ZM805 -97 q-53 0 -102 4 l-17 60 q53 -8 119 -8 q43 0 43 39 l0 799 l62 0 l0 -791 q0 -103 -105 -103 Z" /><glyph glyph-name="Identity.8627" unicode="&#x521b;" d="M274 -86 q-118 0 -118 106 l0 441 l364 0 q-2 -148 -8 -219 q-5 -50 -30.5 -73.5 q-25.5 -23.5 -79.5 -23.5 q-48 0 -97 3 l-16 66 q62 -8 110 -8 q47 0 50 43 q5 71 5 157 l-235 0 l0 -383 q0 -54 58 -54 l154 0 q30 0 45 12 q15 12 20 39 q7 39 12 105 l67 -32 q-5 -41 -18 -97 q-20 -82 -120 -82 l-163 0 ZM47 473 q191 135 254 332 l70 -23 l-16 -40 q156 -118 241 -197 l-48 -51 q-99 109 -224 197 q-74 -153 -234 -277 l-43 59 ZM660 699 l63 0 l0 -575 l-63 0 l0 575 ZM799 -95 q-68 0 -123 4 l-20 63 q85 -8 141 -8 q47 0 47 39 l0 798 l62 0 l0 -790 q0 -54 -25.5 -80 q-25.5 -26 -81.5 -26 Z" /><glyph glyph-name="Identity.8629" unicode="&#x521d;" d="M359 -47 q211 211 211 586 l0 145 l-164 0 l0 58 l496 0 q-7 -380 -33 -696 q-6 -72 -41 -104 q-35 -32 -107 -32 q-66 0 -105 4 l-18 66 q62 -7 127 -7 q41 0 58.5 16.5 q17.5 16.5 21.5 53.5 q29 303 31 641 l-199 0 l0 -133 q0 -404 -223 -649 l-55 51 ZM199 320 q-47 -50 -117 -105 l-35 55 q192 150 269 293 l-246 0 l0 58 l313 0 l0 -58 q-47 -85 -117 -168 l0 -43 l31 -24 q42 42 74 106 l63 -32 q-43 -69 -90 -109 q48 -35 90 -74 l-47 -51 q-67 65 -121 109 l0 -379 l-67 0 l0 422 ZM234 641 q-39 71 -105 132 l59 40 q54 -55 105 -129 l-59 -43 Z" /><glyph glyph-name="Identity.8632" unicode="&#x5220;" d="M348 -63 q58 132 58 334 l0 84 l-78 0 l0 -359 q0 -94 -83 -94 q-34 0 -62 4 l-15 61 q50 -8 73 -8 q29 0 29 36 l0 360 l-90 0 l0 -70 q0 -251 -82 -387 l-47 51 q70 128 70 330 l0 76 l-58 0 l0 55 l58 0 l0 344 l207 0 l0 -344 l78 0 l0 344 l211 0 l0 -344 l67 0 l0 -55 l-67 0 l0 -359 q0 -94 -86 -94 q-35 0 -63 4 l-15 59 q50 -8 74 -8 q17 0 24.5 7 q7.5 7 7.5 28 l0 363 l-94 0 l0 -78 q0 -226 -63 -382 l-54 42 ZM270 410 l0 289 l-90 0 l0 -289 l90 0 ZM559 410 l0 289 l-94 0 l0 -289 l94 0 ZM797 -94 q-52 0 -104 4 l-17 59 q75 -8 123 -8 q24 0 34.5 11.5 q10.5 11.5 10.5 38.5 l0 794 l58 0 l0 -792 q0 -59 -25.5 -83 q-25.5 -24 -79.5 -24 ZM719 707 l58 0 l0 -594 l-58 0 l0 594 Z" /><glyph glyph-name="Identity.8636" unicode="&#x5224;" d="M63 -43 q187 106 199 266 l-203 0 l0 58 l211 0 l0 145 l-188 0 l0 58 l188 0 l0 317 l66 0 l0 -317 l195 0 l0 -58 l-195 0 l0 -145 l219 0 l0 -58 l-223 0 q-8 -200 -230 -325 l-39 59 ZM163 526 q-45 106 -94 185 l62 32 q43 -70 96 -184 l-64 -33 ZM633 707 l62 0 l0 -590 l-62 0 l0 590 ZM383 559 q66 93 90 187 l66 -27 q-33 -102 -94 -196 l-62 36 ZM787 -98 q-56 0 -123 8 l-20 67 q89 -13 147 -13 q49 0 49 53 l0 788 l62 0 l0 -786 q0 -117 -115 -117 Z" /><glyph glyph-name="Identity.8640" unicode="&#x5228;" d="M244 -82 q-107 0 -107 106 l0 468 q-28 -32 -47 -58 l-43 54 q108 127 176 321 l66 -20 q-19 -55 -43 -98 l340 0 q0 -246 -8 -438 q-3 -71 -32.5 -100.5 q-29.5 -29.5 -92.5 -29.5 q-76 0 -132 4 l-16 65 q92 -10 146 -10 q34 0 48.5 16 q14.5 16 16.5 50 q7 117 7 389 l-304 0 q-29 -64 -67 -121 l266 0 l0 -258 l-219 0 l0 -237 q0 -48 50 -48 l246 0 q47 0 55 39 q9 43 15 109 l65 -29 q-6 -51 -14 -89 q-18 -85 -113 -85 l-259 0 ZM355 313 l0 148 l-156 0 l0 -148 l156 0 ZM676 699 l62 0 l0 -582 l-62 0 l0 582 ZM799 -98 q-63 0 -115 4 l-16 63 q59 -8 131 -8 q41 0 41 39 l0 801 l62 0 l0 -793 q0 -54 -24.5 -80 q-24.5 -26 -78.5 -26 Z" /><glyph glyph-name="Identity.8641" unicode="&#x5229;" d="M273 348 q-64 -142 -191 -293 l-39 66 q141 156 219 344 l-211 0 l0 58 l222 0 l0 161 q-83 -11 -195 -16 l-15 59 q236 10 441 58 l23 -62 q-108 -21 -191 -32 l0 -168 l207 0 l0 -58 l-207 0 l0 -125 l43 39 q85 -78 168 -168 l-51 -51 q-59 75 -160 168 l0 -430 l-63 0 l0 450 ZM629 699 l62 0 l0 -566 l-62 0 l0 566 ZM785 -102 q-51 0 -121 8 l-17 68 q88 -13 142 -13 q27 0 39 11.5 q12 11.5 12 38.5 l0 790 l62 0 l0 -793 q0 -60 -28 -85 q-28 -25 -89 -25 Z" /><glyph glyph-name="Identity.8643" unicode="&#x522b;" d="M12 -47 q203 98 230 313 l-191 0 l0 54 l203 0 q4 39 4 98 l62 0 q0 -59 -4 -98 l239 0 q-2 -195 -12 -297 q-7 -114 -119 -114 q-37 0 -111 8 l-16 59 q85 -13 129 -13 q49 0 54 47 q12 107 12 256 l-183 0 q-31 -249 -262 -371 l-35 58 ZM94 758 l422 0 l0 -305 l-422 0 l0 305 ZM453 508 l0 195 l-297 0 l0 -195 l297 0 ZM660 699 l63 0 l0 -566 l-63 0 l0 566 ZM785 -98 q-62 0 -121 4 l-16 59 q85 -8 137 -8 q55 0 55 55 l0 789 l62 0 l0 -781 q0 -118 -117 -118 Z" /><glyph glyph-name="Identity.8646" unicode="&#x522e;" d="M105 305 l180 0 l0 179 l-234 0 l0 55 l234 0 l0 160 q-93 -8 -203 -11 l-12 58 q266 4 477 51 l16 -59 q-95 -18 -215 -31 l0 -168 l238 0 l0 -55 l-238 0 l0 -179 l179 0 l0 -399 l-62 0 l0 43 l-297 0 l0 -43 l-63 0 l0 399 ZM465 4 l0 246 l-297 0 l0 -246 l297 0 ZM648 707 l63 0 l0 -582 l-63 0 l0 582 ZM789 -94 q-51 0 -117 8 l-16 60 q90 -11 135 -11 q26 0 37.5 12 q11.5 12 11.5 40 l0 786 l62 0 l0 -784 q0 -111 -113 -111 Z" /><glyph glyph-name="Identity.8648" unicode="&#x5230;" d="M51 -23 l238 27 l0 191 l-199 0 l0 55 l199 0 l0 152 l-199 -23 l-24 62 q115 125 188 254 l-199 0 l0 55 l515 0 l0 -55 l-234 0 q-85 -155 -180 -250 l289 35 q-26 54 -66 106 l59 35 q69 -110 140 -246 l-62 -39 q-25 49 -43 90 l-118 -16 l0 -160 l196 0 l0 -55 l-196 0 l0 -183 l235 31 l4 -55 l-524 -70 l-19 59 ZM660 699 l63 0 l0 -582 l-63 0 l0 582 ZM791 -94 q-51 0 -117 8 l-16 60 q90 -11 135 -11 q26 0 37.5 12 q11.5 12 11.5 40 l0 786 l62 0 l0 -784 q0 -111 -113 -111 Z" /><glyph glyph-name="Identity.8654" unicode="&#x5236;" d="M297 250 l-121 0 l0 -281 l-67 0 l0 336 l188 0 l0 109 l-234 0 l0 55 l234 0 l0 136 l-133 0 q-19 -58 -55 -113 l-58 39 q70 113 97 231 l67 -16 l-27 -86 l109 0 l0 141 l66 0 l0 -141 l184 0 l0 -55 l-184 0 l0 -136 l231 0 l0 -55 l-231 0 l0 -109 l192 0 l0 -250 q0 -45 -20.5 -65.5 q-20.5 -20.5 -68.5 -20.5 q-18 0 -56 4 l-16 55 q40 -5 66 -5 q28 0 28 30 l0 197 l-125 0 l0 -352 l-66 0 l0 352 ZM656 699 l67 0 l0 -582 l-67 0 l0 582 ZM783 -94 q-53 0 -109 8 l-16 60 q90 -11 127 -11 q26 0 37.5 12 q11.5 12 11.5 40 l0 786 l62 0 l0 -784 q0 -111 -113 -111 Z" /><glyph glyph-name="Identity.8655" unicode="&#x5237;" d="M43 -23 q94 136 94 363 l0 414 l457 0 l0 -254 l-395 0 l0 -152 q0 -253 -113 -414 l-43 43 ZM395 301 l-94 0 l0 -313 l-63 0 l0 367 l157 0 l0 114 l62 0 l0 -114 l156 0 l0 -290 q0 -77 -77 -77 q-18 0 -52 4 l-16 55 q31 -4 57 -4 q26 0 26 26 l0 232 l-94 0 l0 -403 l-62 0 l0 403 ZM531 551 l0 152 l-332 0 l0 -152 l332 0 ZM695 703 l63 0 l0 -594 l-63 0 l0 594 ZM788 -94 q-50 0 -96 8 l-16 60 q79 -11 114 -11 q26 0 37.5 12 q11.5 12 11.5 40 l0 786 l62 0 l0 -784 q0 -111 -113 -111 Z" /><glyph glyph-name="Identity.8656" unicode="&#x5238;" d="M74 -47 q271 68 317 238 l-176 0 l0 39 q-73 -40 -137 -70 l-35 63 q157 59 266 175 l-258 0 l0 55 l304 0 q33 49 55 110 l-289 0 l0 54 l313 0 q26 71 46 192 l71 -12 q-16 -77 -43 -180 l371 0 l0 -54 l-391 0 q-27 -69 -50 -110 l511 0 l0 -55 l-238 0 q102 -117 250 -168 l-35 -58 q-199 85 -297 226 l-234 0 q-57 -80 -161 -152 l543 0 q0 -101 -7 -211 q-4 -62 -36 -93.5 q-32 -31.5 -99 -31.5 q-84 0 -147 4 l-17 63 q89 -8 166 -8 q61 0 66 54 q8 88 8 168 l-254 0 q-44 -203 -340 -296 l-43 58 ZM305 637 q-52 64 -114 117 l51 43 q54 -43 117 -114 l-54 -46 ZM629 680 q67 47 125 121 l55 -43 q-62 -69 -129 -121 l-51 43 Z" /><glyph glyph-name="Identity.8657" unicode="&#x5239;" d="M273 -102 q-40 0 -93 8 l-15 63 q63 -12 97 -12 q43 0 43 42 l0 298 l-235 0 l0 55 l235 0 l0 140 l62 0 l0 -140 l223 0 l0 -55 l-223 0 l0 -308 q0 -50 -22.5 -70.5 q-22.5 -20.5 -71.5 -20.5 ZM43 27 q91 91 152 223 l55 -27 q-61 -136 -164 -243 l-43 47 ZM555 -4 q-58 128 -137 219 l51 31 q87 -107 136 -215 l-50 -35 ZM55 488 q115 50 238 149 q-87 52 -195 97 l35 51 q111 -54 207 -109 q62 51 129 129 l54 -43 q-76 -76 -132 -121 q86 -57 195 -149 l-47 -51 q-94 91 -195 161 q-113 -91 -246 -164 l-43 50 ZM648 707 l63 0 l0 -590 l-63 0 l0 590 ZM789 -94 q-51 0 -117 8 l-16 60 q90 -11 135 -11 q26 0 37.5 12 q11.5 12 11.5 40 l0 786 l62 0 l0 -784 q0 -111 -113 -111 Z" /><glyph glyph-name="Identity.8658" unicode="&#x523a;" d="M297 195 q-58 -100 -211 -218 l-39 62 q153 108 250 258 l0 195 l-133 0 l0 -246 l-66 0 l0 301 l199 0 l0 94 l-246 0 l0 54 l246 0 l0 106 l66 0 l0 -106 l246 0 l0 -54 l-246 0 l0 -94 l200 0 l0 -219 q0 -41 -21.5 -59.5 q-21.5 -18.5 -68.5 -18.5 q-35 0 -63 4 l-12 57 q35 -6 69 -6 q16 0 22.5 6 q6.5 6 6.5 23 l0 158 l-133 0 l0 -594 l-66 0 l0 297 ZM559 35 q-85 85 -172 149 l47 43 q86 -63 171 -141 l-46 -51 ZM664 699 l66 0 l0 -582 l-66 0 l0 582 ZM784 -94 q-51 0 -117 8 l-16 62 q88 -13 135 -13 q26 0 37.5 12 q11.5 12 11.5 40 l0 786 l62 0 l0 -784 q0 -111 -113 -111 Z" /><glyph glyph-name="Identity.8659" unicode="&#x523b;" d="M43 141 q183 101 285 216 l-207 -21 l-27 47 q98 113 156 222 l-172 0 l0 55 l273 0 q-35 63 -85 113 l54 36 q51 -51 90 -114 l-47 -35 l258 0 l0 -55 l-355 0 l47 -31 q-44 -61 -129 -172 l191 12 q52 65 86 141 l55 -35 q-133 -254 -434 -434 l-39 55 ZM70 -39 q312 135 473 418 l52 -38 q-71 -115 -150 -200 q106 -97 188 -192 l-51 -47 q-86 107 -180 192 q-135 -120 -300 -196 l-32 63 ZM664 699 l63 0 l0 -582 l-63 0 l0 582 ZM789 -94 q-47 0 -113 8 l-16 62 q88 -13 131 -13 q26 0 37.5 12 q11.5 12 11.5 40 l0 786 l62 0 l0 -784 q0 -111 -113 -111 Z" /><glyph glyph-name="Identity.8661" unicode="&#x523d;" d="M35 434 q172 139 285 371 l63 -24 l-16 -35 q147 -142 231 -262 l-51 -46 q-85 131 -211 257 q-102 -173 -258 -312 l-43 51 ZM547 -102 q-17 32 -39 67 l-410 -47 l-24 55 q117 117 180 265 l-184 0 l0 55 l520 0 l0 -55 l-262 0 q-72 -154 -160 -254 l309 36 q-35 52 -86 109 l54 42 q100 -113 164 -230 l-62 -43 ZM184 457 l293 0 l0 -55 l-293 0 l0 55 ZM672 699 l62 0 l0 -590 l-62 0 l0 590 ZM793 -94 q-47 0 -113 8 l-16 62 q88 -13 131 -13 q26 0 37.5 12 q11.5 12 11.5 40 l0 786 l62 0 l0 -784 q0 -111 -113 -111 Z" /><glyph glyph-name="Identity.8666" unicode="&#x5242;" d="M51 297 q156 34 254 113 q-78 46 -192 102 l43 47 l196 -106 q55 52 89 145 l-382 0 l0 54 l543 0 l0 -54 l-90 0 q-44 -116 -106 -176 q125 -72 203 -121 l-50 -51 q-101 77 -200 129 q-110 -91 -273 -137 l-35 55 ZM59 -63 q136 79 136 223 l0 102 l63 0 l0 -102 q0 -172 -156 -269 l-43 46 ZM410 262 l63 0 l0 -364 l-63 0 l0 364 ZM328 668 q-33 58 -74 109 l51 32 q40 -40 78 -106 l-55 -35 ZM656 707 l63 0 l0 -590 l-63 0 l0 590 ZM782 -94 q-44 0 -105 8 l-16 62 q83 -13 123 -13 q26 0 37.5 12 q11.5 12 11.5 40 l0 786 l62 0 l0 -784 q0 -111 -113 -111 Z" /><glyph glyph-name="Identity.8667" unicode="&#x5243;" d="M309 184 q-82 -121 -223 -223 l-39 55 q149 98 234 238 l-191 0 l19 234 l200 0 l0 121 l-207 0 l0 55 l132 0 q-21 40 -74 98 l51 43 q49 -53 82 -102 l-39 -39 l117 0 q44 56 90 145 l59 -36 q-46 -70 -75 -109 l125 0 l0 -230 l-199 0 l0 -125 l242 0 q0 -100 -6 -194 q-3 -52 -26.5 -73.5 q-23.5 -21.5 -76.5 -21.5 q-50 0 -90 3 l-16 59 q70 -8 106 -8 q40 0 43 39 q4 56 4 141 l-180 0 l0 -356 l-62 0 l0 286 ZM309 309 l0 125 l-141 0 l-12 -125 l153 0 ZM508 488 l0 121 l-137 0 l0 -121 l137 0 ZM688 699 l62 0 l0 -582 l-62 0 l0 582 ZM785 -94 q-44 0 -105 8 l-16 62 q83 -13 123 -13 q26 0 37.5 12 q11.5 12 11.5 40 l0 786 l62 0 l0 -784 q0 -111 -113 -111 Z" /><glyph glyph-name="Identity.8674" unicode="&#x524a;" d="M94 523 l191 0 l0 278 l63 0 l0 -278 l195 0 l0 -531 q0 -46 -22 -66 q-22 -20 -68 -20 q-55 0 -96 4 l-17 61 q70 -10 106 -10 q19 0 26.5 7.5 q7.5 7.5 7.5 23.5 l0 145 l-324 0 l0 -239 l-62 0 l0 625 ZM480 191 l0 114 l-324 0 l0 -114 l324 0 ZM480 359 l0 110 l-324 0 l0 -110 l324 0 ZM172 559 q-50 96 -113 171 l50 36 q62 -67 118 -172 l-55 -35 ZM656 703 l63 0 l0 -594 l-63 0 l0 594 ZM418 586 q58 77 102 176 l58 -24 q-39 -93 -105 -183 l-55 31 ZM785 -94 q-44 0 -105 8 l-16 62 q83 -13 123 -13 q48 0 48 52 l0 786 l63 0 l0 -784 q0 -111 -113 -111 Z" /><glyph glyph-name="Identity.8677" unicode="&#x524d;" d="M102 516 l410 0 l0 -522 q0 -90 -102 -90 q-47 0 -100 4 l-16 62 q74 -9 117 -9 q38 0 38 35 l0 125 l-285 0 l0 -223 l-62 0 l0 618 ZM449 176 l0 113 l-285 0 l0 -113 l285 0 ZM449 344 l0 117 l-285 0 l0 -117 l285 0 ZM635 484 l62 0 l0 -414 l-62 0 l0 414 ZM51 660 l293 0 q-43 62 -94 110 l59 39 q53 -50 97 -114 l-54 -35 l230 0 q64 71 102 145 l66 -32 q-47 -71 -86 -113 l285 0 l0 -55 l-898 0 l0 55 ZM772 -96 q-44 0 -105 8 l-16 62 q83 -13 123 -13 q48 0 48 52 l0 537 l63 0 l0 -535 q0 -111 -113 -111 Z" /><glyph glyph-name="Identity.8681" unicode="&#x5251;" d="M70 -20 l321 40 q74 165 113 355 l66 -27 q-46 -180 -105 -321 l137 16 l0 -63 l-520 -62 l-12 62 ZM184 59 q-38 136 -86 269 l58 20 q58 -136 90 -266 l-62 -23 ZM324 98 q-22 136 -62 261 l62 28 q37 -123 67 -258 l-67 -31 ZM43 461 q164 122 270 344 l70 -20 l-16 -35 q127 -101 246 -227 l-50 -58 q-110 141 -231 230 q-70 -112 -160 -211 l340 0 l0 -58 l-356 0 l0 47 q-35 -35 -78 -71 l-35 59 ZM658 703 l63 0 l0 -594 l-63 0 l0 594 ZM785 -94 q-44 0 -105 8 l-16 62 q83 -13 123 -13 q48 0 48 52 l0 786 l63 0 l0 -784 q0 -111 -113 -111 Z" /><glyph glyph-name="Identity.8684" unicode="&#x5254;" d="M215 -55 q160 124 199 321 l-70 0 q-63 -179 -215 -286 l-41 51 q137 90 193 235 l-82 0 q-40 -73 -109 -137 l-39 51 q108 99 152 234 l-66 0 l0 348 l426 0 l0 -348 l-293 0 q-14 -40 -43 -94 l382 0 q-7 -199 -28 -322 q-9 -52 -35.5 -72.5 q-26.5 -20.5 -78.5 -20.5 q-45 0 -80 4 l-16 63 q60 -10 99 -10 q41 0 49 40 q20 108 28 264 l-70 0 q-39 -215 -215 -368 l-47 47 ZM500 469 l0 94 l-301 0 l0 -94 l301 0 ZM500 617 l0 90 l-301 0 l0 -90 l301 0 ZM684 699 l62 0 l0 -582 l-62 0 l0 582 ZM789 -94 q-40 0 -96 8 l-16 62 q78 -13 114 -13 q48 0 48 52 l0 786 l63 0 l0 -784 q0 -111 -113 -111 Z" /><glyph glyph-name="Identity.8686" unicode="&#x5256;" d="M117 258 l430 0 l0 -360 l-63 0 l0 32 l-304 0 l0 -32 l-63 0 l0 360 ZM484 -16 l0 219 l-304 0 l0 -219 l304 0 ZM234 438 q-35 63 -93 125 l50 35 q60 -57 102 -125 l-59 -35 ZM55 418 l289 0 q65 84 109 180 l67 -32 q-50 -80 -102 -148 l195 0 l0 -55 l-558 0 l0 55 ZM82 684 l227 0 q-30 58 -59 93 l59 28 q43 -58 66 -121 l207 0 l0 -55 l-500 0 l0 55 ZM664 699 l63 0 l0 -582 l-63 0 l0 582 ZM789 -94 q-47 0 -103 8 l-16 62 q78 -13 121 -13 q48 0 48 52 l0 786 l63 0 l0 -784 q0 -111 -113 -111 Z" /><glyph glyph-name="Identity.8701" unicode="&#x5265;" d="M51 63 l207 125 l35 -55 l-203 -125 l-39 55 ZM219 211 q-89 82 -133 121 l43 43 q72 -52 141 -121 l-51 -43 ZM609 4 q-99 72 -203 129 l39 55 q129 -74 207 -125 l-43 -59 ZM422 254 q66 51 133 121 l50 -43 q-74 -74 -140 -125 l-43 47 ZM671 699 l63 0 l0 -582 l-63 0 l0 582 ZM789 -94 q-47 0 -103 8 l-16 62 q78 -13 121 -13 q48 0 48 52 l0 786 l63 0 l0 -784 q0 -111 -113 -111 ZM63 465 l398 0 l4 94 l-344 0 l0 54 l348 0 l4 94 l-368 0 l0 55 l438 0 l-16 -297 l82 0 l0 -55 l-232 0 l0 -393 q0 -111 -113 -111 q-39 0 -95 8 l-16 62 q78 -13 113 -13 q48 0 48 52 l0 395 l-251 0 l0 55 Z" /><glyph glyph-name="Identity.8703" unicode="&#x5267;" d="M43 -59 q86 137 86 411 l0 406 l461 0 l0 -227 l-399 0 l0 -133 l180 0 l0 90 l63 0 l0 -90 l195 0 l0 -50 l-195 0 l0 -106 l152 0 l0 -344 l-63 0 l0 63 l-242 0 l0 -63 l-62 0 l0 344 l152 0 l0 106 l-180 0 q0 -302 -97 -453 l-51 46 ZM523 12 l0 179 l-242 0 l0 -179 l242 0 ZM527 582 l0 125 l-336 0 l0 -125 l336 0 ZM676 699 l62 0 l0 -582 l-62 0 l0 582 ZM789 -94 q-47 0 -103 8 l-16 62 q78 -13 121 -13 q48 0 48 52 l0 786 l63 0 l0 -784 q0 -111 -113 -111 Z" /><glyph glyph-name="Identity.8705" unicode="&#x5269;" d="M316 211 q-74 -137 -222 -258 l-35 51 q156 124 257 301 l0 261 l-261 0 l0 55 l261 0 l0 98 q-104 -8 -211 -8 l-19 55 q236 0 504 23 l23 -47 q-106 -10 -234 -19 l0 -102 l266 0 l0 -55 l-266 0 l0 -285 l238 -230 l-47 -51 q-86 101 -191 203 l0 -305 l-63 0 l0 313 ZM43 285 l145 43 l0 67 l-125 0 l0 54 l125 0 l0 74 l62 0 l0 -285 l-62 0 l0 35 l-125 -39 l-20 51 ZM516 238 q-71 0 -71 73 l0 212 l63 0 l0 -82 q47 18 105 55 l28 -47 q-66 -38 -133 -58 l0 -73 q0 -25 21 -25 l34 0 q23 0 28 19 q9 33 12 67 l54 -28 q-7 -33 -16 -62 q-19 -51 -75 -51 l-50 0 ZM699 703 l63 0 l0 -586 l-63 0 l0 586 ZM802 -94 q-52 0 -98 8 l-16 60 q79 -11 114 -11 q25 0 33.5 9.5 q8.5 9.5 8.5 37.5 l0 791 l62 0 l0 -793 q0 -57 -23.5 -79.5 q-23.5 -22.5 -80.5 -22.5 Z" /><glyph glyph-name="Identity.8706" unicode="&#x526a;" d="M63 -47 q282 17 316 168 l-270 0 l0 51 l762 0 q-5 -88 -14 -162 q-7 -54 -37.5 -77 q-30.5 -23 -92.5 -23 q-79 0 -164 6 l-16 58 q115 -12 178 -12 q53 0 60 46 q9 54 12 113 l-340 0 q-43 -195 -359 -223 l-35 55 ZM129 605 l375 0 l0 -298 q0 -84 -86 -84 q-51 0 -86 4 l-16 52 q56 -6 94 -6 q31 0 31 33 l0 34 l-250 0 l0 -117 l-62 0 l0 382 ZM441 391 l0 58 l-250 0 l0 -58 l250 0 ZM441 500 l0 55 l-250 0 l0 -55 l250 0 ZM617 590 l63 0 l0 -238 l-63 0 l0 238 ZM770 227 q-64 0 -125 3 l-16 54 q74 -7 134 -7 q23 0 32.5 10 q9.5 10 9.5 33 l0 301 l62 0 l0 -300 q0 -94 -97 -94 ZM47 707 l297 0 q-41 48 -78 70 l50 32 q46 -31 86 -79 l-43 -23 l231 0 q48 53 78 94 l62 -24 q-33 -42 -66 -70 l281 0 l0 -51 l-898 0 l0 51 Z" /><glyph glyph-name="Identity.8711" unicode="&#x526f;" d="M82 336 l500 0 l0 -438 l-62 0 l0 47 l-375 0 l0 -47 l-63 0 l0 438 ZM301 -4 l0 121 l-156 0 l0 -121 l156 0 ZM301 168 l0 117 l-156 0 l0 -117 l156 0 ZM520 -4 l0 121 l-157 0 l0 -121 l157 0 ZM520 168 l0 117 l-157 0 l0 -117 l157 0 ZM125 633 l414 0 l0 -219 l-414 0 l0 219 ZM477 465 l0 117 l-289 0 l0 -117 l289 0 ZM51 762 l562 0 l0 -51 l-562 0 l0 51 ZM680 699 l62 0 l0 -570 l-62 0 l0 570 ZM788 -94 q-50 0 -96 8 l-16 60 q79 -11 114 -11 q26 0 37.5 12 q11.5 12 11.5 40 l0 786 l62 0 l0 -784 q0 -111 -113 -111 Z" /><glyph glyph-name="Identity.8714" unicode="&#x5272;" d="M113 180 l196 0 l0 74 l-246 0 l0 55 l246 0 l0 70 l-180 0 l0 55 l180 0 l0 70 l-211 0 l0 55 l211 0 l0 62 l62 0 l0 -62 l211 0 l0 -55 l-211 0 l0 -70 l180 0 l0 -55 l-180 0 l0 -70 l246 0 l0 -55 l-246 0 l0 -74 l195 0 l0 -282 l-62 0 l0 36 l-328 0 l0 -36 l-63 0 l0 282 ZM504 -12 l0 137 l-328 0 l0 -137 l328 0 ZM63 715 l246 0 q-12 30 -39 70 l62 24 q28 -40 51 -94 l234 0 l0 -125 l-66 0 l0 70 l-426 0 l0 -70 l-62 0 l0 125 ZM680 699 l62 0 l0 -566 l-62 0 l0 566 ZM788 -94 q-50 0 -96 8 l-16 60 q79 -11 114 -11 q26 0 37.5 12 q11.5 12 11.5 40 l0 786 l62 0 l0 -784 q0 -111 -113 -111 Z" /><glyph glyph-name="Identity.8727" unicode="&#x527f;" d="M313 74 q-101 -97 -247 -160 l-35 59 q155 53 266 164 l-246 0 l0 51 l262 0 l0 62 l-219 0 l0 305 l500 0 l0 -305 l-219 0 l0 -62 l258 0 l0 -51 l-258 0 l0 -239 l-62 0 l0 176 ZM609 -70 q-81 62 -211 133 l36 46 q118 -60 218 -129 l-43 -50 ZM313 301 l0 82 l-157 0 l0 -82 l157 0 ZM313 434 l0 70 l-157 0 l0 -70 l157 0 ZM531 301 l0 82 l-156 0 l0 -82 l156 0 ZM203 570 q-56 56 -140 118 q88 66 140 113 l51 -31 q-53 -42 -109 -82 q62 -43 105 -79 l-47 -39 ZM531 434 l0 70 l-156 0 l0 -70 l156 0 ZM395 570 q-54 54 -141 118 q87 64 141 113 l50 -31 q-53 -42 -109 -82 q62 -43 105 -79 l-46 -39 ZM703 699 l62 0 l0 -582 l-62 0 l0 582 ZM586 570 q-54 54 -141 118 q87 64 141 113 l55 -31 q-46 -34 -114 -82 q68 -47 106 -79 l-47 -39 ZM800 -94 q-50 0 -96 8 l-16 60 q79 -11 114 -11 q26 0 37.5 12 q11.5 12 11.5 40 l0 786 l62 0 l0 -784 q0 -111 -113 -111 Z" /><glyph glyph-name="Identity.8736" unicode="&#x5288;" d="M47 -63 q289 79 308 254 l-265 0 l0 51 l789 0 q-2 -142 -10 -229 q-6 -60 -40.5 -84.5 q-34.5 -24.5 -95.5 -24.5 q-135 0 -206 6 l-18 59 q125 -12 221 -12 q34 0 50.5 13.5 q16.5 13.5 20.5 49.5 q8 73 8 171 l-387 0 q-16 -207 -336 -300 l-39 46 ZM195 500 l254 0 l0 -195 l-254 0 l0 195 ZM387 352 l0 101 l-129 0 l0 -101 l129 0 ZM39 348 q74 91 74 254 l0 160 l328 0 l0 -192 l-265 0 q0 -143 -86 -273 l-51 51 ZM379 617 l0 98 l-203 0 l0 -98 l203 0 ZM676 367 l-180 0 l0 51 l180 0 l0 78 l-203 0 l0 51 l144 0 q-35 51 -74 86 l55 35 q40 -40 82 -90 l-47 -31 l94 0 q47 59 78 117 l66 -23 q-36 -61 -66 -94 l140 0 l0 -51 l-203 0 l0 -78 l180 0 l0 -51 l-180 0 l0 -97 l-66 0 l0 97 ZM484 723 l176 0 q-14 25 -47 58 l63 24 q28 -30 66 -82 l180 0 l0 -51 l-438 0 l0 51 Z" /><glyph glyph-name="Identity.8755" unicode="&#x529b;" d="M51 -55 q190 96 275 234 q85 138 100 364 l-352 0 l0 59 l352 0 l0 199 l66 0 l0 -199 l383 0 q0 -303 -20 -548 q-7 -80 -44 -110.5 q-37 -30.5 -122 -30.5 q-73 0 -175 8 l-18 66 q122 -15 194 -15 q50 0 72 19 q22 19 27 72 q20 204 20 480 l-317 0 q-12 -246 -106 -399.5 q-94 -153.5 -288 -256.5 l-47 58 Z" /><glyph glyph-name="Identity.8757" unicode="&#x529d;" d="M371 -55 q223 242 223 610 l-176 0 l0 58 l176 0 l0 192 l62 0 l0 -192 l262 0 q0 -296 -12 -578 q-8 -129 -133 -129 q-66 0 -144 8 l-16 63 q97 -13 164 -13 q64 0 67 67 q11 208 11 524 l-199 0 q0 -394 -230 -660 l-55 50 ZM39 20 q115 126 184 269 q-76 135 -157 250 l47 43 q87 -119 141 -211 q62 157 62 277 l-246 0 l0 59 l313 0 l0 -59 q-19 -190 -86 -347 q74 -126 125 -219 l-63 -43 q-46 102 -97 184 q-58 -131 -172 -258 l-51 55 Z" /><glyph glyph-name="Identity.8758" unicode="&#x529e;" d="M51 -51 q332 192 332 621 l-289 0 l0 59 l289 0 l0 172 l66 0 l0 -172 l305 0 q0 -347 -20 -586 q-12 -137 -156 -137 q-87 0 -152 4 l-19 67 q83 -8 163 -8 q48 0 71 20 q23 20 27 62 q20 220 20 519 l-239 0 q0 -453 -344 -672 l-54 51 ZM55 207 q77 127 121 270 l70 -24 q-52 -156 -133 -289 l-58 43 ZM891 160 q-44 156 -94 281 l66 28 q46 -123 90 -281 l-62 -28 Z" /><glyph glyph-name="Identity.8759" unicode="&#x529f;" d="M359 -55 q227 244 227 614 l-184 0 l0 54 l184 0 l0 192 l62 0 l0 -192 l270 0 q0 -324 -12 -576 q-6 -130 -128 -130 q-81 0 -156 8 l-17 63 q97 -13 168 -13 q67 0 71 64 q11 186 11 530 l-207 0 q0 -399 -238 -664 l-51 50 ZM39 113 l152 39 l0 512 l-140 0 l0 55 l344 0 l0 -55 l-141 0 l0 -492 l148 39 l8 -59 l-351 -101 l-20 62 Z" /><glyph glyph-name="Identity.8760" unicode="&#x52a0;" d="M20 -59 q187 204 195 602 l-149 0 l0 55 l153 0 l0 203 l62 0 l0 -203 l215 0 q0 -358 -16 -582 q-7 -106 -113 -106 q-61 0 -121 4 l-16 66 q84 -9 141 -9 q44 0 47 47 q16 283 16 525 l-153 0 q-7 -421 -207 -645 l-54 43 ZM602 668 l320 0 l0 -758 l-63 0 l0 70 l-195 0 l0 -70 l-62 0 l0 758 ZM859 35 l0 578 l-195 0 l0 -578 l195 0 Z" /><glyph glyph-name="Identity.8761" unicode="&#x52a1;" d="M43 367 q222 24 398 90 q-102 67 -175 152 q-57 -73 -161 -156 l-42 55 q159 123 253 301 l71 -20 q-24 -43 -51 -78 l488 0 l0 -51 q-85 -117 -226 -203 q153 -62 351 -86 l-31 -62 q-229 34 -398 113 q-194 -81 -446 -113 l-31 58 ZM66 -55 q289 79 328 262 l-281 0 l0 55 l289 0 q0 15 1.5 47 q1.5 32 1.5 39 l71 0 q0 -7 -1.5 -39 q-1.5 -32 -1.5 -47 l371 0 q0 -165 -7 -251 q-4 -51 -32.5 -78 q-28.5 -27 -93.5 -27 q-71 0 -180 7 l-18 63 q124 -11 195 -11 q31 0 45.5 12.5 q14.5 12.5 16.5 38.5 q7 73 7 191 l-312 0 q-27 -215 -356 -316 l-43 54 ZM523 488 q137 70 219 168 l-437 0 q85 -105 218 -168 Z" /><glyph glyph-name="Identity.8763" unicode="&#x52a3;" d="M74 -51 q293 95 332 278 l-285 0 l0 54 l301 0 q4 31 4 86 l66 0 q0 -55 -4 -86 l387 0 q0 -172 -9 -260 q-5 -53 -33 -80 q-28 -27 -97 -27 q-101 0 -185 4 l-17 61 q122 -10 199 -10 q34 0 49 14 q15 14 19 44 q8 83 8 200 l-332 0 q-39 -222 -360 -332 l-43 54 ZM66 539 q133 78 243 215 l54 -43 q-105 -129 -254 -227 l-43 55 ZM39 383 q429 34 688 203 l50 -43 q-257 -173 -711 -219 l-27 59 ZM461 805 l66 0 l0 -282 l-66 0 l0 282 ZM910 504 q-133 130 -262 203 l36 55 q153 -84 273 -196 l-47 -62 Z" /><glyph glyph-name="Identity.8768" unicode="&#x52a8;" d="M418 -63 q196 205 203 602 l-156 0 l0 63 l160 0 l0 199 l63 0 l0 -199 l226 0 q0 -299 -17 -586 q-3 -54 -33.5 -82 q-30.5 -28 -82.5 -28 q-65 0 -125 4 l-17 66 q99 -9 140 -9 q48 0 53 49 q19 232 19 523 l-163 0 q-5 -423 -215 -644 l-55 42 ZM51 47 q34 37 81 140 q47 103 83 235 l-156 0 l0 58 l429 0 l0 -58 l-265 0 l54 -31 q-73 -219 -144 -336 l238 58 q-21 72 -62 160 l60 27 q58 -139 100 -269 l-61 -27 q-2 10 -8 30.5 q-6 20.5 -9 31.5 l-309 -86 l-31 67 ZM98 727 l355 0 l0 -59 l-355 0 l0 59 Z" /><glyph glyph-name="Identity.8769" unicode="&#x52a9;" d="M359 94 l0 156 l-179 0 l0 -191 l179 35 ZM43 31 l74 16 l0 703 l305 0 l0 -645 l70 16 l0 -58 l-437 -86 l-12 54 ZM359 305 l0 168 l-179 0 l0 -168 l179 0 ZM359 527 l0 168 l-179 0 l0 -168 l179 0 ZM418 -63 q196 205 203 602 l-156 0 l0 63 l160 0 l0 199 l63 0 l0 -199 l226 0 q0 -299 -17 -586 q-3 -54 -33.5 -82 q-30.5 -28 -82.5 -28 q-65 0 -125 4 l-17 66 q99 -9 140 -9 q48 0 53 49 q19 232 19 523 l-163 0 q-5 -423 -215 -644 l-55 42 Z" /><glyph glyph-name="Identity.8770" unicode="&#x52aa;" d="M63 -59 q289 85 328 250 l-282 0 l0 55 l293 0 q8 37 8 82 l68 0 q0 -44 -5 -82 l379 0 q-2 -142 -12 -230 q-7 -59 -35.5 -84.5 q-28.5 -25.5 -100.5 -25.5 q-101 0 -174 4 l-18 59 q112 -8 192 -8 q32 0 48.5 11.5 q16.5 11.5 20.5 38.5 q12 100 12 180 l-324 0 q-39 -199 -356 -300 l-42 50 ZM51 371 q120 24 195 74 q-72 37 -144 67 q40 59 66 140 l-105 0 l0 55 l125 0 q16 38 35 102 l70 -16 q-24 -62 -31 -86 l203 0 l0 -59 q-19 -112 -102 -195 q78 -36 121 -58 l-39 -55 q-55 32 -132 74 q-88 -69 -223 -101 l-39 58 ZM301 484 q75 69 97 168 l-156 0 q-23 -64 -47 -113 q46 -23 106 -55 ZM926 309 q-116 45 -199 109 q-79 -53 -192 -98 l-39 59 q107 34 184 86 q-81 89 -125 223 l-55 0 l0 54 l398 0 l0 -54 q-44 -142 -125 -223 q89 -67 192 -94 l-39 -62 ZM727 512 q65 65 97 176 l-207 0 q39 -102 110 -176 Z" /><glyph glyph-name="Identity.8771" unicode="&#x52ab;" d="M51 43 q96 134 148 301 l-152 0 l0 54 l180 0 l0 200 l-153 0 l0 54 l153 0 l0 153 l66 0 l0 -153 l164 0 l0 -54 l-164 0 l0 -200 l195 0 l0 -54 l-269 0 l47 -31 q-55 -140 -141 -262 l250 54 q-29 62 -70 122 l58 35 q73 -114 121 -231 l-66 -39 q-7 34 -23 59 l-317 -74 l-27 66 ZM439 -63 q196 205 203 602 l-156 0 l0 63 l160 0 l0 199 l63 0 l0 -199 l205 0 q0 -299 -17 -586 q-3 -54 -33.5 -82 q-30.5 -28 -82.5 -28 q-55 0 -112 4 l-17 66 q77 -9 127 -9 q48 0 53 49 q19 232 19 523 l-142 0 q-5 -423 -215 -644 l-55 42 Z" /><glyph glyph-name="Identity.8777" unicode="&#x52b1;" d="M27 -55 q78 146 78 383 l0 430 l458 0 l0 -55 l-395 0 l0 -351 q0 -288 -86 -446 l-55 39 ZM152 -55 q121 133 121 410 l0 176 l-78 0 l0 55 l356 0 l0 -55 l-215 0 l0 -148 l176 0 q-4 -245 -16 -377 q-5 -49 -26.5 -70.5 q-21.5 -21.5 -66.5 -21.5 q-48 0 -79 4 l-15 62 q46 -7 91 -7 q17 0 26 7.5 q9 7.5 11 28.5 q12 147 12 319 l-117 0 q0 -254 -129 -430 l-51 47 ZM520 -63 q96 101 140 270 q23 138 28 344 l-114 0 l0 54 l114 0 l0 200 l62 0 l0 -200 l180 0 q0 -327 -12 -586 q-4 -105 -105 -105 q-53 0 -98 4 l-16 61 q67 -8 108 -8 q22 0 33 10.5 q11 10.5 12 35.5 q15 247 15 534 l-117 0 q0 -204 -23 -344 q-36 -186 -153 -320 l-54 50 Z" /><glyph glyph-name="Identity.8778" unicode="&#x52b2;" d="M47 8 l195 35 l0 219 l-156 0 l0 54 l379 0 l0 -54 l-156 0 l0 -203 l175 31 l-4 -59 l-414 -86 l-19 63 ZM43 414 q215 86 320 293 l-273 0 l0 55 l344 0 l0 -55 q-40 -87 -94 -156 l183 -133 l-43 -66 q-88 79 -187 152 q-91 -91 -219 -152 l-31 62 ZM430 -63 q196 205 203 602 l-156 0 l0 63 l160 0 l0 199 l63 0 l0 -199 l214 0 q0 -299 -17 -586 q-3 -54 -33.5 -82 q-30.5 -28 -82.5 -28 q-55 0 -112 4 l-17 66 q77 -9 127 -9 q48 0 53 49 q19 232 19 523 l-151 0 q-5 -423 -215 -644 l-55 42 Z" /><glyph glyph-name="Identity.8779" unicode="&#x52b3;" d="M70 -51 q324 97 368 289 l-340 0 l0 55 l351 0 q4 49 4 121 l70 0 q0 -66 -3 -121 l347 0 q-5 -180 -12 -258 q-4 -62 -38 -91.5 q-34 -29.5 -109 -29.5 q-96 0 -169 4 l-17 59 q104 -8 188 -8 q40 0 57.5 14 q17.5 14 21.5 44 q9 78 12 211 l-293 0 q-39 -221 -395 -343 l-43 54 ZM70 516 l856 0 l0 -153 l-67 0 l0 98 l-722 0 l0 -98 l-67 0 l0 153 ZM305 652 l-254 0 l0 55 l254 0 l0 94 l66 0 l0 -94 l258 0 l0 94 l66 0 l0 -94 l254 0 l0 -55 l-254 0 l0 -93 l-66 0 l0 93 l-258 0 l0 -93 l-66 0 l0 93 Z" /><glyph glyph-name="Identity.8791" unicode="&#x52bf;" d="M66 -59 q328 79 372 231 l-325 0 l0 55 l336 0 q8 42 8 66 l66 0 q0 -30 -7 -66 l336 0 q-2 -168 -11 -226 q-8 -50 -37.5 -72.5 q-29.5 -22.5 -100.5 -22.5 q-48 0 -180 4 l-18 59 q127 -9 209 -9 q57 0 63 52 q8 63 8 160 l-281 0 q-44 -188 -395 -281 l-43 50 ZM196 293 q-46 0 -89 8 l-13 60 q54 -9 96 -9 q18 0 25.5 7 q7.5 7 7.5 26 l0 92 l-145 -32 l-15 51 l160 35 l0 117 l-149 0 l0 55 l149 0 l0 98 l62 0 l0 -98 l129 0 l0 -55 l-129 0 l0 -101 l121 29 l4 -58 l-125 -30 l0 -108 q0 -47 -22 -67 q-22 -20 -67 -20 ZM867 289 q-38 0 -65.5 35 q-27.5 35 -35.5 102 q-10 86 -12 222 l-133 0 q0 -87 -16 -144 q62 -43 118 -86 l-32 -51 q-68 54 -105 78 q-51 -97 -164 -156 l-39 51 q113 56 144 137 q-49 39 -94 63 l30 49 q55 -31 84 -54 q12 47 12 113 l-114 0 l0 55 l114 0 l0 98 l62 0 l0 -98 l195 0 q0 -205 10 -273 q11 -75 41 -75 q17 0 24 51 q7 54 7 116 l57 -30 q-3 -51 -10 -105 q-7 -48 -28 -73 q-21 -25 -50 -25 Z" /><glyph glyph-name="Identity.8795" unicode="&#x52c3;" d="M477 -66 q172 203 179 605 l-136 0 l0 63 l136 0 l0 199 l63 0 l0 -199 l199 0 q0 -318 -20 -600 q-7 -100 -103 -100 q-56 0 -111 4 l-16 71 q79 -11 124 -11 q41 0 44 47 q19 252 19 526 l-136 0 q-7 -426 -192 -648 l-50 43 ZM215 -102 q-39 0 -78 4 l-16 67 q56 -8 92 -8 q37 0 37 37 l0 139 q-85 -15 -187 -28 l-12 63 q125 15 199 23 l0 67 l82 97 l-184 0 l0 55 l262 0 l0 -51 l-97 -125 l0 -35 q89 12 191 35 l0 -58 q-108 -22 -191 -35 l0 -152 q0 -53 -23.5 -74 q-23.5 -21 -74.5 -21 ZM55 563 l191 0 l0 101 l-164 0 l0 55 l164 0 l0 82 l63 0 l0 -82 l168 0 l0 -55 l-168 0 l0 -101 l191 0 l0 -161 l-62 0 l0 106 l-321 0 l0 -106 l-62 0 l0 161 Z" /><glyph glyph-name="Identity.8799" unicode="&#x52c7;" d="M133 605 l312 0 q-96 37 -179 59 l47 39 q80 -21 187 -62 l199 74 l-574 0 l0 47 l719 0 l0 -47 l-301 -110 l328 0 l0 -351 l-66 0 l0 78 l-270 0 l0 -62 l-66 0 l0 62 l-270 0 l0 -78 l-66 0 l0 351 ZM55 -55 q335 58 379 207 l-321 0 l0 47 l332 0 q4 21 4 51 l67 0 q0 -30 -4 -51 l367 0 q-3 -118 -17 -198 q-8 -45 -37 -71 q-29 -26 -97 -26 q-120 0 -189 4 l-16 52 q113 -9 207 -9 q56 0 66 47 q15 70 17 154 l-313 0 q-39 -191 -414 -257 l-31 50 ZM469 379 l0 66 l-270 0 l0 -66 l270 0 ZM469 492 l0 67 l-270 0 l0 -67 l270 0 ZM805 379 l0 66 l-270 0 l0 -66 l270 0 ZM805 492 l0 67 l-270 0 l0 -67 l270 0 Z" /><glyph glyph-name="Identity.8801" unicode="&#x52c9;" d="M39 -43 q165 103 211 285 l-152 0 l0 281 l211 0 l86 122 l-204 0 q-50 -59 -109 -106 l-39 55 q126 96 191 211 l63 -28 q-26 -45 -59 -78 l227 0 l0 -58 l-82 -118 l121 0 l0 -281 l-191 0 q-44 -215 -231 -344 l-43 59 ZM262 297 l8 172 l-110 0 l0 -172 l102 0 ZM428 -86 q-112 0 -112 100 l0 177 l63 0 l0 -171 q0 -28 14 -39.5 q14 -11.5 44 -11.5 l387 0 q42 0 53 41 q11 42 18 111 l62 -31 q-4 -33 -21 -97 q-20 -79 -106 -79 l-402 0 ZM441 297 l0 172 l-109 0 q-4 -81 -12 -172 l121 0 ZM456 86 q173 166 173 480 l-129 0 l0 55 l129 0 l0 180 l62 0 l0 -180 l184 0 q0 -265 -8 -465 q-7 -105 -102 -105 q-47 0 -103 8 l-16 64 q67 -14 111 -14 q48 0 51 55 q8 156 8 402 l-125 0 q0 -328 -183 -527 l-52 47 Z" /><glyph glyph-name="Identity.8803" unicode="&#x52cb;" d="M35 -35 q227 71 227 273 l0 106 l62 0 l0 -106 q0 -237 -258 -332 l-31 59 ZM457 -39 q-61 66 -133 113 l39 47 q82 -61 137 -113 l-43 -47 ZM86 461 l426 0 l0 -328 l-63 0 l0 277 l-301 0 l0 -277 l-62 0 l0 328 ZM121 770 l356 0 l0 -223 l-356 0 l0 223 ZM414 598 l0 121 l-230 0 l0 -121 l230 0 ZM480 -63 q92 112 135 259 q43 147 45 351 l-137 0 l0 55 l141 0 l0 199 l63 0 l0 -199 l195 0 q0 -326 -20 -586 q-11 -110 -106 -110 q-53 0 -108 4 l-16 63 q66 -8 118 -8 q46 0 50 46 q19 252 19 536 l-132 0 q-8 -435 -196 -652 l-51 42 Z" /><glyph glyph-name="Identity.8810" unicode="&#x52d2;" d="M258 43 l-203 0 l0 55 l203 0 l0 93 l-164 0 l0 231 l164 0 l0 86 l-104 0 l0 148 l-103 0 l0 55 l103 0 l0 90 l63 0 l0 -90 l144 0 l0 90 l63 0 l0 -90 l111 0 l0 -55 l-111 0 l0 -148 l-104 0 l0 -86 l164 0 l0 -231 l-164 0 l0 -93 l207 0 l0 -55 l-207 0 l0 -145 l-62 0 l0 145 ZM258 246 l0 121 l-102 0 l0 -121 l102 0 ZM422 246 l0 121 l-102 0 l0 -121 l102 0 ZM361 563 l0 93 l-144 0 l0 -93 l144 0 ZM480 -63 q92 112 135 259 q43 147 45 351 l-137 0 l0 55 l141 0 l0 199 l63 0 l0 -199 l195 0 q0 -326 -20 -586 q-11 -110 -106 -110 q-53 0 -108 4 l-16 63 q66 -8 118 -8 q46 0 50 46 q19 252 19 536 l-132 0 q-8 -435 -196 -652 l-51 42 Z" /><glyph glyph-name="Identity.8816" unicode="&#x52d8;" d="M105 -31 l0 281 l-62 0 l0 55 l94 0 l0 355 l-82 0 l0 55 l82 0 l0 90 l62 0 l0 -90 l199 0 l0 90 l63 0 l0 -90 l82 0 l0 -55 l-82 0 l0 -355 l94 0 l0 -55 l-387 0 l0 -227 l340 0 l0 -54 l-403 0 ZM180 86 q61 66 93 137 l55 -35 q-32 -72 -94 -137 l-54 35 ZM457 59 q-46 77 -98 129 l55 35 q56 -59 102 -129 l-59 -35 ZM398 305 l0 86 l-199 0 l0 -86 l199 0 ZM398 445 l0 78 l-199 0 l0 -78 l199 0 ZM398 578 l0 82 l-199 0 l0 -82 l199 0 ZM488 -63 q90 110 130 255.5 q40 145.5 42 354.5 l-137 0 l0 55 l141 0 l0 199 l63 0 l0 -199 l195 0 q0 -326 -20 -586 q-11 -110 -106 -110 q-53 0 -108 4 l-16 63 q66 -8 118 -8 q46 0 50 46 q19 252 19 536 l-132 0 q-8 -444 -188 -652 l-51 42 Z" /><glyph glyph-name="Identity.8823" unicode="&#x52df;" d="M74 -55 q318 39 364 141 l-227 0 l0 27 q-66 -23 -141 -39 l-35 55 q185 32 301 109 l-285 0 l0 47 l328 0 q33 30 51 59 l-250 0 l0 269 l640 0 l0 -269 l-371 0 l47 -20 q-22 -26 -35 -39 l480 0 l0 -47 l-293 0 q108 -77 317 -109 l-35 -55 q-92 17 -160 43 q-2 -81 -8 -130 q-8 -47 -37 -67.5 q-29 -20.5 -91 -20.5 q-82 0 -156 3 l-17 49 q95 -6 170 -6 q60 0 66 44 q7 49 7 97 l-196 0 q-56 -149 -406 -195 l-28 54 ZM449 133 q4 28 4 66 l67 0 q0 -38 -4 -66 l218 0 q-100 43 -168 105 l-136 0 q-68 -62 -172 -105 l191 0 ZM754 391 l0 66 l-508 0 l0 -66 l508 0 ZM754 504 l0 62 l-508 0 l0 -62 l508 0 ZM305 691 l-250 0 l0 47 l250 0 l0 63 l66 0 l0 -63 l258 0 l0 63 l66 0 l0 -63 l250 0 l0 -47 l-250 0 l0 -54 l-66 0 l0 54 l-258 0 l0 -54 l-66 0 l0 54 Z" /><glyph glyph-name="Identity.8828" unicode="&#x52e4;" d="M51 16 l215 15 l0 71 l-172 0 l0 50 l172 0 l0 63 l-192 0 l0 51 l192 0 l0 62 l-180 0 l0 184 l180 0 l0 62 l-121 0 l0 114 l-94 0 l0 50 l94 0 l0 67 l62 0 l0 -67 l180 0 l0 67 l62 0 l0 -67 l94 0 l0 -50 l-94 0 l0 -114 l-121 0 l0 -62 l180 0 l0 -184 l-180 0 l0 -62 l192 0 l0 -51 l-192 0 l0 -63 l168 0 l0 -50 l-168 0 l0 -67 l195 12 l0 -53 l-464 -37 l-8 59 ZM266 379 l0 82 l-118 0 l0 -82 l118 0 ZM445 379 l0 82 l-117 0 l0 -82 l117 0 ZM387 625 l0 63 l-180 0 l0 -63 l180 0 ZM488 -63 q90 110 130 255.5 q40 145.5 42 354.5 l-137 0 l0 55 l141 0 l0 199 l63 0 l0 -199 l195 0 q0 -326 -20 -586 q-11 -110 -106 -110 q-53 0 -108 4 l-16 63 q66 -8 118 -8 q46 0 50 46 q19 252 19 536 l-132 0 q-8 -444 -188 -652 l-51 42 Z" /><glyph glyph-name="Identity.8850" unicode="&#x52fa;" d="M726 -102 q-98 0 -163 4 l-19 63 q112 -8 182 -8 q49 0 67 15 q18 15 23 66 q20 285 20 591 l-582 0 q-76 -130 -176 -227 l-47 51 q145 133 239 356 l66 -20 q-28 -61 -51 -101 l617 0 q-5 -443 -20 -654 q-5 -77 -40.5 -106.5 q-35.5 -29.5 -115.5 -29.5 ZM595 176 q-146 128 -321 234 l39 47 q162 -96 327 -231 l-45 -50 Z" /><glyph glyph-name="Identity.8854" unicode="&#x52fe;" d="M664 31 q-27 59 -51 102 l-433 -51 l-35 47 q137 173 234 441 l66 -28 q-83 -233 -199 -390 l340 36 q-51 96 -95 159 l60 36 q93 -141 179 -317 l-66 -35 ZM726 -102 q-98 0 -163 4 l-19 63 q112 -8 182 -8 q49 0 67 15 q18 15 23 66 q20 285 20 591 l-582 0 q-76 -130 -176 -227 l-47 51 q145 133 239 356 l66 -20 q-28 -61 -51 -101 l617 0 q-5 -443 -20 -654 q-5 -77 -40.5 -106.5 q-35.5 -29.5 -115.5 -29.5 Z" /><glyph glyph-name="Identity.8855" unicode="&#x52ff;" d="M715 -102 q-94 0 -159 4 l-19 63 q112 -8 178 -8 q48 0 68.5 19 q20.5 19 25.5 72 q18 274 20 554 l-138 0 q-27 -454 -433 -700 l-39 63 q374 229 406 637 l-145 0 q-66 -321 -382 -528 l-39 59 q293 188 351 469 l-137 0 q-78 -153 -175 -247 l-55 51 q151 148 246 403 l70 -16 q-26 -76 -54 -133 l590 0 q-5 -411 -20 -616 q-5 -78 -43 -112 q-38 -34 -117 -34 Z" /><glyph glyph-name="Identity.8856" unicode="&#x5300;" d="M78 94 q328 83 656 199 l0 -70 q-305 -109 -625 -192 l-31 63 ZM571 301 q-144 91 -297 152 l42 55 q141 -60 301 -149 l-46 -58 ZM43 422 q159 162 242 387 l78 -28 q-27 -65 -62 -125 l586 0 q-3 -382 -19 -612 q-5 -78 -43 -112 q-38 -34 -117 -34 q-94 0 -159 4 l-19 63 q112 -8 178 -8 q48 0 69 19.5 q21 19.5 25 71.5 q17 213 19 550 l-555 0 q-64 -111 -168 -227 l-55 51 Z" /><glyph glyph-name="Identity.8861" unicode="&#x5305;" d="M312 -74 q-68 0 -98 30.5 q-30 30.5 -30 94.5 l0 433 q-43 -65 -94 -121 l-47 59 q159 181 230 387 l75 -20 q-25 -70 -43 -105 l531 0 q-10 -365 -16 -460 q-5 -73 -42 -103.5 q-37 -30.5 -110 -30.5 q-71 0 -120 4 l-17 62 q75 -8 145 -8 q39 0 57.5 15 q18.5 15 20.5 58 q9 147 12 408 l-493 0 q-50 -81 -82 -129 l403 0 l0 -262 l-348 0 l0 -187 q0 -71 76 -71 l455 0 q41 0 58.5 12.5 q17.5 12.5 27.5 42.5 q17 51 24 139 l69 -33 q-9 -72 -31 -136 q-14 -38 -45.5 -58.5 q-31.5 -20.5 -96.5 -20.5 l-471 0 ZM527 293 l0 152 l-281 0 l0 -152 l281 0 Z" /></font>
</defs>
</svg>
